<svg version="1.2" xmlns="http://www.w3.org/2000/svg" viewBox="0 0 1224 1584" width="1224" height="1584">
	<title>ACESSOAINFORMACAO (1)-ai</title>
	<style>
		.s0 { fill: #fdca00 } 
		.s1 { fill: #008632 } 
	</style>
	<g id="Layer 1">
		<g id="&lt;Group&gt;">
			<g id="&lt;Group&gt;">
				<path id="&lt;Path&gt;" class="s0" d="m293.8 868.1c-38.8-42.6-47.1-106.5-28.7-160 34.2-99.1 149.6-114.7 220.8-79.2 43.9 21.9 76.6 66 81.9 114.8 3.8 34.8-6.1 70.6-25.8 99.6-18.6 27.5-48 52.6-79.5 64.2-28.8 10.6-71.4 7.3-102.9-0.7-6.1 8.7-16.1 12.8-24.2 17-15.9 8.2-36 11.5-53.8 11.1 17-9.9 29.5-28.5 34.1-47.7-8.1-5.6-15.5-12-21.9-19.1z"/>
				<path id="&lt;Compound Path&gt;" fill-rule="evenodd" class="s0" d="m544 848.9c-10.3 14.4-22.7 27.3-36.7 38.1-13.6 10.6-29 19.7-45.5 24.9-16 5-33.2 6-49.9 5.3-16.5-0.6-32.9-3-49-6.8-3.4 4.3-7.8 7.7-12.6 10.5-9.7 5.5-19.9 10.3-30.7 13.1-11.6 3-23.7 4.4-35.7 4.1-2 0-4.1-0.9-5.6-2.3-0.7-0.7-2.1-2.8-0.7-3.6 16.6-9.8 28.3-26.8 33.2-45.2-6.7-4.9-13-10.3-18.7-16.3-22.6-24-36-55.3-39.8-87.9-3.6-31.2 1.3-64 14.7-92.4 11.2-23.5 28.8-43.6 50.8-57.5 21-13.3 45-20.8 69.6-23.5 24.2-2.6 49-0.3 72.3 6.5 27.7 8.1 53 23.5 72.7 44.7 21.9 23.5 36.8 53.6 40.1 85.7 3.6 36.2-7.4 73.2-28.5 102.6zm15.4-127c-4.1-14.8-10.7-28.9-19.2-41.6-4.2-6.2-9-12.3-13.9-17.6q-4-4.3-8.3-8.4c-2.6-2.3-5.8-5.1-8-6.9q-4.6-3.7-9.5-7-2.6-1.8-5.3-3.4-0.5-0.3-0.9-0.5c0-0.1-0.5-0.4-0.7-0.5q-1.2-0.7-2.4-1.3-4.5-2.6-9.3-4.8-1.8-0.9-3.7-1.8-1-0.4-1.9-0.8c-0.3-0.1-1.2-0.5-0.5-0.2q-0.1 0-0.3-0.1-7.8-3.2-16-5.6-2.1-0.6-4.2-1.1-0.5-0.2-1-0.3c-0.1 0-0.4-0.1-0.5-0.1q-0.9-0.2-1.8-0.5-4.1-0.9-8.2-1.7-8.7-1.6-17.5-2.3c-0.1-0.1-1.2-0.1-1.1-0.1q-0.2 0-0.4-0.1-1.1 0-2.2-0.1-2.2-0.1-4.3-0.2-4.4-0.2-8.8-0.1c-12 0.1-23.2 1.3-34.8 3.8-23.4 5.1-45.4 15.2-63.8 30.6-20.2 16.8-34.4 39.5-42.5 64.4-9.6 29.8-10.9 62.6-3.2 92.9 8 31.6 25.9 60.2 52.6 79 0.8 0.5 1.6 1.2 2 2 0.4 0.6 0.6 1.3 0.3 2-3.8 15.9-12.8 31-25.4 41.6q1.9-0.1 3.9-0.4c11-1.4 22.2-4.3 32.2-9.3 8.7-4.4 18.5-8.6 24.4-16.8 1-1.4 2.9-1 4.3-0.7 0.3 0.1 0.8 0.2 0.8 0.2q0.7 0.2 1.4 0.4 1.5 0.3 2.9 0.7 2.8 0.6 5.5 1.1 5.9 1.2 11.9 2.1c16.6 2.5 33.6 3.5 50.4 1.8 7.6-0.7 15.2-2.1 22.5-4.3 7.9-2.4 15.4-5.9 22.6-9.9 30.2-16.6 55.9-42.9 71.1-73.9 15.1-30.8 20-66.9 10.8-100.2zm-199.9 182q0 0 0 0c-0.2 0-0.3 0 0 0zm116.7-276.6q-0.2-0.1-0.4-0.2 0.2 0.1 0.4 0.2z"/>
			</g>
		</g>
		<g id="&lt;Group&gt;">
			<path id="&lt;Path&gt;" class="s1" d="m444.5 687.1c0 17.9-14.5 32.3-32.3 32.3-17.9 0-32.4-14.4-32.4-32.3 0-17.9 14.5-32.3 32.4-32.3 17.8 0 32.3 14.4 32.3 32.3z"/>
			<path id="&lt;Path&gt;" class="s1" d="m444.5 846.6c0 16.1-14.5 29.2-32.3 29.2-17.9 0-32.4-13.1-32.4-29.2v-85.1c0-16.1 14.5-29.1 32.4-29.1 17.8 0 32.3 13 32.3 29.1z"/>
		</g>
		<g id="&lt;Group&gt;">
			<path id="&lt;Compound Path&gt;" fill-rule="evenodd" class="s1" d="m628.5 697.9h12.4l20.7 57.1h-12.6l-4.2-12.7h-20.7l-4.3 12.7h-12.3zm-1.2 35.1h14.3l-7-21h-0.1z"/>
			<path id="&lt;Compound Path&gt;" class="s1" d="m694.3 728.3q-1.2-7-8.2-7.1-5.1 0.2-7.3 4.4-2.1 4.3-2.1 9 0 4.7 2.1 8.7 1.1 1.9 2.8 3.1 1.7 1.3 4.3 1.3 7.7-0.2 8.8-8.4h10.6q-2.8 16.7-19.3 16.9-9.2-0.1-14.6-6-5.6-5.8-5.7-15.2 0-9.8 5.4-16 5.2-6.2 15.1-6.3 7.4 0 12.8 3.8 5.4 3.9 6 11.8z"/>
			<path id="&lt;Compound Path&gt;" fill-rule="evenodd" class="s1" d="m721.9 737.1q0.6 10.6 9.9 10.6 3.4 0 5.8-1.8 2.3-1.6 2.9-3.7h9.7q-4.9 14.1-18.8 14-9.5-0.1-14.9-6.1-5.5-5.9-5.6-15.6 0.1-9.5 5.8-15.6 5.5-6.1 14.7-6.2 10.3 0.2 15.2 7.4 1.2 1.7 2.2 3.6 0.8 1.9 1.4 4.1 1.1 4.5 0.7 9.3zm17.9-7.2q-0.6-4.3-2.7-6.5-2.1-2.2-6.1-2.2-2.5 0-4.2 0.9-1.9 0.9-2.9 2.2-2 3-2 5.6z"/>
			<path id="&lt;Compound Path&gt;" class="s1" d="m767.3 741.6q0.2 3.7 2.6 5.3 2.5 1.7 5.8 1.7 2.6 0.1 4.9-1.2 2.3-1.1 2.4-4.1 0-2.5-3.2-3.9-3.4-1.2-9.3-2.4-1.2-0.4-2.3-0.7-1.1-0.3-2.3-0.7-2.3-0.8-4.1-2-1.8-1.3-2.9-3.2-1.1-1.8-1.1-4.4 0-4 1.6-6.6 1.5-2.6 3.9-4.1 2.5-1.5 5.6-2 3.1-0.6 6.3-0.6 6.8 0 11.9 2.7 5 3 5.8 10.5h-10.5q-0.3-3.2-2.3-4.5-2.1-1.1-5.2-1.1-2 0-4 0.7-2 0.7-2.1 3.1 0 1.5 1 2.4 1.1 1 2.9 1.6 1.8 0.5 4.1 1 2.2 0.5 4.5 1.2 2.5 0.4 4.8 1.3 2.3 0.7 4 2.1 1.8 1.3 2.9 3.3 1 1.9 1 4.8-0.1 8-5.6 11.3-5.6 3.1-12.7 3.1-7.2 0-12.8-3.3-5.5-3.3-6.1-11.3z"/>
			<path id="&lt;Compound Path&gt;" class="s1" d="m810.2 741.6q0.3 3.7 2.6 5.3 2.6 1.7 5.9 1.7 2.6 0.1 4.8-1.2 2.4-1.1 2.5-4.1 0-2.5-3.2-3.9-3.4-1.2-9.3-2.4-1.2-0.4-2.3-0.7-1.1-0.3-2.3-0.7-2.3-0.8-4.1-2-1.8-1.3-2.9-3.2-1.2-1.8-1.2-4.4 0-4 1.7-6.6 1.4-2.6 3.9-4.1 2.5-1.5 5.6-2 3.1-0.6 6.3-0.6 6.8 0 11.8 2.7 5.1 3 5.8 10.5h-10.4q-0.3-3.2-2.3-4.5-2.1-1.1-5.2-1.1-2 0-4 0.7-2.1 0.7-2.2 3.1 0 1.5 1.1 2.4 1.1 1 2.9 1.6 1.8 0.5 4.1 1 2.1 0.5 4.4 1.2 2.5 0.4 4.9 1.3 2.2 0.7 4 2.1 1.8 1.3 2.9 3.3 1 1.9 1 4.8-0.2 8-5.7 11.3-5.5 3.1-12.6 3.1-7.3 0-12.8-3.3-5.5-3.3-6.1-11.3z"/>
			<path id="&lt;Compound Path&gt;" fill-rule="evenodd" class="s1" d="m843.5 734.5q0-10 5.7-15.9 5.4-5.8 15-5.9 9.6 0.1 15.2 5.9 5.5 5.9 5.5 15.9 0 10-5.5 15.7-5.6 5.9-15.2 6-9.6-0.1-15-6-5.7-5.7-5.7-15.7zm11 0q-0.1 5.1 2.1 9 2 4.1 7.6 4.2 5.6-0.1 7.7-4.2 2-3.9 2-9 0-5.3-2-9.2-2.1-4-7.7-4.1-5.6 0.1-7.6 4.1-2.2 3.9-2.1 9.2z"/>
			<path id="&lt;Compound Path&gt;" fill-rule="evenodd" class="s1" d="m915.3 726.5q0.8-7.9 6.4-10.9 5.5-2.9 12.5-2.9 3.1 0 6.2 0.3 3.1 0.5 5.6 1.8 2.7 1.3 4.2 3.6 1.6 2.4 1.6 6.1v21.4q0 2.8 0.4 5.2 0.3 2.6 1 3.9h-11.2q-0.6-1.9-0.8-3.9-2.6 2.7-6.2 3.9-3.5 1.2-7.3 1.2-5.8 0-9.6-3.2-3.9-2.9-4-9.2 0-3.6 1.2-5.9 1.1-2.3 3-3.6 2.1-1.4 4.5-2.1 2.4-0.7 4.9-1 2.7-0.5 5-0.8 2.3-0.2 4.1-0.6 3.9-0.7 4-4-0.1-3.5-2.1-4.6-2-0.9-5-0.9-6.5-0.1-7.3 6.2zm5.4-29.4h12.1l7.5 11.4h-7.7zm20 37.6q-1.5 1.1-3.9 1.5-2.6 0.4-5.3 0.9-2.6 0.4-4.4 1.7-2.1 1.3-2.1 4.4 0.1 3 2.2 4.1 1.9 1.2 4.6 1.2 3.2 0 5.1-1.2 1.9-1.1 2.6-2.7 0.8-1.6 1.1-3.2 0.1-1.6 0.1-2.5z"/>
			<path id="&lt;Compound Path&gt;" class="s1" d="m613.1 775.9h12.6v57.1h-12.6z"/>
			<path id="&lt;Compound Path&gt;" class="s1" d="m635.8 791.7h10.4v5.8h0.2q2.2-3.6 5.6-5.2 3.1-1.6 6.7-1.6 8.6 0.1 11.8 4.6 2.9 4.6 2.8 12.4v25.3h-11v-23.2q0.2-10.2-7-10.2-8.7-0.1-8.5 11.8v21.6h-11z"/>
			<path id="&lt;Compound Path&gt;" class="s1" d="m685.6 799.2h-6.6v-7.5h6.6v-3.2q0-5.6 3.4-9.1 3.2-3.4 10-3.5 2.9 0.1 5.8 0.3v8.5q-1.9-0.3-4-0.3-2.2 0-3.2 1.1-1 1-1 3.7v2.5h7.6v7.5h-7.6v33.8h-11z"/>
			<path id="&lt;Compound Path&gt;" fill-rule="evenodd" class="s1" d="m708.6 812.5q0.1-10 5.7-15.9 5.5-5.8 15-5.9 9.6 0.1 15.2 5.9 5.5 5.9 5.6 15.9-0.1 10-5.6 15.7-5.6 5.9-15.2 6-9.5-0.1-15-6-5.6-5.7-5.7-15.7zm11 0q-0.1 5.1 2.1 9 2.1 4.1 7.6 4.2 5.6-0.1 7.7-4.2 2.1-3.9 2.1-9 0-5.3-2.1-9.2-2.1-4-7.7-4.1-5.5 0.1-7.6 4.1-2.2 3.9-2.1 9.2z"/>
			<path id="&lt;Compound Path&gt;" class="s1" d="m758.7 791.7h10.5v7.7h0.1q1.6-4.1 5.2-6.4 3.5-2.2 7.6-2.3 1.3 0 2.4 0.4v10.6q-1.7-0.4-3.9-0.4-6 0.1-8.5 3.8-2.5 3.7-2.4 9.4v18.5h-11z"/>
			<path id="&lt;Compound Path&gt;" class="s1" d="m789.4 791.7h10.6v5.6h0.2q4.5-6.5 12.6-6.6 3.9 0 7.1 1.5 3.2 1.7 4.9 5.4 1.8-2.9 5-4.9 3.1-1.9 7.4-2 6.7 0 10.9 3.3 4 3.5 4.1 11.4v27.6h-11v-23.3q0-2.2-0.1-4-0.1-1.9-0.9-3.2-0.6-1.3-2.1-2.2-1.5-0.7-4-0.7-2.4 0-3.9 0.9-1.6 0.9-2.4 2.3-0.9 1.5-1.2 3.3-0.3 1.9-0.3 4v22.9h-11v-23.1q0-1.8 0-3.7-0.1-1.8-0.8-3.3-0.5-1.5-2-2.4-1.5-0.9-4.3-0.9-0.9 0-2.1 0.3-1.4 0.4-2.6 1.4-1.2 1-2.2 2.9-0.9 1.8-0.9 4.9v23.9h-11z"/>
			<path id="&lt;Compound Path&gt;" fill-rule="evenodd" class="s1" d="m861.8 804.5q0.8-7.9 6.4-10.9 5.5-2.9 12.5-2.9 3.1 0 6.2 0.3 3.1 0.5 5.6 1.8 2.7 1.3 4.2 3.6 1.6 2.4 1.6 6.1v21.4q0 2.8 0.3 5.2 0.4 2.6 1.1 3.9h-11.2q-0.6-1.9-0.8-3.9-2.6 2.7-6.2 3.9-3.5 1.2-7.3 1.2-5.8 0-9.6-3.1-3.9-3-4-9.3 0-3.6 1.2-5.9 1.1-2.3 3-3.6 2-1.4 4.5-2.1 2.3-0.7 4.9-1 2.7-0.5 5-0.8 2.3-0.2 4.1-0.6 3.9-0.7 4-4-0.1-3.5-2.1-4.6-2.1-0.9-5.1-0.9-6.5-0.1-7.3 6.2zm25.5 8.3q-1.5 1.1-4 1.5-2.5 0.4-5.2 0.9-2.6 0.4-4.5 1.7-2 1.3-2 4.4 0.1 3 2.1 4.1 2 1.1 4.6 1.1 3.3 0 5.2-1.2 1.8-1 2.6-2.6 0.8-1.6 1-3.2 0.2-1.6 0.2-2.5z"/>
			<path id="&lt;Compound Path&gt;" class="s1" d="m935.4 806.3q-1.1-7-8.1-7.1-5.1 0.2-7.3 4.4-2.1 4.3-2 9-0.1 4.7 2 8.6 1.1 2 2.8 3.2 1.7 1.2 4.3 1.2 7.7-0.1 8.7-8.3h10.7q-2.6 16.1-18.4 16.8l-2.1 3.2h0.1q0.7-0.4 2.6-0.4 2.8 0 5 1.3 2.1 1.3 2.1 4.3 0 4.6-2.8 6.3-2.6 1.7-6.2 1.7-3.5-0.1-5.4-0.5-2.2-0.5-4.2-1.3l1.6-3.8q1.3 0.5 3 0.9 1.6 0.5 3.5 0.6 3.1 0 3.1-2.8-0.1-2.7-3.1-2.5-1.7 0-3.1 0.5l-1.6-1.9 3.9-5.8q-8-0.9-12.7-6.6-4.8-5.7-4.9-14.3 0-9.8 5.4-16 5.3-6.2 15.1-6.3 7.4 0 12.8 3.9 5.4 3.8 6.1 11.7z"/>
			<path id="&lt;Compound Path&gt;" fill-rule="evenodd" class="s1" d="m953.6 804.5q0.8-7.9 6.4-10.9 5.5-2.9 12.5-2.9 3.1 0 6.2 0.3 3.1 0.5 5.6 1.8 2.7 1.3 4.2 3.6 1.6 2.4 1.6 6.1v21.4q0 2.8 0.3 5.2 0.3 2.6 1.1 3.9h-11.2q-0.6-1.9-0.8-3.9-2.6 2.7-6.2 3.9-3.5 1.2-7.3 1.2-5.8 0-9.6-3.1-3.9-3-4-9.3 0-3.6 1.2-5.9 1.1-2.3 3-3.6 2-1.4 4.5-2.1 2.3-0.7 4.9-1 2.7-0.5 5-0.8 2.3-0.2 4.1-0.6 3.9-0.7 4-4-0.1-3.5-2.1-4.6-2.1-0.9-5.1-0.9-6.5-0.1-7.3 6.2zm33.4-28.6q-0.3 1.3-1 2.9-0.5 1.6-1.4 3-0.9 1.3-2.4 2.2-1.5 1-3.9 1-1.7 0-3.2-0.5-1.6-0.4-3.1-0.9-2.8-1.2-5.5-1.3-1.4 0-2.1 0.8-0.8 0.9-1.1 2.5h-4.7q0.5-1.8 1.1-3.5 0.7-1.7 1.7-3.1 1.1-1.4 2.8-2.3 1.6-0.8 4.1-0.8 1.4 0 2.7 0.4 1.1 0.4 2.3 0.9 2.5 1.4 5.1 1.5 3.4-0.1 3.3-2.8zm-8 36.9q-1.4 1.1-3.9 1.5-2.6 0.4-5.2 0.9-2.6 0.4-4.5 1.7-2 1.3-2 4.4 0 3 2.1 4.1 1.9 1.1 4.6 1.1 3.3 0 5.2-1.2 1.8-1 2.6-2.6 0.8-1.6 1-3.2 0.1-1.6 0.1-2.5z"/>
			<path id="&lt;Compound Path&gt;" fill-rule="evenodd" class="s1" d="m998.7 812.5q0.1-10 5.8-15.9 5.4-5.8 15-5.9 9.6 0.1 15.2 5.9 5.4 5.9 5.5 15.9-0.1 10-5.5 15.7-5.6 5.9-15.2 6-9.6-0.1-15-6-5.7-5.7-5.8-15.7zm11.1 0q-0.1 5.1 2 9 2.1 4.1 7.6 4.2 5.7-0.1 7.8-4.2 2-3.9 2-9 0-5.3-2-9.2-2.1-4-7.8-4.1-5.5 0.1-7.6 4.1-2.1 3.9-2 9.2z"/>
		</g>
	</g>
</svg>