<svg version="1.2" xmlns="http://www.w3.org/2000/svg" viewBox="0 0 1224 1584" width="1224" height="1584">
	<title>ACOESEPROJETOS-ai</title>
	<style>
		.s0 { fill: #000000 } 
	</style>
	<g id="Layer 1">
		<g id="&lt;Group&gt;">
			<path id="&lt;Compound Path&gt;" fill-rule="evenodd" class="s0" d="m617.2 993.3c-1.1 0-2.2-0.2-3.3-0.8-2.2-1.2-3.6-3.5-3.6-6.1v-58.5c0-19.4 15.8-35.2 35.2-35.2h101.9c3 0 5.7 2 6.6 4.9 0.9 3-0.2 6.1-2.8 7.8l-130.1 86.8c-1.2 0.8-2.5 1.1-3.9 1.1zm28.3-86.7c-11.8 0-21.3 9.5-21.3 21.3v45.5l100.2-66.8z"/>
			<path id="&lt;Compound Path&gt;" fill-rule="evenodd" class="s0" d="m689 681h-185.7c-3.9 0-7-3.1-7-6.9v-30.1c0-3.8 3.1-6.9 7-6.9h185.7c3.9 0 7 3.1 7 6.9v30.1c0 3.8-3.1 6.9-7 6.9zm-178.8-13.9h171.9v-16.1h-171.9z"/>
			<path id="&lt;Path&gt;" class="s0" d="m624.3 718.7h-56.4c-3.8 0-6.9-3.1-6.9-6.9 0-3.9 3.1-7 6.9-7h56.4c3.9 0 7 3.1 7 7 0 3.8-3.1 6.9-7 6.9z"/>
			<path id="&lt;Path&gt;" class="s0" d="m690.7 756.4h-187.4c-3.9 0-7-3.1-7-7 0-3.8 3.1-6.9 7-6.9h187.4c3.8 0 6.9 3.1 6.9 6.9 0 3.9-3.1 7-6.9 7z"/>
			<path id="&lt;Path&gt;" class="s0" d="m654 794.1h-150.7c-3.9 0-7-3.2-7-7 0-3.8 3.1-6.9 7-6.9h150.7c3.9 0 7 3.1 7 6.9 0 3.8-3.1 7-7 7z"/>
			<path id="&lt;Path&gt;" class="s0" d="m614.7 831.7h-111.4c-3.9 0-7-3.1-7-6.9 0-3.9 3.1-7 7-7h111.4c3.8 0 6.9 3.1 6.9 7 0 3.8-3.1 6.9-6.9 6.9z"/>
			<path id="&lt;Path&gt;" class="s0" d="m577.1 869.4h-73.8c-3.9 0-7-3.1-7-6.9 0-3.9 3.1-7 7-7h73.8c3.8 0 6.9 3.1 6.9 7 0 3.8-3.1 6.9-6.9 6.9z"/>
			<path id="&lt;Path&gt;" class="s0" d="m587.2 918.6c-1.8 0-3.6-0.6-5-2l-28.8-28.9c-2.7-2.7-2.7-7.1 0-9.8l191.7-191.7c2.7-2.7 7.1-2.7 9.8 0l28.9 28.8c2.7 2.8 2.7 7.2 0 9.9l-65.6 65.6c-2.7 2.7-7.1 2.7-9.8 0-2.7-2.7-2.7-7.1 0-9.9l60.7-60.6-19.1-19.1-181.9 181.9 19.1 19.1 93.3-93.4c2.7-2.7 7.1-2.7 9.8 0 2.8 2.7 2.8 7.1 0 9.8l-98.2 98.3c-1.4 1.4-3.2 2-4.9 2z"/>
			<path id="&lt;Compound Path&gt;" fill-rule="evenodd" class="s0" d="m778.9 726.9c-1.8 0-3.6-0.7-4.9-2l-28.9-28.9c-2.7-2.7-2.7-7.1 0-9.8l18.3-18.3c2.7-2.7 7.1-2.7 9.8 0l28.9 28.9c2.7 2.7 2.7 7.1 0 9.8l-18.3 18.3c-1.3 1.3-3.1 2-4.9 2zm-19-35.8l19 19 8.4-8.4-19-19z"/>
			<path id="&lt;Compound Path&gt;" fill-rule="evenodd" class="s0" d="m793.6 705.1c-1.8 0-3.6-0.7-4.9-2l-21.8-21.8c-2.7-2.7-2.7-7.1 0-9.8l10.2-10.2c4.1-4 9.5-6.1 15.4-5.8 5.7 0.2 11.1 2.7 15.2 6.8 4.1 4.1 6.6 9.5 6.8 15.2 0.3 5.9-1.8 11.3-5.8 15.4l-10.2 10.2c-1.3 1.3-3.1 2-4.9 2zm-11.9-28.7l11.9 11.9 5.3-5.3c1.2-1.2 1.8-2.9 1.7-4.9-0.1-2.2-1-4.3-2.7-6-1.7-1.7-3.8-2.6-6-2.7-1.9-0.2-3.7 0.5-5 1.7z"/>
			<path id="&lt;Compound Path&gt;" fill-rule="evenodd" class="s0" d="m545.1 931.9c-1.9 0-3.6-0.7-5-2-1.8-1.9-2.5-4.6-1.7-7.1l13.3-42.1c0.7-2.3 2.6-4 4.9-4.6 2.4-0.6 4.9 0.1 6.6 1.8l28.9 28.9c1.7 1.7 2.4 4.2 1.8 6.6-0.6 2.3-2.3 4.2-4.7 4.9l-42.1 13.3q-1 0.3-2 0.3zm16.4-36l-5.8 18.4 18.4-5.8z"/>
			<path id="&lt;Path&gt;" class="s0" d="m617.2 993.3h-144c-19.5 0-35.2-15.7-35.2-35.2v-13.8c0-3.8 3.1-6.9 6.9-6.9 3.8 0 7 3.1 7 6.9v13.8c0 11.8 9.5 21.3 21.3 21.3h141.9l125.3-83.5v-144.4c0-3.8 3.1-7 7-7 3.8 0 6.9 3.2 6.9 7v148.1c0 2.4-1.2 4.5-3.1 5.8l-130.1 86.8c-1.2 0.7-2.5 1.1-3.9 1.1z"/>
			<path id="&lt;Path&gt;" class="s0" d="m444.9 907.5c-3.8 0-6.9-3.1-6.9-6.9v-272.4c0-19.4 15.7-35.2 35.2-35.2h245.9c19.4 0 35.2 15.8 35.2 35.2v30.9c0 3.8-3.1 6.9-6.9 6.9-3.9 0-7-3.1-7-6.9v-30.9c0-11.8-9.6-21.3-21.3-21.3h-245.9c-11.8 0-21.3 9.5-21.3 21.3v272.4c0 3.8-3.2 6.9-7 6.9z"/>
		</g>
	</g>
</svg>