<svg version="1.2" xmlns="http://www.w3.org/2000/svg" viewBox="0 0 1276 539" width="1276" height="539">
	<title>adesivo padrão 45x19-ai</title>
	<style>
		.s0 { fill: #110e7a } 
		.s1 { fill: #0b0146 } 
	</style>
	<g id="Layer 1">
		<g id="&lt;Group&gt;">
			<path id="&lt;Compound Path&gt;" fill-rule="evenodd" class="s0" d="m224.6 434.6v0.1c-0.6 3.6-0.7 6.8-0.6 10.3l0.4 0.7c0.1 0.3 0.2 0.9 0.2 1.5 0.7 0.4 1.3 2.3 1.9 2.9 1 1 2.3 1.4 3.7 1.5 1 0 2.1-0.1 3-0.3 7.1-1.7 12.8-7.1 17.5-12.2 4.5-4.9 8.5-10.2 12-15.9 0.5-0.7 1.4-3.4 2.7-3.3 1.4 0.1 0.8 4.2 0.7 5-1.5 11.8-9.5 22.2-18.3 29.6-3 2.4-7 5.8-11 6-3.5 0.3-7.2-1.7-10-3.5-5.3-3.1-10.2-7.9-12.1-13.8-1.5-4.3-0.6-9 0-13.4 0.1-0.2-0.3-2.4 0.2-3-0.1 0.3-0.1 2.2-0.1 2.2 0.1-0.8 0.1-1.8 0.3-2.6-0.2 0.2 0-1.7 0-1.8 0.2-1 0.4-1.9 0.6-3 0.5-2.2 1.2-4.3 1.9-6.5 1.4-4.4 3.2-8.6 4.6-13.2 1.3-4 3.1-7.8 5.2-11.7 0.6-1 5.3-10.5 6.4-10.3 0 0-0.8 1.7-0.7 1.8 1.1-2 2.3-4.1 3.6-6-0.5 0.4-1.1 1.1-1.1 1.1 0.5-1.5 2.3-3.5 3.3-4.7 0.8-1.4 1.7-2.7 2.6-4.1 2.1-3 4.4-6 6.9-8.8 3.3-3.5 8.2-8.5 13.4-8.8 9.4-0.6 14.8 9.4 14.9 17.3v0.1c0 4.2-1 8.9-3.8 12-2.5 2.9-7.6 6.3-11.6 6.7-0.9 0.2-2.5 0.5-2.3-0.9 0-0.1 0.4-0.4 0.8-0.8h-0.1c0.7-0.2 4.4-8.8 5.2-8.7 0 0-1.4 3.2-1.7 4 1.9-3.7 3.8-7.4 5.3-11.4 0.8-2.3 2.4-6.4 1.4-8.8-1.4-3-5.6-0.7-7.4 0.4l-1.6 0.9 0.5-0.2q-0.8 0.5-1.3 1c0.5-0.5 1.2-0.9 1.9-1.2 1.5-1 5.1-3.2 7-1.8 1.4 1.1 1 2.9 0.4 4.5 0.5-2.1 0.5-4.3-1.6-4.6-2.1-0.4-3.7 1.4-5.3 1.8-5.3 3.5-9.5 9.2-13 14.4-3.9 5.7-7.4 11.8-10.4 18-3.2 6.6-5.7 13.5-8.2 20.4-2.5 6.6-4.9 13.3-6.2 20.2v0.5c0 0.2 0 0.2-0.1 0.3l0.1-0.1c0 0.1-0.1 0.1-0.1 0.2zm27.3-66.9c-6.5 7.2-12.1 15.8-16.3 24.7-3.4 7.5-6.3 14.9-8.8 22.6 1.8-5 4-9.7 6.2-14.3 3.8-7.9 7.6-15.5 12.1-23 1.9-3.1 4.2-6.8 6.8-10zm8-5.6c-2.9 2.3-5.2 5.2-7.4 8.1 1.4-1.7 2.9-3.6 4.5-5.2 0.9-0.8 1.9-2 2.9-2.9zm8.8 4.3c0-0.8 0.5-1.9 0.7-2.9-0.1 0.9-0.3 1.7-0.5 2.4 0 0.2 0 0.3-0.2 0.5z"/>
			<path id="&lt;Compound Path&gt;" fill-rule="evenodd" class="s0" d="m324 420.5c-1.7 2.7-3.9 5.3-6.1 7.7-3.3 3.6-8.2 9.5-13.6 9.9-2.6 0.2-5.2-1.1-6.6-3.4-2.5-4.4 0.1-10 1.6-14-3 3.6-5.9 7.2-8.8 10.9-0.8 1-9.6 9.9-10.8 8.4 0-0.1 1.1-0.5 1-0.7-1.2 0.7-2.5 1.3-3.7 1.3 0.1 0.1 0.3 0.1 0.5 0.1 0.3 0.8-3.1-0.4-3.4-0.7-1.3-1.1-1.9-3-2.2-4.6-0.6-3.7 0-7.4 0.9-11 0.9-3.7 1.8-7.3 3.5-10.9 0.8-1.8 2.2-2.8 3-4.4 1.2-2.9 2.9-6.6 5.4-8.7 2.1-1.8 5.8-1.5 7.9 0.2 2.1 1.6 0.9 2.4 0 4q0.3-0.5 0.7-0.7c0.2 0-2.6 5.7-3.2 5.6 0 0 0.4-1.2 0.7-1.9-1.5 2.7-2.9 5.5-4.1 8.2 0.2-0.3 0.4-0.4 0.7-0.4-0.4 0.1-4.4 10.6-4.8 11.5-0.4 1.8-2.5 6.9 0.6 5.8 3.4-0.9 6.6-5.5 8.7-8 2.8-3.1 5.1-6.4 7.5-9.9 2.6-3.8 5.6-10.2 11.5-8.6 5.2 1.5 1.2 7.1-0.4 10.3 0.3-0.2 0.5-0.5 0.6-0.4 0.7 0.8-1.6 5.2-2 6.3-0.7 2.2-1.6 4.8-1.7 7.2-0.1 2.8 0.7 2 2.5 0.6 4-3.1 7.2-7.1 10.6-10.7 0.2-0.2 5.5-6.3 5.9-4.1 0.1 1.4-1.8 3.9-2.4 5.1zm-36.6-5.1q0 0 0 0 0 0 0 0zm-3.2 6.1c-1.2 3.1-3.7 7.7-3 11.1-0.2-1.1 1.4-6.6 3-11.1zm-3 11.1q0 0 0 0 0 0 0 0zm18.6-12.4c-0.4 0.3-0.5 0.6-0.5 1.1 0.1-0.4 0.2-0.7 0.5-1.1zm11.9-9.8c-1.2 2.9-4.6 6.6-3.7 9.5 0 0.1 0 0.2-0.1 0.3 0.1-0.1 0.2-0.2 0.2-0.3 0.3-0.6 0.5-1.5 0.7-2.2 0.8-2.4 2-4.8 2.9-7.3z"/>
			<path id="&lt;Compound Path&gt;" fill-rule="evenodd" class="s0" d="m345.5 421.4c-2 2.9-3.8 5.7-6 8.4-2.4 3.2-5.2 8.1-9.3 9.1-0.9 0.1-5.3-1.1-5.2-1.8h0.2c-0.9-0.4 0 0.6-1.4-0.4-1-0.7-1.7-1.8-2.4-2.8-1.3-1.7-2.9-3.2-3.4-5.3-0.1-0.6-0.3-4.8 0.6-4.8 0.3 0 0 0.6 0.1 0.6l0.4-2.1c-0.1 0.2-0.1 0.4-0.4 0.5-0.4-0.1 1.8-8.4 2-9 0.9-2.5 1.4-5.3 3.7-6.6 1.7-1.2 3.9-1 6.1 0 1 0.3 3.6 1.5 3.6 2.6 0 0.7-0.5 0.8-0.9 1.2 0.1-0.1 0.4-0.1 0.5-0.1 0.3 0.2-1.4 2.6-1.6 2.5-0.3 0 0.1-0.6 0.2-0.9-2.2 3.6-4.1 7.6-5.5 11.7 0.6-1.5 3.5-8 3.9-7.9 0.3 0.1-7.7 14-3.7 16 1.8 0.9 4.9-2 6.2-3 2.2-1.8 5.2-4 6.8-5.9-0.2 0.2-0.4 0.2-0.8 0.2-0.4-0.6 5.4-8.2 6.4-8.9 0.8-0.6 2.4-1.1 2.7 0.4 0.4 2.2-1.7 4.8-2.8 6.3zm-12.3-10.4q0 0 0 0 0 0 0 0zm-7.4 17l-0.2 0.9 0.2-0.7v-0.1c0.1-0.2 0.1-0.2 0-0.1zm1.5-28.6c-0.1-0.4-0.5-3.9 0.8-3.4 0-0.3 1.4-2 0.7-0.5 1.1-1.4 2-3.1 2.8-4.8l-1.4 2.1c1-2.1 2.7-6.4 2.8-7.2 0-0.1-0.3-1.1 0-1.4-2.5-0.9-0.7-2.3 0.3-3.1-0.2 0-0.3 0-0.4-0.2-0.5-0.5 0.9-0.8 1.2-1 1.7-0.6 3.7-0.3 5.2 0.5 1.3 0.8 2.5 2.6 2.9 3.9 0.5 1.6-0.7 3.3-1.7 4.2-0.5 0.5-1.3 0.8-1.9 1.3-0.6 0.8-0.5 1.8-1.1 2.6-0.4 0.6-1 0.9-1.4 1.4-0.5 0.4-0.5 0.7-0.1 1.1-0.5 0.2-0.8 0.4-1.2 0.8-1.1 1.8-1.8 2.9-3.2 3.9 1.3-0.8 2.1-1.5 3.2-3 1-1.1 2-2 3.4-2.5-1.2 1.2-1.4 2.7-2.8 3.7-1.4 0.8-0.1-0.8-1.6 0.6 0 0 0.7-0.2 0.3 0.1-1 0.9-2 2.4-3.4 3-0.7 0.2-1.2 0.7-2 0.3-0.8-0.4-0.5-0.9-0.7-1.2 0 0-0.7-1.1-0.7-1.2zm0.9-3.4c0.1 0 0.1 0.2 0.1 0.2 0.2-0.2 0.2-0.2 0.2-0.3-0.2 0.1-0.2 0.1-0.3 0.1zm1.9-3c-0.2 0.5-0.5 0.7-0.5 0.7z"/>
			<path id="&lt;Compound Path&gt;" fill-rule="evenodd" class="s0" d="m403 422.4c-2.4 2.6-4.7 5.4-7 8.1-4.8 5.8-8.5 12.5-13.2 18.6-3.7 4.6-9.9 13-16 6.8-5-4.9-3.7-14.1-3.1-20.3-3.5 3.5-7.2 6.9-11.2 9.8-2.2 1.5-4.7 3.2-7.5 2.6-9-1.8-7.7-14.5-5.1-20.6 1.5-3.6 2.1-7.4 4.2-11.1 2.3-4.2 5.7-8.9 10.2-10.8 5.4-2.2 10.4 4 13.5 7.6 2.8-10.2 6.6-20 11-29.6 0.3-0.3 1.1-3.7 2-4.4-0.5 0.4-1.1 2.2-1.3 3.2 0.5-1.3 1.2-2.6 1.9-3.9h-0.1c0.3-0.4 1.8-4.1 2.2-4.6 1-1.7 2.2-3.3 3.3-4.9 2.2-2.5 4.9-4.9 8-6.1 4.3-1.6 10.6-0.7 12.4 4.1 2.3 6.4-2 14.1-5.1 19.4-2 3.3-4.1 6.6-6.3 9.7l-3 4-1 1.1c0.1-0.2 0.2-0.4 0.1-0.5l-0.9 1.2-0.4 0.5-4.9 6.7c0.5-0.7 1.5-1.8 1.7-1.7 0 0-7.9 10-8.6 11-2.9 3.6-3.2 9.6-3.9 14.1-0.5 2.5-3.6 18.9 0.4 18.9 1.1 0 2.5-2 3.1-2.7 1.7-1.9 3.2-3.8 4.7-5.9 3.1-4.2 6-8.3 9-12.5 3-4.1 6.2-8.1 9.5-11.8 0.7-0.6 5.9-7 6.6-3.1v0.1c0.4 2.9-3.3 5.2-5.2 7zm-22.2-43.3q0 0 0 0 0 0 0 0zm-15.2 43.4c0.5-2 1.3-4 0.1-5.9-1-1.5-1.9-3.4-3.4-4.5-0.6-0.4-1.4-1-2.2-0.8q-0.1 0-0.2 0l0.4-0.2c-2.4 0.2-4.3 4.2-5.6 6.6-2.5 4.8-4.7 9.9-6.2 15.3-0.5 1.8-2.8 8.4-0.1 9.6 1.4 0.7 3.7-1.1 5.1-2.3-1.5 1.2-3.3 2.2-4.3 2-3.8-0.2-1.1-7.7 0.7-12.3-1.6 4.5-4.1 11.9-0.8 12.2 2.6 0.3 6.8-4.5 8.5-6.1 1.9-1.7 3.7-3.5 5.5-5.3 1.9-2 1.9-4.4 2.4-7.2 0 0 0-0.2 0.1-0.6zm-5.7-11.2l-0.2 0.1q0.1-0.1 0.2-0.1zm-5.6 28.1h0.1c1.7-1.4 3.5-2.9 5-4.4 1.2-1.1 4.8-3.7 5.1-5.2q-4 4.2-8.4 8zm4-26.7c0.1 0 0.4-0.5 0.9-0.9-0.4 0.4-0.7 0.9-0.9 0.9zm4.8-0.6c-0.2-0.3-0.4-0.4-0.7-0.5zm12.4-9.5c-0.2 0.9-1.4 2.2-1.6 2.9-0.5 1.4 0.1 2.9-0.8 4.1 0.1 0 0.2-0.2 0.2-0.3 0.4-0.3 1.1-3 1.3-3.6 0.3-0.5 0.9-2.2 0.9-3.1zm3.3-13c-0.6 1.6-1.4 3.2-2.1 4.4-0.8 1.7-1.2 3.4-1.8 5.1 0.7-1.2 1.3-2.5 1.8-3.9 0.6-1.7 1.5-3.7 2.1-5.6zm4.9 8.2q-2.6 7.4-4.8 14.9c0.1-0.2 0.3-0.5 0.6-0.7-0.6 0.8-1.2 1.5-1.3 2.2l0.4-0.5 0.9-1 5.9-7.7-2.4 2.9-2.5 2.7c4.7-5.9 9.3-12.3 13.3-18.8 3.5-5.5 9-13.7 8.6-20.7 0-1-0.3-2.5-1.3-3.1-2.7-1.5-5.7 3.8-6.7 5.6-4.2 6.7-7.1 14.1-9.7 21.5v0.1c0 0-0.1 0.1-0.3 0.5v0.1c-0.1 0.1-0.1 0.3-0.1 0.4-0.1 0.2-0.1 0.3-0.1 0.4l-0.5 1.2c0-0.2 0.2-0.4 0.2-0.6-0.2 0.4-0.3 0.7-0.2 0.6zm1.9 11.4c-0.1 0.1-0.2 0.2-0.2 0.4 0 0 0.1-0.2 0.2-0.4zm0.1-0.2l-0.1 0.2c0 0 0.1-0.1 0.1-0.2z"/>
			<path id="&lt;Compound Path&gt;" fill-rule="evenodd" class="s0" d="m455.5 423.2c-1.6 3.5-3.3 6.6-5.1 9.8-2.2 3.4-4.4 6.8-7 9.8-2.1 2.7-5 6-8.4 6.6-4 0.7-7.1-2.5-8.4-6-2.8-6.8-0.8-14 1.3-20.6 0 0 0-1.1 0.1-1.9-1.1 1.8-2.8 3.8-3.8 5.5-1.4 2.2-2.4 4.4-3.9 6.5-0.7 1-10.2 12.5-11.5 10.5 0 0 1.4-0.6 1.3-0.8-1.4 0.9-3.3 1.1-4.9 0.7 0.4 0.2 0.6 0.3 0.5 0.3-2.7 0.4-4.8-3.8-5.4-5.7-0.9-3.2-0.6-6.8-0.1-10 1.3-6.7 4.1-14 8-19.8 1.1-1.4 2.1-3 3.6-4.1 0.9-0.8 1.7-0.9 2.8-1.6 1.7-1.5 3.2-2.8 5.8-2.8 5.6 0 8 6.5 9.1 10.9 2.8-3.6 7.8-8.3 12.1-3.1 2.3 2.8 0.8 4.8-0.5 7.4-2.2 4-3.9 9-4.9 13.2 0.2-0.4 0.5-2.1 1-2.2 0.9-0.2-7.4 25.9 4.5 11.2 3.6-4.5 6.7-9.2 9.8-14 1.4-2.2 2.8-4.5 4.3-6.7 0.7-0.9 2.8-3.1 2.9-0.6 0.2 2.7-2.3 5.3-3.2 7.5zm-29.5-8.5c0-0.9-2.3-7.3-1.7-7.8 0.1-0.1 1.2 3.3 1.3 3.5-0.4-1.4-0.8-5.7-2.9-5.7-3.8 0-6.7 7.1-8 9.7-2.3 5.3-4.4 10.8-5.3 16.5 0.3-1.8 7-22.7 9.1-22.6-1.6 0.4-7.7 18.2-8.1 19.8-0.2 0.9-2.1 7-0.3 7.5 1.1 0.4 3.9-3.2 4.5-4q3.3-4 6.2-8.4l3-4.2c0.5-0.9 1.1-1.7 1.7-2.5 0.5-0.9 0.5-0.9 0.5-1.8zm0.4-0.8v1.1c0.3-0.3 0.3-0.7 0-1.1zm2.8 5.5l-0.6 0.8c-0.1 0.4-0.5 2-0.5 2z"/>
			<path id="&lt;Compound Path&gt;" class="s0" d="m492.8 424.6c-2.5 3.3-4.8 6.7-7.6 9.8-2.1 2.2-5.6 5.9-8.8 4.8-0.7-0.2-5-2.5-4.9-3.1l0.4 0.2-0.7-0.7c0.6 1-0.7-0.2-0.8-0.2-0.6-0.6-1.1-1.5-1.4-2.2-0.6-1.3-0.7-2.5-0.7-3.8 0-1.3 0.2-2.6 0.3-3.8 0.3-2.7 0.4-5 1.2-7.6 0.2-0.5 2.7-7 3.5-6.8 0.2 0-0.4 0.8-0.3 0.9l1.7-3.2c-0.3 0.2-0.4 0.5-0.6 0.6-0.1-0.1 1.4-2.8 1.7-3.4-2.3 2.7-4.1 5.4-6.2 8.2-1.5 2-3.4 3.3-4.4 5.1-2.5 4.2-5.5 8-7.4 12.3l-0.5-0.9c-2.1 2.5-5.2-0.5-6.4-2.5-1-1.8-0.7-3.2-0.4-5.3 0.2-1.8 0.1-3.7 0.7-5.7 0.7-2.4 1.6-4.7 2.5-7.1 0.8-2.5 1.6-4.9 2.6-7.3 0.5-1.5 1.7-3.4 2-5 0.4-1.3 0-2.1 1.5-3 1.4-0.8 2.9-0.7 4.4-0.5 1.9 0.4 5.3 2.3 3.3 5.2-0.8 1.1-2.2 2.2-3.1 3.4-1.1 1.3-1 1.8-1.4 3.3-0.3 1-1.2 1.8-1.6 2.7-0.7 1.3-1.2 2.9-1.7 4.4-0.2 0.9-0.1 1.6-0.2 2.6-0.2 2.4-1 4.8-1.3 7.2 0.1-0.4 1-1.2 1.1-1.1 0.1 0.1-1.2 2.1-1.1 2.1l6.9-10c-1.5 2-2.7 3.4-2.7 3.4-0.4-0.3 13.4-17.9 15-19.4 3.4-3.1 7.7-3 9.3 2.5 1.9 5.8-4.2 9.6-6.9 13.7-1.5 2.4-2.8 5.1-4 7.6-0.8 1.5-2.5 4.8-2.8 7.4 0.3-1.8 1.5-3.8 2-5 0.9-2.4 2.2-4.4 4.1-6.1-0.8 1.5-1.8 2.9-2.5 4.2l0.6-0.6c0.2 0-1 3.9-1.1 4.1-0.5 1.4-1 2.9-1.1 4.4-0.1 0.1 0 2 0 2l0.1 0.1c0-0.1 0.8-0.2 1.1-0.3 1.7-0.6 3.4-2.2 4.8-3.4 2.8-2.2 5.5-4.6 8.1-6.9 2-1.9 4.6-3.8 6.2-5.7 0.7-1.1 2.3-2.9 2.9-0.1 0.4 2.7-4 6.7-5.4 8.5z"/>
			<path id="&lt;Compound Path&gt;" fill-rule="evenodd" class="s0" d="m552.9 422.4c-2.4 2.6-4.7 5.4-7 8.1-4.8 5.8-8.5 12.5-13.2 18.6-3.7 4.6-9.9 13-16 6.8-5-4.9-3.7-14.1-3.1-20.3-3.5 3.5-7.2 6.9-11.2 9.8-2.2 1.5-4.7 3.2-7.5 2.6-9-1.8-7.7-14.5-5.1-20.6 1.5-3.6 2.1-7.4 4.2-11.1 2.3-4.2 5.7-8.9 10.2-10.8 5.4-2.2 10.4 4 13.5 7.6 2.8-10.2 6.6-20 11-29.6 0.3-0.3 1.1-3.7 2-4.4-0.5 0.4-1 2.2-1.3 3.2 0.5-1.3 1.2-2.6 1.9-3.9h-0.1c0.3-0.4 1.8-4.1 2.2-4.6 1-1.7 2.2-3.3 3.3-4.9 2.2-2.5 4.9-4.9 8-6.1 4.3-1.6 10.7-0.7 12.4 4.1 2.3 6.4-2 14.1-5.1 19.4-2 3.3-4.1 6.6-6.3 9.7l-3 4-1 1.1c0.1-0.2 0.2-0.4 0.1-0.5l-0.9 1.2-0.4 0.5-4.9 6.7c0.5-0.7 1.5-1.8 1.7-1.7 0 0-7.9 10-8.6 11-2.9 3.6-3.2 9.6-3.9 14.1-0.5 2.5-3.6 18.9 0.5 18.9 1 0 2.4-2 3-2.7 1.7-1.9 3.2-3.8 4.7-5.9 3.1-4.2 6-8.3 9-12.5 3-4.1 6.2-8.1 9.5-11.8 0.7-0.6 5.9-7 6.6-3.1v0.1c0.4 2.9-3.3 5.2-5.2 7zm-37.4 0.1c0.5-2 1.3-4 0.1-5.9-1-1.5-1.9-3.4-3.4-4.5-0.6-0.4-1.4-1-2.2-0.8q-0.1 0-0.2 0l0.4-0.2c-2.4 0.2-4.3 4.2-5.6 6.6-2.5 4.8-4.7 9.9-6.2 15.3-0.5 1.8-2.8 8.4-0.1 9.6 1.4 0.7 3.7-1.1 5.1-2.3-1.5 1.2-3.3 2.2-4.3 2-3.8-0.2-1.1-7.7 0.7-12.3-1.6 4.5-4.1 11.9-0.8 12.2 2.6 0.3 6.8-4.5 8.5-6.1 1.9-1.7 3.7-3.5 5.5-5.3 1.9-2 1.9-4.4 2.4-7.2 0 0 0-0.2 0.1-0.6zm-5.7-11.2l-0.2 0.1q0.1-0.1 0.2-0.1zm-5.6 28.1h0.1c1.7-1.4 3.5-2.9 5-4.4 1.2-1.1 4.8-3.7 5.1-5.2q-4 4.2-8.4 8zm4-26.7c0.1 0 0.4-0.5 0.9-0.9-0.4 0.4-0.7 0.9-0.9 0.9zm4.8-0.6c-0.2-0.3-0.4-0.4-0.7-0.5zm12.4-9.5c-0.2 0.9-1.4 2.2-1.6 2.9-0.5 1.4 0.1 2.9-0.8 4.1 0.1 0 0.2-0.2 0.2-0.3 0.4-0.3 1.1-3 1.3-3.6 0.3-0.5 0.9-2.2 0.9-3.1zm3.3-13c-0.6 1.6-1.4 3.2-2.1 4.4-0.8 1.7-1.2 3.4-1.8 5.1 0.7-1.2 1.3-2.5 1.8-3.9 0.6-1.7 1.5-3.7 2.1-5.6zm4.9 8.2q-2.6 7.4-4.8 14.9c0.1-0.2 0.3-0.5 0.6-0.7-0.6 0.8-1.2 1.5-1.3 2.2l0.5-0.5 0.8-1 5.9-7.7-2.4 2.9-2.5 2.7c4.7-5.9 9.3-12.3 13.3-18.8 3.5-5.5 9-13.7 8.6-20.7 0-1-0.2-2.5-1.3-3.1-2.7-1.5-5.7 3.8-6.7 5.6-4.2 6.7-7.1 14.1-9.7 21.5v0.1c0 0-0.1 0.1-0.3 0.5v0.1c-0.1 0.1-0.1 0.3-0.1 0.4-0.1 0.2-0.1 0.3-0.1 0.4l-0.3 0.6c-0.2 0.4-0.3 0.7-0.2 0.6zm0.2-0.6l0.3-0.6-0.5 1.2c0-0.2 0.2-0.4 0.2-0.6zm1.7 12c-0.1 0.1-0.2 0.2-0.2 0.4 0 0 0.1-0.2 0.2-0.4zm0.1-0.2l-0.1 0.2c0 0 0.1-0.1 0.1-0.2z"/>
			<path id="&lt;Compound Path&gt;" fill-rule="evenodd" class="s0" d="m591.5 420.2c-0.3 0-1.8 0.5-1.7 0.4-1.1 0.4-0.9 0.3-1.7 1.4-0.9 1.4-1.7 2.9-2.5 4.3-0.5 0.4-4.7 6.6-5.5 6.2 0 0 0.9-1.2 0.8-1.3l-3.3 4c0.3-0.4 0.6-0.5 0.6-0.4-0.7 2-4.6 4.3-6.3 5.6-1.9 1.4-4.2 2.6-6.6 3-2.3 0.2-4.9-0.2-7.1-1.3-6.8-3.3-10.8-12.6-7.1-19.7 1.9-3.7 3.3-7.8 6.1-11.5 1.6-2 3.4-4 5.6-5.4q1.3-1 3.1-1.7c0.8-0.5 2.5-0.6 3.1-1 0.7-0.5 1.4-3.5 1.9-4.4 0.4-1 1-1.9 1.6-2.7 1.6-2.3 3.6-4.6 6-6 3.9-2.2 7.9 0 10.8 2.9 0 0 1.9 1.2 1.8 1.9l-0.4-0.4 0.4 0.9 0.1 0.1c-0.3-0.9 1.1 0.8 1.1 0.8 0.6 0.9 0.9 2 1.1 3 0.4 1.7 0.3 3.4 0 5-0.4 4.3-1.7 8.7-3 12.9 3.5-0.6 7-1.4 10.3-2.1 0.8-0.3 1.6-0.8 2.2 0 0.1 0.2 0 0.1 0 0.1 3.4 4.3-10.2 5.2-11.4 5.4zm-10.9 0.4c-5.1-0.7-11.4-2.9-12.6-8.7-0.8 0.9-2.5 3.7-4.2 7.2l0.7-1.1c-0.2 1.2-11.4 21.6-1.7 20.2h0.1c8.1-1.5 14.3-10.9 17.7-17.6zm5.5-26.1c-2.3-3.6-6.6 1.7-8.3 4-0.1 0-0.1 0.1-0.1 0.1l-0.1 0.2v-0.1c-0.1 0.2-0.3 0.3-0.1 0.3-0.6 0.9-1.3 1.6-2 2.8 0.1-0.1 1.4-2.2 1.5-1.8 0.3 0.7-1.9 4.4-2.2 5.1-0.7 1.8-1.3 3.7-1.5 5.6-0.2 2-0.5 4.2 1.1 5.6 1 0.8 2.5 1 3.8 1.2 0.6 0.1 2.2 0.3 2.8 0.1 1.2-0.3 0.9 0.1 1.4-1.1 1.8-2.9 2.5-7.1 3.3-10.4 0.6-2.9 2.2-8.6 0.4-11.6zm-8.4 4.1l0.1-0.1c0 0.1-0.1 0.1-0.1 0.1z"/>
			<path id="&lt;Compound Path&gt;" fill-rule="evenodd" class="s0" d="m690.6 422.4c-2.5 2.6-4.8 5.4-7.1 8.1-4.8 5.8-8.5 12.5-13.2 18.6-3.7 4.6-9.8 13-16 6.8-5-4.9-3.7-14.1-3.1-20.3-3.5 3.5-7.2 6.9-11.1 9.8-2.2 1.5-4.8 3.2-7.5 2.6-9.1-1.8-7.8-14.5-5.1-20.6 1.5-3.6 2-7.4 4.1-11.1 2.3-4.2 5.7-8.9 10.2-10.8 5.5-2.2 10.4 4 13.6 7.6 2.7-10.2 6.6-20 11-29.6 0.2-0.3 1-3.7 1.9-4.4-0.4 0.4-1 2.2-1.2 3.2 0.4-1.3 1.1-2.6 1.8-3.9h-0.1c0.3-0.4 1.8-4.1 2.2-4.6 1-1.7 2.2-3.3 3.3-4.9 2.2-2.5 4.9-4.9 8-6.1 4.3-1.6 10.7-0.7 12.4 4.1 2.3 6.4-1.9 14.1-5.1 19.4-1.9 3.3-4 6.6-6.2 9.7l-3 4-1.1 1.1c0.1-0.2 0.3-0.4 0.1-0.5l-0.9 1.2-0.3 0.5-5 6.7c0.6-0.7 1.5-1.8 1.7-1.7 0 0-7.8 10-8.5 11-2.9 3.6-3.3 9.6-4 14.1-0.4 2.5-3.6 18.9 0.5 18.9 1 0 2.4-2 3-2.7 1.7-1.9 3.2-3.8 4.7-5.9 3.2-4.2 6.1-8.3 9.1-12.5 3-4.1 6.1-8.1 9.5-11.8 0.7-0.6 5.9-7 6.6-3.1v0.1c0.3 2.9-3.4 5.2-5.2 7zm-37.4 0.1c0.4-2 1.2-4 0.1-5.9-1.1-1.5-2-3.4-3.5-4.5-0.6-0.4-1.4-1-2.2-0.8q-0.1 0-0.2 0l0.4-0.2c-2.4 0.2-4.2 4.2-5.5 6.6-2.6 4.8-4.8 9.9-6.3 15.3-0.4 1.8-2.8 8.4-0.1 9.6 1.4 0.7 3.7-1.1 5.1-2.3-1.5 1.2-3.2 2.2-4.3 2-3.8-0.2-1-7.7 0.7-12.3-1.6 4.5-4 11.9-0.8 12.2 2.7 0.3 6.8-4.5 8.6-6.1 1.8-1.7 3.7-3.5 5.4-5.3 2-2 2-4.4 2.4-7.2 0 0 0-0.2 0.2-0.6zm-5.8-11.2l-0.1 0.1q0-0.1 0.1-0.1zm-5.6 28.1h0.1c1.8-1.4 3.5-2.9 5-4.4 1.3-1.1 4.9-3.7 5.1-5.2q-4 4.2-8.3 8zm3.9-26.7c0.1 0 0.5-0.5 0.9-0.9-0.3 0.4-0.7 0.9-0.9 0.9zm4.9-0.6c-0.3-0.3-0.5-0.4-0.7-0.5zm12.4-9.5c-0.3 0.9-1.4 2.2-1.7 2.9-0.4 1.4 0.2 2.9-0.8 4.1 0.1 0 0.3-0.2 0.3-0.3 0.3-0.3 1-3 1.2-3.6 0.4-0.5 1-2.2 1-3.1zm3.2-13c-0.6 1.6-1.4 3.2-2.1 4.4-0.8 1.7-1.1 3.4-1.7 5.1 0.7-1.2 1.3-2.5 1.7-3.9 0.6-1.7 1.5-3.7 2.1-5.6zm5 8.2q-2.6 7.4-4.9 14.9c0.1-0.2 0.4-0.5 0.6-0.7-0.6 0.8-1.2 1.5-1.3 2.2l0.5-0.5 0.8-1 5.9-7.7-2.3 2.9-2.6 2.7c4.8-5.9 9.3-12.3 13.4-18.8 3.4-5.5 9-13.7 8.5-20.7 0-1-0.2-2.5-1.3-3.1-2.6-1.5-5.6 3.8-6.7 5.6-4.1 6.7-7 14.1-9.7 21.5v0.1c0 0-0.1 0.1-0.2 0.5v0.1c-0.1 0.1-0.1 0.3-0.1 0.4-0.2 0.2-0.2 0.3-0.2 0.4l-0.4 1.2c0-0.2 0.1-0.4 0.1-0.6-0.1 0.4-0.2 0.7-0.1 0.6zm1.8 11.4c-0.1 0.1-0.2 0.2-0.2 0.4 0 0 0.1-0.2 0.2-0.4zm0.1-0.2l-0.1 0.2c0 0 0.1-0.1 0.1-0.2z"/>
			<path id="&lt;Compound Path&gt;" fill-rule="evenodd" class="s0" d="m731.2 417.2l-3.6 4.8-6.3 8.1c-1.6 2.1-3.5 4-5.2 6.1-1.7 2.3-3.2 4.8-5.2 7-2.1 2.2-4.5 4.5-7.3 6-1.9 1-3.8 1.1-5.9 0.6-3-0.9-5.6-2.7-7.6-5-0.6-0.7-1.2-1.3-1.3-2.2-0.1-0.7-0.2-1.5-0.2-2.3-0.1-1.4 0.3-2.5 0.6-3.9 0.2-1.5 0.9-2.9 1.1-4.4 0.2-1.6 0.7-3.1 0.9-4.6 0.2-1.4-0.1-2.9 0.3-4.3 0.2-0.9 0.9-1.8 1.2-2.9-0.3 0.7-0.9 1.4-1 2-0.3 0.9-0.6 1.9-0.9 2.7-0.4 0.9-0.5 1.7-0.8 2.6-0.5 1.1-1 2-1.1 3.2-0.1 1 0 2-0.1 3.1-0.2 1-0.5 1.8-0.5 2.9 0 0.3 0.3 1 0.3 1.2 0 0.5-0.3 1.1-0.3 1.7 0 1 0.3 2.1 0.4 3.2-1.9-3.2-1.5-6.5-0.9-9.9 0.5-3.5 1-6.9 1.8-10.2 1.5-6.9 4.7-13.6 9.1-19 3.5-4.8 8.3-8.4 14.5-7.2 2.4 0.5 4.9 1.5 6.4 3.5 1.6 2.2 1.5 5 0.7 7.5-1.5 4.5-5.3 8.1-8.9 11.1-1.5 1.3-3.1 2.6-4.9 3.6-1.1 0.7-2.4 1.2-3.7 1.6l-1.9 0.7c-0.9 0.2-1 0.1-1.3 0.8-0.6 1.2-0.3 2.3-0.5 3.5-0.2 1.5-0.6 2.9-0.9 4.4-0.6 2.8-1.5 6.4-0.8 9.3 1.3 5.9 11-3.3 12.7-4.9 1.2-1 2.2-2.2 3.3-3.2 0.5-0.7 1.2-1.3 1.7-2 0 0 0.2-0.6 0.2-0.8 1.4-2.2 3.3-4.3 5-6.4 2.1-2.4 3.9-5 5.9-7.6 1-1.5 3.5-5.8 5.3-2.7v0.1c0.1 0.1 0.1 0.1 0.1 0 0.5 1 0.2 1.5-0.4 2.2zm-29.8 2.8c3.7-2 7.1-4.6 9.8-7.8l1.9-2.5c0.4-0.6 1-0.9 1.2-1.6 0.1-0.6-0.1-1.1 0-1.8l0.4-2.4c0.2-1.1-0.3-4.2-2-3.8-0.9 0.2-1.7 1.3-2.1 1.8l-2.1 2.8c-2.4 3.6-3.7 7.5-5.4 11.3 0 0 0 0.1-0.2 0.3-0.5 1.2-0.9 2.4-1.5 3.7z"/>
			<path id="&lt;Compound Path&gt;" fill-rule="evenodd" class="s0" d="m822.9 414c0.8 4 0 8.7-1.3 12.6-4.4 13.7-17 23.3-29.8 28.9-5.3 2.5-11.3 4.6-17.1 5.7-3.6 0.7-7.1 0.9-10.5 0.2-1.9-0.2-6.9-0.6-8-2.3-1.2-1.4 0.1-1.2 1.5-1.5 3.3-0.6 6.6-1 9.7-2.1 7.4-2.2 14.5-5.5 21-9.5 6.1-3.7 11.9-7.9 16.6-13.3 2.2-2.5 4.3-5.3 5.7-8.3 0.7-1.5 2.1-6.1 1.4-6.8-0.2-0.1-0.7-2.3-0.7-3.6 0.1 0.8 0.6 1.6 0.7 2.2-0.1-1.3-0.3-2.6-0.9-3.8v0.3c-0.4-0.6-1.8-2.2-1.9-2.2-1-1-2.3-1.5-3.7-1.7-2.9-0.4-4.7 1.1-7.3 1.8-3 0.8-11.4-4.6-8.1-7.3 1.5-1.1 4-1.7 5.7-2.7 2.9-2.1 5.7-4.3 8.2-6.9 2.8-2.6 5.2-5.7 7.5-8.8 0.6-0.8 4.3-7.2 4.9-7 0 0-0.9 2-0.9 2.2 1.2-2.5 2.5-4.9 3.4-7.4v-0.2l0.2-0.1 0.1-0.3c1.5-3.5 3-10.6-0.1-11.4-2.1-0.6-4.6 2.5-5.8 3.7-6.6 6.5-12.3 14.3-17.3 22-2.9 4.4-5.5 8.8-8.2 13.3-1.6 2.7-3.8 4.9-5 7.7-3.6 8.4-7.4 16.5-10.2 25.3-1.4 4.6-2.3 9.1-3.1 13.7l-0.3-0.7c-3.3 3.5-8 1-9.5-2.7-1.8-3.8-0.8-9.3-0.7-13.4 0.2-4.9 0.4-9.8 1.6-14.6 0.5-1.9 1.2-3.7 1.9-5.5 0.1-0.5 0.4-4.1 0.8-4.2 0 0.1 0 0.2 0.1 0.3 0-0.2 0.1-0.4 0.1-0.8-0.5 1.2-0.1-1.8 0-1.9 0.2-1.3 0.7-2.6 1-3.7 0.7-2.4 1.3-4.4 1.7-6.8 0.2-0.8 3.1-11.1 4.2-10.8 0.3 0.1-0.2 0.8-0.1 0.9l0.8-2.6c-0.3-0.1 5.2-12.3 5.7-13.4 2.1-3.8 3.6-7.6 7-10.4 2-1.6 4.6-6.6 8.4-5.2 1.7 0.7 3.5 3.2 3.6 5.1 0 1.4-0.7 1.6-1.4 2.4 0.1-0.1 0.3-0.2 0.6-0.2 0.2 0.1-2.8 4-3.1 3.9-0.2 0 0.3-0.8 0.6-1.4-4.1 5.7-7.4 12-10.1 18.4 1.1-2.4 5.9-12.2 6.7-12.6-0.6 0.4-6 12.2-6.6 13.2-2 4.6-3.7 9.3-5.1 14.1-1.3 4.7-2.2 9.3-3.5 13.9-1 3.7-2.5 7.9-3.1 11.6 0.1-0.2 0.2-0.5 0.4-0.7 0.2-0.1-0.4 5.5-0.4 5.8l-0.5 4.4c5-16.9 13.3-32.9 23.2-47.3-3.7 5.3-7.2 10.8-10.4 16.5-1.5 2.9-3.1 5.8-4.4 8.7-1.1 2.1-3.3 5.4-3.6 7.5 0.2-2 1.8-4.3 2.6-6 1-2.2 2-4.3 3.2-6.4 1.9-3.8 4-7.6 6.2-11.3 4.9-7.8 10.2-15.4 16-22.5 2.8-3.5 5.8-6.8 8.9-9.9 2.4-2.4 5.8-6.1 9.3-6.6 6.4-1.1 10.5 5.6 11.1 11.2 2.1 16.7-12.4 33.8-27 40.2 7.8-0.7 15.6 2.9 17.4 11.1zm-57.3 0.3c0.1-0.7 0.1-1.4 0.1-1.9-0.6 1.1-1.4 2.4-1.8 3.4-0.7 2.5-1 5.9-0.8 8.5-0.1-1.8 0.3-4.3 1-5.9 0.5-1.3 1.2-2.6 1.5-4.1zm15-30.8c-0.1 0.3-0.2 0.5-0.2 0.7zm1.8-4.4c-0.1 0.1-0.2 0.4-0.2 0.5zm30.4 45.7l-0.5 1.4c-2 4.1-4.2 7.2-7.1 10.5l-3.9 4.2c1.4-1 3.1-1.7 4.7-3.1 1.8-1.5 3.7-3.8 4.5-6 0.8-1.9 2.1-5 2.3-7zm7.7-35.9c1-1.1 2-2.3 3-3.3 2.9-3.3 4.3-6.4 5.4-10.2-1.1 2.5-2.9 5.1-4 7.1-1.3 2.3-2.8 4.3-4.4 6.4zm-18.8-18.8l0.8-0.8z"/>
			<path id="&lt;Compound Path&gt;" fill-rule="evenodd" class="s0" d="m876.1 420.5c-0.9 1.9-2.1 3.8-3.3 5.6-2.7 4-5.6 7.9-8.4 11.8-2.8 3.9-5.8 7.7-9.5 10.8-0.7 0.5-6 4.8-6.3 4.6 0-0.1 0.1-0.2 0.2-0.3l-0.8 0.3c0.6-0.1-1.6 1.4-2.2 1.7-1.6 0.3-3.4-0.2-4.8-1.1-1.5-0.9-2.3-2.3-3-3.9-1.1-2.6-1.2-5-0.8-7.8 0.1-0.5 1.8-7.3 2.6-7.1 0.2 0-0.3 0.9-0.2 1l0.9-2.9c-0.4-0.1 5.7-13.1 6.3-13.9-3.5 0.7-7.8 0.6-10.3-2.4-0.7-0.9-0.4-1.8-0.7-2.5-0.3-0.9-0.8-1.3-1-2.2-1.2-5.6 5.4-13.5 11-9.7l-0.3-0.3c0.2-0.7 1.6 1 1.7 1.6 0 0.5-1 3.7-1.5 3.5-0.2 0 0.7-2.1 0.7-2.2-0.9 2.2-3.3 4.6-3.5 6.9-0.2 1.7 0.7 1.7 2.2 2.1 2.2 0.6 5.7 0.2 8.4 1-1.8-0.5-4-0.7-5.5-0.9 0 0-0.1 0-0.1-0.1 1.7 0.2 3.6 0.2 5.1 0.6 3.3 0.8 5.4 2.1 4 5.6-1.4 3.4-3.1 6.8-4.6 10.1-1.4 3.3-2.6 6.7-3.8 10.1-0.4 1.2-2.9 6-2 7.2 1.1 1.4 7.5-4.4 9.3-6.3-0.4 0.4-0.7 0.4-1 0.6-0.2 0 2.3-3.2 2.7-3.7l3.3-4.3 6.3-8.2 6.4-8.6c0.5-0.7 3.3-4.7 4-1.7 0.4 1.6-0.8 3.6-1.5 5zm-35.9 31.2c-0.1-0.1-0.2-0.2-0.2-0.3l0.1 0.1c-0.5-1.1-1-2.2-1.3-2.9l-0.2-1.3v-0.1c-0.1-0.2-0.1-0.3-0.1-0.3 0 0 0 0.1 0.1 0.2v-0.6c-0.1-1.6 0-3.1 0.2-4.6v-0.1c-0.2 1-0.3 1.9-0.3 3.1-0.1 1.4 0 3 0.3 4.4 0.2 0.3 1.1 2.3 1.8 3.2q0 0 0-0.1c0.6 0.7 1.5 1.2 2.5 1.5-1.3-0.4-2.2-1.4-2.9-2.3zm-1.4-3.1l0.3 1.1-0.4-1.5q0.1 0.2 0.1 0.4zm1.8 3.8q-0.1-0.1-0.1-0.1 0.1 0 0.1 0.1zm-1.8-10.8v0.1c0-0.1 0.2-0.2 0.2-0.3 0 0.1-0.2 0.1-0.2 0.2zm0.6-2.2c0.8-3 2.1-5.9 3.3-8.6l2.2-5.1c0.5-1.1 3-6.8 3.5-7.1-0.8 0.2-2.4 4.4-2.6 4.7-1.1 2-2 4-2.8 6.1-1.4 3.2-2.8 6.6-3.6 10zm0.1 11.1c0 0 0.1 0.2 0.1 0.3 0-0.1-0.1-0.1-0.1-0.3zm3.5-38.2c0 0 0-0.1 0.1-0.1zm0 0.1c0.1 0.3 0.8 0.9 0.8 0.9 0.6 0.4 1.4 0.6 2.3 0.8-1-0.2-2-0.3-2.6-0.7-0.3-0.1-0.5-0.7-0.5-1zm12.6 9.9l-2.4 5.2 2.4-5.1zm0-0.1h0.2v-0.1zm-16.5 17.2c0 0.2-0.1 0.4-0.1 0.5 0-0.1 0.1-0.3 0.1-0.5z"/>
			<path id="&lt;Compound Path&gt;" fill-rule="evenodd" class="s0" d="m924.8 423.2c-1.5 3.5-3.2 6.6-5 9.8-2.2 3.4-4.4 6.8-7 9.8-2.1 2.7-5 6-8.4 6.6-4 0.7-7.1-2.5-8.4-6-2.8-6.8-0.8-14 1.3-20.6 0 0 0-1.1 0.1-1.9-1.1 1.8-2.8 3.8-3.8 5.5-1.4 2.2-2.4 4.4-3.9 6.5-0.7 1-10.2 12.5-11.5 10.5 0 0 1.4-0.6 1.3-0.8-1.4 0.9-3.3 1.1-4.9 0.7 0.4 0.2 0.6 0.3 0.5 0.3-2.7 0.4-4.8-3.8-5.4-5.7-0.9-3.2-0.7-6.8-0.1-10 1.3-6.7 4.1-14 8-19.8 1.1-1.4 2.1-3 3.6-4.1 0.9-0.8 1.7-0.9 2.8-1.6 1.7-1.5 3.2-2.8 5.8-2.8 5.6 0 8 6.5 9.1 10.9 2.8-3.6 7.8-8.3 12.1-3.1 2.3 2.8 0.8 4.8-0.5 7.4-2.2 4-3.9 9-4.9 13.2 0.1-0.4 0.5-2.1 1-2.2 0.9-0.2-7.5 25.9 4.5 11.2 3.6-4.5 6.7-9.2 9.8-14 1.4-2.2 2.8-4.5 4.3-6.7 0.7-0.9 2.8-3.1 2.9-0.6 0.2 2.7-2.3 5.3-3.3 7.5zm-29.4-8.5c0-0.9-2.3-7.3-1.7-7.8 0.1-0.1 1.2 3.3 1.3 3.5-0.4-1.4-0.8-5.7-2.9-5.7-3.8 0-6.7 7.1-8 9.7-2.3 5.3-4.4 10.8-5.3 16.5 0.3-1.8 7-22.7 9.1-22.6-1.6 0.4-7.7 18.2-8.1 19.8-0.2 0.9-2.1 7-0.3 7.5 1.1 0.4 3.9-3.2 4.5-4q3.3-4 6.2-8.4l3-4.2c0.5-0.9 1.1-1.7 1.7-2.5 0.5-0.9 0.5-0.9 0.5-1.8zm0.4-0.8v1.1c0.3-0.3 0.3-0.7 0-1.1zm2.8 5.5l-0.6 0.8c-0.1 0.4-0.5 2-0.5 2z"/>
			<path id="&lt;Compound Path&gt;" fill-rule="evenodd" class="s0" d="m965.6 416.5c0.5 3.7-5.3 6.7-7.8 8.5-3.3 2.4-6.7 4.7-10.4 6.7-0.9 0.5-2.3 0.9-3.2 1.6-1.3 1.1-1.1 0.9-0.8 2.8 0.3 2.1 0.5 4.2 0.5 6.4 0.2 3.2-0.2 6.4-1.3 9.6-2.8 7.1-8.4 11.8-16.4 11.5-7-0.1-14.6-3.8-13-11.4-0.2 0.2-0.5 2.2-0.6 2.1-0.8-0.5 0-3 0.2-3.6 1.4-4.3 5.1-7.7 8.6-10.3 1.9-1.5 3.9-3 5.9-4.3 1.5-0.9 5-2.3 5.2-3.9 0.3-1.7-1.2-5.1-1.6-6.9-0.5-2.2-1.3-4.5-1.5-6.8-0.2-1.5 0.3-2.4 0-3.8-0.6-1.9-1.2-3.6-1.3-5.6-0.1-1.9-0.1-3.9 0.6-5.8 0.9-2.7 7-9.1 10.1-6.2 0-0.6 1.6 1.6 1.7 2.3 0 0.5-0.5 4.7-1.2 4.6 0 0 0.2-1 0.4-1.8-0.6 1.6-1.5 3.1-1.7 4.8-0.2 1.5 0.2 3.3 0.4 4.7 0-0.3 0-0.5 0.2-0.6-0.1 0.1 1.2 6 2.2 10.9-0.8-3.2-1.8-6.9-2.3-9.1 0.9 5.1 2.1 10.1 3.2 15.1 0.2-0.1 0.3-0.4 0.2-0.9 0.1 0.3 0.2 0.5 0.2 0.7 5.1-2.6 9.8-5 14.6-8 2.1-1.4 4.3-3.7 6.5-4.8 1.1-0.4 2-0.2 2.4 1.4zm-27-5.4q0 0 0 0 0 0 0 0zm-14.7 45l3.3-1.3c0.1 0.1-1 0.8-1 1 1.4-0.9 2.6-1.9 3.6-3.2l-0.6 0.5c1-0.9 3.2-5.6 3.3-6 0.8-2.8 0.8-5.6 0.7-8.4-0.3 0.3-0.6 0.4-0.8 0.5l0.8-0.7-1.4 0.8c0.7-0.2-1.5 1.5-1.9 1.8l-3.4 2.3c-2.4 1.6-4.9 3.3-6.6 5.6-1.1 1.5-4.1 6.3-1.1 7.2 1.6 0.6 3.5 0.3 5.1-0.1zm15.4-2.4c-3.3 4.7-9.3 7.5-14.9 7.8 3.1-0.1 6-0.6 9-1.9 3-1.4 4.6-3.4 5.9-5.9zm1.9-30.2c0.3 1.2 0.5 2.4 0.7 3.2-0.3-0.7-0.5-2-0.7-3.2zm2 14.7c0 0.2 0 0.4 0.2 0.5 0-0.1-0.2-0.3-0.2-0.5z"/>
			<path id="&lt;Compound Path&gt;" fill-rule="evenodd" class="s0" d="m984.7 421.4c-2 2.9-3.8 5.7-6 8.4-2.3 3.2-5.2 8.1-9.3 9.1-0.9 0.1-5.3-1.1-5.2-1.8h0.2c-0.9-0.4 0 0.6-1.4-0.4-1-0.7-1.7-1.8-2.4-2.8-1.3-1.7-2.9-3.2-3.4-5.3-0.1-0.6-0.3-4.8 0.6-4.8 0.3 0 0 0.6 0.1 0.6l0.4-2.1c-0.1 0.2-0.1 0.4-0.4 0.5-0.4-0.1 1.8-8.4 2-9 0.9-2.5 1.4-5.3 3.7-6.6 1.8-1.2 4-1 6.2 0 0.9 0.3 3.5 1.5 3.5 2.6 0 0.7-0.5 0.8-0.9 1.2 0.1-0.1 0.4-0.1 0.5-0.1 0.3 0.2-1.4 2.6-1.6 2.5-0.3 0 0.1-0.6 0.2-0.9-2.2 3.6-4.1 7.6-5.4 11.7 0.5-1.5 3.4-8 3.8-7.9 0.3 0.1-7.7 14-3.7 16 1.8 0.9 4.9-2 6.2-3 2.2-1.8 5.2-4 6.8-5.9-0.2 0.2-0.4 0.2-0.8 0.2-0.4-0.6 5.4-8.2 6.4-8.9 0.8-0.6 2.4-1.1 2.7 0.4 0.4 2.2-1.7 4.8-2.8 6.3zm-12.3-10.4q0 0 0 0 0 0 0 0zm-7.4 17l-0.2 0.9 0.2-0.7v-0.1c0.1-0.2 0.1-0.2 0-0.1zm13.6-33.6c-1.8 2-4.3 3.8-6.3 5.3-0.5 0.4-2.2 1.7-2.9 1.1-1.2-0.8 1.2-5.5 1.7-6.5l4.3-7.4c0.4-0.7-0.2-1.3 1.2-1.4 0.6-0.1 2 0.2 2.1 0.2 1.1 0.4 2.4 0.8 3.2 2.1 0.2 0.4 0.5 1.9 0.6 2.1 0.7 0.4-3.6 4.2-3.9 4.5z"/>
			<path id="&lt;Compound Path&gt;" fill-rule="evenodd" class="s0" d="m1027.8 417.5c-0.7 2.5-2.2 4.8-3.6 7.1-3.5 5.6-6.5 11.5-10.3 17.1-4.2 6-8.7 12.1-14 17.3-4.6 4.3-10.8 7.7-16.3 2.7-4.8-4.5-4.8-12.6-4.5-18.8 0.5-6.5 2.2-12.7 3.7-19 0.1-0.2 0-3 0.6-3.8-0.1 0.2-0.1 1.1-0.2 1.8 0.2-0.9 0.4-1.7 0.8-2.5h-0.4c-0.3-2.3 1.3-5.9 2-8.1 0.8-2.6 1.7-5.4 2.7-8.1 1.7-5 3.6-9.8 5.2-14.8 1.5-5 3.8-9.7 6.1-14.4q1.6-3.3 3.5-6.6c0.3-0.5 2.9-5.5 3.5-5.4l-1 2 3.7-6.4-0.1 0.1c0.6-0.9 1.4-2.6 2-3.3l2.7-3.6c1.6-2 3.5-4.8 6.2-5.6 5.1-1.6 9.3 3.7 10 8.2l0.1 0.1v0.6c0.7 7.1-3.5 15.4-6.6 21.4-1.9 3.8-3.8 8.3-6.7 11.3-2 2.2-3 4.5-4.7 7.2-4.4 7-9.1 14.1-14.3 20.6-1.3 1.6-2.1 2.6-2.7 4.7-0.7 2.2-1.3 4.4-1.8 6.7-0.7 2.3-1.3 4.7-1.9 7-0.2 1-1.3 4.3-1.1 4.5-0.4 1.4-0.6 2.9-0.7 4.3l0.9-3.5c0.6 0.9-0.4 4.4-0.5 5.4-0.2 1.8-0.3 3.6-0.3 5.5 0 2.2 0 7.2 2.9 7.6 3.9 0.5 8.1-5.4 10-7.9 4.8-5.6 8.7-12 12.7-18.2 2-3.3 4-6.5 6-9.9 1.3-2.1 2.3-5 3.9-6.7 2.7-2.8 2.9 1.5 2.5 3.4zm-42.6 6.6c-0.5 0-1.1 2.4-1.4 5v-0.1c-0.9 4.1-1.3 8.4-1.5 12.5l0.3-3.7v0.4c0-0.8 0.2-1.5 0.3-2.3 0.7-3.5 0.9-7.9 2.3-11.2 0 0 0-0.1 0.1-0.3 0.1-0.1 0.1-0.5-0.1-0.3zm14.7-19.8c8.5-13.8 18.2-28.3 23.5-43.8-2 5.6-4.9 10.9-7.6 16-1.6 2.9-3.1 5.8-4.8 8.7-1.1 1.7-3.2 4.4-3.9 6.2 1-3 3.8-6.5 5.4-9.3l4.8-9c2.8-5.5 7-12.4 7.2-18.9v-0.1c0.2-6.1-5 0.8-5.8 2.1-3.2 5.2-5.5 10.9-7.8 16.5-4.3 10.3-7.7 21.4-11 31.6zm3.8-32.5c-0.1 0.2-0.1 0.4-0.1 0.5 2.5-4.6 5.5-9 7.9-13.9-1.1 2.1-3.2 3.9-4.4 6.1-1.2 2.5-2.4 4.8-3.4 7.3z"/>
			<path id="&lt;Compound Path&gt;" fill-rule="evenodd" class="s0" d="m1047.5 421.4c-1.9 2.9-3.8 5.7-6 8.4-2.3 3.2-5.2 8.1-9.2 9.1-1 0.1-5.4-1.1-5.2-1.8h0.2c-0.9-0.4 0 0.6-1.4-0.4-1-0.7-1.7-1.8-2.4-2.8-1.3-1.7-2.9-3.2-3.4-5.3-0.1-0.6-0.3-4.8 0.6-4.8 0.2 0 0 0.6 0.1 0.6l0.3-2.1c-0.1 0.2-0.1 0.4-0.3 0.5-0.5-0.1 1.7-8.4 2-9 0.9-2.5 1.4-5.3 3.7-6.6 1.7-1.2 3.9-1 6.1 0 0.9 0.3 3.6 1.5 3.6 2.6 0 0.7-0.6 0.8-0.9 1.2 0.1-0.1 0.3-0.1 0.4-0.1 0.4 0.2-1.4 2.6-1.6 2.5-0.2 0 0.1-0.6 0.2-0.9-2.2 3.6-4 7.6-5.4 11.7 0.6-1.5 3.5-8 3.8-7.9 0.4 0.1-7.6 14-3.7 16 1.9 0.9 5-2 6.3-3 2.2-1.8 5.2-4 6.8-5.9-0.2 0.2-0.5 0.2-0.8 0.2-0.5-0.6 5.3-8.2 6.4-8.9 0.8-0.6 2.4-1.1 2.6 0.4 0.5 2.2-1.6 4.8-2.8 6.3zm-12.2-10.4q0 0 0 0 0 0 0 0zm-7.4 17l-0.3 0.9 0.3-0.7v-0.1c0.1-0.2 0.1-0.2 0-0.1zm1.5-28.6c-0.1-0.4-0.5-3.9 0.8-3.4 0-0.3 1.4-2 0.7-0.5 1-1.4 1.9-3.1 2.8-4.8l-1.4 2.1c1-2.1 2.6-6.4 2.7-7.2 0-0.1-0.2-1.1 0-1.4-2.4-0.9-0.7-2.3 0.4-3.1-0.2 0-0.4 0-0.5-0.2-0.4-0.5 1-0.8 1.3-1 1.6-0.6 3.7-0.3 5.2 0.5 1.3 0.8 2.4 2.6 2.9 3.9 0.5 1.6-0.7 3.3-1.7 4.2-0.5 0.5-1.3 0.8-1.9 1.3-0.7 0.8-0.6 1.8-1.1 2.6-0.4 0.6-1.1 0.9-1.4 1.4-0.5 0.4-0.5 0.7-0.1 1.1-0.5 0.2-0.9 0.4-1.2 0.8-1.2 1.8-1.9 2.9-3.2 3.9 1.2-0.8 2-1.5 3.2-3 0.9-1.1 2-2 3.3-2.5-1.1 1.2-1.3 2.7-2.7 3.7-1.4 0.8-0.1-0.8-1.6 0.6 0 0 0.6-0.2 0.3 0.1-1 0.9-2.1 2.4-3.5 3-0.7 0.2-1.1 0.7-1.9 0.3-0.9-0.4-0.5-0.9-0.7-1.2 0 0-0.7-1.1-0.7-1.2zm0.9-3.4c0.1 0 0.1 0.2 0.1 0.2 0.1-0.2 0.1-0.2 0.1-0.3-0.1 0.1-0.1 0.1-0.2 0.1zm1.8-3c-0.2 0.5-0.4 0.7-0.4 0.7z"/>
			<path id="&lt;Compound Path&gt;" fill-rule="evenodd" class="s0" d="m1097.6 423.2c-1.6 3.5-3.3 6.6-5.1 9.8-2.2 3.4-4.4 6.8-7 9.8-2.1 2.7-5 6-8.4 6.6-4 0.7-7.1-2.5-8.4-6-2.8-6.8-0.8-14 1.3-20.6 0 0 0-1.1 0.1-1.9-1.1 1.8-2.8 3.8-3.8 5.5-1.4 2.2-2.4 4.4-3.9 6.5-0.7 1-10.2 12.5-11.5 10.5 0 0 1.4-0.6 1.3-0.8-1.4 0.9-3.3 1.1-4.9 0.7 0.4 0.2 0.6 0.3 0.5 0.3-2.7 0.4-4.8-3.8-5.4-5.7-0.9-3.2-0.6-6.8-0.1-10 1.3-6.7 4.1-14 8-19.8 1.1-1.4 2.1-3 3.6-4.1 0.9-0.8 1.7-0.9 2.8-1.6 1.7-1.5 3.2-2.8 5.8-2.8 5.6 0 8 6.5 9.1 10.9 2.8-3.6 7.8-8.3 12.1-3.1 2.3 2.8 0.8 4.8-0.5 7.4-2.2 4-3.9 9-4.9 13.2 0.2-0.4 0.5-2.1 1-2.2 0.9-0.2-7.4 25.9 4.5 11.2 3.6-4.5 6.7-9.2 9.8-14 1.4-2.2 2.8-4.5 4.3-6.7 0.7-0.9 2.8-3.1 2.9-0.6 0.2 2.7-2.3 5.3-3.2 7.5zm-29.5-8.5c0-0.9-2.3-7.3-1.7-7.8 0.1-0.1 1.2 3.3 1.3 3.5-0.4-1.4-0.8-5.7-2.9-5.7-3.8 0-6.7 7.1-8 9.7-2.3 5.3-4.4 10.8-5.3 16.5 0.3-1.8 7-22.7 9.1-22.6-1.6 0.4-7.7 18.2-8.1 19.8-0.2 0.9-2.1 7-0.3 7.5 1.1 0.4 3.9-3.2 4.5-4q3.3-4 6.2-8.4l3-4.2c0.5-0.9 1.1-1.7 1.7-2.5 0.5-0.9 0.5-0.9 0.5-1.8zm0.4-0.8v1.1c0.3-0.3 0.3-0.7 0-1.1zm2.8 5.5l-0.6 0.8c-0.1 0.4-0.5 2-0.5 2z"/>
		</g>
		<g id="&lt;Group&gt;">
			<path id="&lt;Compound Path&gt;" class="s1" d="m174.1 308.7l-84.8-133.2v133.2h-38.5v-198.3h43.9l78.8 127.5v-127.5h38.9v198.3z"/>
			<path id="&lt;Compound Path&gt;" fill-rule="evenodd" class="s1" d="m323.8 315.6q-46 0-70.6-26.9-24.7-26.9-24.7-77.4 0-25.1 6.3-45.1 6.3-20 18.5-33.9 12.2-13.9 29.9-21.2 17.6-7.3 40.6-7.3 22.7 0 40.5 7.3 17.7 7.3 29.7 21.4 11.9 14 18.2 34.2 6.3 20.1 6.3 45.5 0 51.4-24.4 77.4-24.3 26-70.3 26zm0-35.6q11 0 20.9-4 9.9-4 17.2-12.3 7.3-8.2 11.5-21 4.2-12.9 4.2-30.5 0-35.2-13.8-53.4-13.7-18.3-40-18.3-26.3 0-40.3 18.3-14.1 18.2-14.1 53.4 0 35.3 14.2 51.5 14.2 16.3 40.2 16.3z"/>
			<path id="&lt;Compound Path&gt;" class="s1" d="m482.4 308.7l-67.2-198.3h44.2l43.3 139.2 43-139.2h43.1l-67.3 198.3z"/>
			<path id="&lt;Compound Path&gt;" fill-rule="evenodd" class="s1" d="m686.7 308.7l-12.5-40.9h-73.2l-14 40.9h-43.9l70.7-198.3h48.1l69.9 198.3zm-49.2-153.8h-0.3l-25.4 78.8h50.4z"/>
			<path id="&lt;Compound Path&gt;" class="s1" d="m898.8 240.6q-3.3 17-10.4 30.8-7.2 13.7-18.1 23.6-10.9 9.8-25.3 15.2-14.3 5.4-31.6 5.4-19.4 0-36.3-6.6-16.9-6.6-29.1-19.7-12.3-13.2-19.3-32.4-7-19.3-7-45 0-25.1 6.4-45.2 6.4-20.2 18.4-34.1 11.9-13.9 29.1-21.3 17.2-7.5 38.4-7.5 18.5 0 33.6 5.5 15.1 5.5 26 15.2 10.9 9.8 17.3 22.9 6.4 13.1 7.9 28.1h-41.5q-4.2-17-16.1-26.5-12-9.4-26.9-9.4-26 0-38.3 18.7-12.2 18.7-12.2 51.2 0 33.2 12.1 51.6 12.1 18.3 36.3 18.3 18.5 0 29.7-10 11.2-10 15.4-28.8z"/>
			<path id="&lt;Compound Path&gt;" fill-rule="evenodd" class="s1" d="m1035.3 308.7l-12.5-40.9h-73.2l-14 40.9h-44l70.8-198.3h48.1l69.9 198.3zm-49.3-153.8h-0.3l-25.3 78.8h50.4z"/>
			<path id="&lt;Compound Path&gt;" fill-rule="evenodd" class="s1" d="m1093.3 308.7v-198.3h87.5q14.6 0 26.3 4.9 11.6 4.9 20 13.7 8.4 8.8 12.8 20.5 4.5 11.6 4.5 25.1 0 13.4-4.5 24.9-4.4 11.5-12.8 19.7-8.4 8.3-20 12.9-11.7 4.6-26.3 4.6h-46v72zm80.9-105.7q18 0 25.9-8.3 7.9-8.2 7.9-21.3 0-12.6-7.9-20.6-7.9-8.1-25.9-8.1h-39.4v58.3z"/>
		</g>
	</g>
</svg>