<svg version="1.2" xmlns="http://www.w3.org/2000/svg" viewBox="0 0 1224 1584" width="1224" height="1584">
	<title>CANALDEDENUNCIAS-ai</title>
	<style>
		.s0 { fill: #e6e6e6 } 
		.s1 { fill: #969b23 } 
		.s2 { fill: #ffffff } 
	</style>
	<g id="Layer 1">
		<path id="&lt;Path&gt;" class="s0" d="m1091.4 1019.4h-942v-490.2h942z"/>
		<g id="&lt;Group&gt;">
			<path id="&lt;Path&gt;" class="s1" d="m517.9 783.4c0 92-74.6 166.6-166.6 166.6-92 0-166.6-74.6-166.6-166.6 0-92 74.6-166.6 166.6-166.6 92 0 166.6 74.6 166.6 166.6z"/>
			<g id="&lt;Group&gt;">
				<path id="&lt;Compound Path&gt;" fill-rule="evenodd" class="s2" d="m434.8 741.9c2 4.5 4.2 10 2 14.9-2 4.7-7.1 7.3-11.3 10.1q2.9 9.2 5.3 18.4c2.4 9.1 9.2 26.2 4 35.4-5 8.9-19.1 3.1-26.5 1.5-15-3.2-30-7.2-45.3-8.9-17.2-1.9-34.2-0.2-51.1 3.1q-2 0.6-4 1.3c2.5 5.3 5.1 10.5 8.5 15.4 3.1 4.3 8 8.4 9.4 13.7 2.7 10.7-8.6 19.9-17.6 22.9-8.7 2.9-12.4-5.7-16.2-12.1-5.7-9.9-10.2-20.6-15.2-30.9-2.7 0.7-5.5 1.1-7.8 0.4-8.3-2.5-14.8-17-17.7-24.2-2.9-7.6-7.9-22.2-0.4-28.9 4.4-3.9 11.6-5.1 16.9-6.9q12.4-4 24.8-7.8 0.3-0.3 0.7-0.5c29.5-15.6 49.5-41.1 71.5-65.2 5.2-5.6 14.5-14.8 22.7-9.3 6 4.1 9.6 13.7 12.6 19.8 4.9 9.7 9.4 19.6 13.6 29.7 3.9-0.8 8.2-1.8 12.1-1.2 4.7 0.6 7.2 5.4 9 9.3zm-151.3 76.1c8.6-2.2 17-4.7 25.4-7.4q-8-22.3-15.2-45c-9.4 2.9-18.8 5.9-28.2 9.1-7.7 2.6-12.8 6.5-11.2 15.5 0.8 4.2 2.1 8.2 3.7 12.1 1.7 3.9 3.7 7.6 6.2 11.1 5.4 7.5 11.4 6.6 19.3 4.6zm19.8 1.1c-6 1.8-12 3.5-18.1 5.1-1.1 0.3-2.4 0.7-3.8 1.1q0.9 1.8 1.7 3.6 0.7-1 1.4-2c0.7-1.1 2.1-1.6 3.3-0.9 1 0.7 1.6 2.3 0.8 3.3q-1.3 2-2.7 3.9-0.3 0.3-0.5 0.5 0.9 1.9 1.8 3.8 1-1.7 2-3.4c1.6-2.7 5.7-0.3 4.2 2.4q-1.7 2.7-3.3 5.5-0.2 0.4-0.5 0.6 0.4 0.7 0.7 1.4 0.6 1.3 1.3 2.7 0.9-2 1.8-4.1c0.6-1.1 2.3-1.4 3.3-0.8 1.2 0.7 1.4 2.1 0.9 3.3q-1.7 3.6-3.3 7.2 0 0-0.1 0 0.9 1.8 1.9 3.5c0.6-1.2 1.2-2.3 1.6-3.5 1-3 5.6-1.7 4.6 1.2q-0.6 1.9-1.5 3.7c-0.5 1-1.1 1.9-1.5 2.9q-0.1 0.2-0.1 0.3 0.6 0.8 1.2 1.5c0.3 0.2 0.5 0.4 0.7 0.6q1.1-1.9 1.9-4c1-2.9 5.6-1.7 4.6 1.3q-0.9 2.5-2.2 4.8c1.2 0 2.6-0.5 4.5-1.4 1.9-0.9 4.8-2.7 6.3-4.4 5.5-6.1 5.4-10.1 1.2-16.6-0.7-1.1-2-2.6-2.9-3.7-4.6-6-8-12.6-11.2-19.4zm117.3-0.4c-4.1-23.2-11.2-46.8-19.8-68.5-7.5-18.9-15-40.3-26.5-57.4-4 3.3-7.5 8.3-9.8 11-19.4 22.6-40 45.2-66.4 59.7q7.3 23.2 15.5 46.1c15.9-2.9 31.9-4.5 48-2.8 14.1 1.4 27.9 4.8 41.7 7.8 4.2 0.9 11.4 3.6 17.3 4.1zm3.6-33.3c-4.2-15.9-9.6-31.6-15.7-47-5.2-12.8-10.7-25.6-17.4-37.8-1.4-2.6-3.8-8.8-6.5-10.3-2-1.2-4.1-1.1-6.2-0.1 11.4 17.1 18.8 38.2 26.4 57.2 9 22.5 16.4 46.9 20.6 70.9 2.5-0.7 4.3-2.4 4.5-5.7 0.5-8.4-3.5-19.1-5.7-27.2zm5.7-42.7c-2.2-4.3-4-5.7-8.7-5.2-1.9 0.2-3.8 0.6-5.7 0.9q4.6 11.7 8.5 23.8c2.7-1.7 5.7-3.3 7.4-5.7 3-4.3 0.6-9.6-1.5-13.8z"/>
				<path id="&lt;Path&gt;" class="s2" d="m422.3 718.2c0-4.6-0.1-9.2 0-13.7 0-3.1 4.8-3.1 4.8 0-0.1 4.5 0 9.1 0 13.7-0.1 3.1-4.9 3.1-4.8 0z"/>
				<path id="&lt;Path&gt;" class="s2" d="m443.2 724q3.8-4.1 7.5-8.2c2.1-2.3 5.5 1.1 3.4 3.4q-3.7 4.1-7.5 8.2c-2.1 2.3-5.5-1.1-3.4-3.4z"/>
				<path id="&lt;Path&gt;" class="s2" d="m463.1 748c-3.6-0.3-7.1-0.2-10.7-0.4-3.1 0-3.1-4.9 0-4.8 3.6 0.1 7.1 0.1 10.7 0.4 3.1 0.1 3.1 5 0 4.8z"/>
				<path id="&lt;Path&gt;" class="s2" d="m454.7 773c2.3 2.1-1.1 5.5-3.4 3.4-2.8-2.5-5.7-5-8.7-7.2-2.5-1.8-0.1-6 2.4-4.2 3.4 2.5 6.6 5.2 9.7 8z"/>
				<path id="&lt;Path&gt;" class="s2" d="m263.2 791.4c-2.9 1.2-4.1-3.5-1.2-4.6q4.8-1.9 9.6-3.8c2.9-1.1 4.2 3.6 1.3 4.7q-4.8 1.9-9.7 3.7z"/>
				<path id="&lt;Path&gt;" class="s2" d="m276.7 795.1q-5.6 2.6-11.4 4.4c-3 0.8-4.2-3.8-1.3-4.7q5.3-1.5 10.2-3.9c2.8-1.3 5.2 2.8 2.5 4.2z"/>
			</g>
		</g>
		<g id="&lt;Group&gt;">
			<path id="&lt;Compound Path&gt;" class="s1" d="m633.8 735.6h8.2l-0.7 8.6q-0.9 8.5-6.3 13.9-5.3 5.3-13.9 5.3-11.9 0-17.3-8.4-5.3-8.5-5.3-24.9v-5.3q0-18.9 5.5-28.1 5.6-9.2 17.3-9.2 9.4 0 15 5.9 5.7 5.9 5.7 15.3v2.1h-8.2q-0.6-16.1-13-16.1-6.7 0-10.4 6.6-3.7 6.5-3.7 26.8 0 13.9 3.3 21 3.4 7 10.7 7 11 0 12.5-14.9z"/>
			<path id="&lt;Compound Path&gt;" fill-rule="evenodd" class="s1" d="m647.8 761.5l20.3-72.1h10.6l20.3 72.1h-8.9l-5.5-20.7h-22.7l-5.2 20.7zm16-27.9h18.8l-9.4-38.9z"/>
			<path id="&lt;Compound Path&gt;" class="s1" d="m707.7 689.4h13.1l22.9 65.3v-65.3h8v72.1h-13.1l-22.9-65.6v65.6h-8z"/>
			<path id="&lt;Compound Path&gt;" fill-rule="evenodd" class="s1" d="m760 761.5l20.3-72.1h10.6l20.3 72.1h-8.9l-5.5-20.7h-22.8l-5.1 20.7zm15.9-27.9h18.9l-9.4-38.9z"/>
			<path id="&lt;Compound Path&gt;" class="s1" d="m820.5 689.4h7.9v64.9h29.3v7.2h-37.2z"/>
			<path id="&lt;Compound Path&gt;" fill-rule="evenodd" class="s1" d="m892.4 761.5v-72.1h20q12.3 0 18.5 7.4 6.3 7.4 6.3 28.1 0 17.7-5.7 27.1-5.7 9.5-18.1 9.5zm8-7.2h12.6q8.3 0 12.1-6.3 3.9-6.3 3.9-23 0-14-3.6-21.2-3.5-7.2-12.7-7.2h-12.3z"/>
			<path id="&lt;Compound Path&gt;" class="s1" d="m950.4 761.5v-72.1h35.7v7.2h-27.7v23.9h26v7.2h-26v26.6h28v7.2z"/>
			<path id="&lt;Compound Path&gt;" fill-rule="evenodd" class="s1" d="m565.2 876.8v-72.1h20q12.3 0 18.5 7.5 6.3 7.4 6.3 28 0 17.8-5.7 27.2-5.7 9.4-18.1 9.4zm8-7.2h12.6q8.2 0 12.1-6.3 3.8-6.3 3.8-23 0-13.9-3.5-21.1-3.5-7.2-12.7-7.2h-12.3z"/>
			<path id="&lt;Compound Path&gt;" class="s1" d="m623.2 876.8v-72.1h35.7v7.3h-27.8v23.8h26.1v7.2h-26.1v26.6h28.1v7.2z"/>
			<path id="&lt;Compound Path&gt;" class="s1" d="m671.5 804.7h13.1l23 65.4v-65.4h7.9v72.1h-13.1l-22.9-65.6v65.6h-8z"/>
			<path id="&lt;Compound Path&gt;" class="s1" d="m730.6 804.7h8v51.9q0 14.9 13.6 14.9 13.7 0 13.7-14.4v-52.4h8v54.9q0 9.4-5.8 14.3-5.8 4.8-15.7 4.8-10.7 0-16.3-5-5.5-5-5.5-14.3zm16-7.2l8.4-13.5h10.4l-12.4 13.5z"/>
			<path id="&lt;Compound Path&gt;" class="s1" d="m788.9 804.7h13.1l23 65.4v-65.4h8v72.1h-13.1l-23-65.6v65.6h-8z"/>
			<path id="&lt;Compound Path&gt;" class="s1" d="m880.7 850.9h8.2l-0.7 8.6q-0.9 8.6-6.3 13.9-5.3 5.3-13.9 5.3-11.9 0-17.3-8.4-5.3-8.4-5.3-24.8v-5.3q0-18.9 5.5-28.1 5.6-9.2 17.3-9.2 9.4 0 15 5.9 5.7 5.9 5.7 15.3v2h-8.2q-0.6-16-13-16-6.7 0-10.4 6.5-3.7 6.5-3.7 26.8 0 13.9 3.3 21 3.4 7.1 10.7 7.1 11 0 12.5-15z"/>
			<path id="&lt;Compound Path&gt;" class="s1" d="m903.2 804.7h8v72.1h-8z"/>
			<path id="&lt;Compound Path&gt;" fill-rule="evenodd" class="s1" d="m921.4 876.8l20.3-72.1h10.6l20.3 72.1h-8.9l-5.5-20.6h-22.7l-5.2 20.6zm16-27.9h18.8l-9.4-38.8z"/>
			<path id="&lt;Compound Path&gt;" class="s1" d="m987.4 853.9v3.6q0 7.5 3.3 10.7 3.3 3.3 10.2 3.3 6.8 0 10.2-3.5 3.4-3.5 3.4-9.4 0-5.4-1.6-8-1.7-2.5-5.6-4l-14.9-5.8q-7.6-3.1-10.1-7.4-2.4-4.4-2.4-10.7 0-8.7 5.6-14.3 5.5-5.5 14.4-5.5 9.9 0 15.2 4.9 5.4 4.9 5.4 12 0 1.6-0.2 3.3h-8.2q0.2-1.1 0.2-2.5-0.1-4.2-3.2-7.3-3-3.2-8.1-3.2-6.7 0-9.8 3.2-3.1 3.1-3.1 9.6 0 7.3 7.2 10.1l13.1 5q8.4 3.3 11.3 7.4 3 4.1 3 11.3 0 9.9-5.6 15.9-5.6 6.1-16.7 6.1-9.8 0-15.5-5.3-5.7-5.3-5.7-16.6v-2.9z"/>
		</g>
	</g>
</svg>