<svg version="1.2" xmlns="http://www.w3.org/2000/svg" viewBox="0 0 1224 1584" width="1224" height="1584">
	<title>CARTADESERVICOS-ai</title>
	<style>
		.s0 { fill: #19b6b2 } 
		.s1 { fill: #00ab97 } 
		.s2 { fill: #ffffff } 
		.s3 { fill: #ee5648 } 
		.s4 { fill: #6d99cd } 
	</style>
	<g id="Layer 1">
		<g id="&lt;Group&gt;">
			<path id="&lt;Path&gt;" class="s0" d="m533.9 783.4c0 92-74.6 166.6-166.6 166.6-92 0-166.6-74.6-166.6-166.6 0-92 74.6-166.6 166.6-166.6 92 0 166.6 74.6 166.6 166.6z"/>
			<g id="&lt;Group&gt;">
				<path id="&lt;Path&gt;" class="s1" d="m440.8 721.7v146.9c-0.1 2.5-1.6 15.7-17.3 15.7h-114.7c-15.8 0-17.2-13.2-17.4-15.7q0-0.4 0-0.4v-146.1c0 0 0-16 17.4-16h21v12h-21c-2.3 0-5.1 0-5.3 4.2v145.6c0.2 4.3 3 4.3 5.3 4.3h114.7c2.2 0 4.9 0 5.2-4v-146.1c-0.3-4-3-4-5.2-4h-21.1v-12h21.1c15.7 0 17.2 13.1 17.3 15.6z"/>
				<path id="&lt;Path&gt;" class="s2" d="m373.3 705.9h-14.4v-2.4h14.4z"/>
				<path id="&lt;Compound Path&gt;" fill-rule="evenodd" class="s1" d="m394.9 718.1h-57.6v-12.2h14.4v-7.2c0-4 3.2-7.2 7.2-7.2h14.4c4 0 7.2 3.2 7.2 7.2v7.2h14.4zm-36-12.3h14.4v-7.2h-14.4z"/>
				<path id="&lt;Compound Path&gt;" fill-rule="evenodd" class="s2" d="m329.8 718.1v-14.6h18.2v-7.4c0-4.1 4-7.4 9-7.4h18.2c5 0 9 3.3 9 7.4v7.4h18.2v14.6h21.1c2.2 0 4.9 0 5.2 4v146.1c-0.3 4-3 4-5.2 4h-114.7c-2.3 0-5.1 0-5.3-4.3v-145.6c0.2-4.2 3-4.2 5.3-4.2zm5.3 113.8h-17.7v23.8h17.7zm0-31.5h-17.7v23.8h17.7zm0-30.6h-17.7v23.8h17.7zm0-31h-17.7v23.7h17.7zm79.6 111.8h-73.5v4.8h73.5zm0-9.4h-73.5v4.8h73.5zm0-9.4h-73.5v4.8h73.5zm0-12.5h-73.5v4.8h73.5zm0-9.4h-73.5v4.8h73.5zm0-9.5h-73.5v4.9h73.5zm0-11.7h-73.5v4.8h73.5zm0-9.4h-73.5v4.8h73.5zm0-9.4h-73.5v4.8h73.5zm0-12.4h-73.5v4.7h73.5zm0-9.3h-73.5v4.8h73.5zm0-9.3h-73.5v4.7h73.5zm-77.5-20.7h57.6v-12.3h-14.4v-7.2c0-4-3.2-7.2-7.2-7.2h-14.4c-4 0-7.2 3.2-7.2 7.2v7.2h-14.4z"/>
				<path id="&lt;Path&gt;" class="s3" d="m317.5 738.9h17.6v23.7h-17.6z"/>
				<path id="&lt;Path&gt;" class="s3" d="m317.5 769.9h17.6v23.8h-17.6z"/>
				<path id="&lt;Path&gt;" class="s3" d="m317.5 800.4h17.6v23.8h-17.6z"/>
				<path id="&lt;Path&gt;" class="s3" d="m317.5 831.9h17.6v23.8h-17.6z"/>
				<path id="&lt;Path&gt;" class="s1" d="m341.3 738.9h73.4v4.7h-73.4z"/>
				<path id="&lt;Path&gt;" class="s1" d="m341.3 757.5h73.4v4.8h-73.4z"/>
				<path id="&lt;Path&gt;" class="s1" d="m341.3 748.2h73.4v4.8h-73.4z"/>
				<path id="&lt;Path&gt;" class="s1" d="m341.3 769.9h73.4v4.8h-73.4z"/>
				<path id="&lt;Path&gt;" class="s1" d="m341.3 788.8h73.4v4.8h-73.4z"/>
				<path id="&lt;Path&gt;" class="s1" d="m341.3 779.3h73.4v4.8h-73.4z"/>
				<path id="&lt;Path&gt;" class="s1" d="m341.3 800.4h73.4v4.8h-73.4z"/>
				<path id="&lt;Path&gt;" class="s1" d="m341.3 819.3h73.4v4.8h-73.4z"/>
				<path id="&lt;Path&gt;" class="s1" d="m341.3 809.9h73.4v4.8h-73.4z"/>
				<path id="&lt;Path&gt;" class="s1" d="m341.3 831.8h73.4v4.8h-73.4z"/>
				<path id="&lt;Path&gt;" class="s1" d="m341.3 850.7h73.4v4.8h-73.4z"/>
				<path id="&lt;Path&gt;" class="s1" d="m341.3 841.3h73.4v4.8h-73.4z"/>
			</g>
		</g>
		<g id="&lt;Group&gt;">
			<path id="&lt;Compound Path&gt;" class="s4" d="m591 708q7.9-8 20-8 16.1 0 23.6 10.7 4.1 6 4.4 12.1h-13.5q-1.3-4.7-3.3-7-3.6-4.2-10.7-4.2-7.3 0-11.4 5.9-4.2 6-4.2 16.9 0 10.9 4.4 16.3 4.4 5.4 11.2 5.4 7 0 10.6-4.6 2-2.5 3.4-7.6h13.4q-1.7 10.6-8.9 17.3-7.1 6.6-18.3 6.6-13.8 0-21.7-9-8-9-8-24.7 0-16.9 9-26.1z"/>
			<path id="&lt;Compound Path&gt;" fill-rule="evenodd" class="s4" d="m668.4 701.2h15.3l22.9 64.8h-14.7l-4.2-13.3h-23.9l-4.4 13.3h-14.1zm-0.9 40.3h16.5l-8.1-25.5z"/>
			<path id="&lt;Compound Path&gt;" fill-rule="evenodd" class="s4" d="m756.4 702.9q3.5 1.5 6 4.5 2.1 2.5 3.3 5.5 1.2 3 1.2 6.8 0 4.6-2.4 9.1-2.3 4.4-7.6 6.3 4.4 1.8 6.3 5.1 1.9 3.3 1.9 10.1v4.4q0 4.4 0.3 6 0.6 2.5 2.5 3.7v1.6h-14.9q-0.6-2.2-0.9-3.5-0.5-2.7-0.6-5.6v-6q-0.1-6.2-2.2-8.2-2-2.1-7.7-2.1h-13.2v25.4h-13.2v-64.8h30.9q6.7 0.2 10.3 1.7zm-28 9.6v17.4h14.5q4.4 0 6.6-1.1 3.8-1.8 3.8-7.3 0-5.9-3.7-7.9-2.1-1.1-6.3-1.1z"/>
			<path id="&lt;Compound Path&gt;" class="s4" d="m826.9 701.2v11.5h-19.4v53.3h-13.6v-53.3h-19.5v-11.5z"/>
			<path id="&lt;Compound Path&gt;" fill-rule="evenodd" class="s4" d="m846.7 701.2h15.3l22.9 64.8h-14.6l-4.3-13.3h-23.9l-4.4 13.3h-14.1zm-0.9 40.3h16.6l-8.2-25.5z"/>
			<path id="&lt;Compound Path&gt;" fill-rule="evenodd" class="s4" d="m952.8 702.6q6.9 2.3 11.1 8.2 3.4 4.9 4.6 10.5 1.2 5.6 1.2 10.7 0 13-5.2 21.9-7 12.1-21.7 12.1h-27.9v-64.8h27.9q6 0.1 10 1.4zm-24.8 9.9v42.3h12.5q9.6 0 13.4-9.5 2.1-5.2 2.1-12.3 0-9.9-3.1-15.2-3.1-5.3-12.4-5.3z"/>
			<path id="&lt;Compound Path&gt;" class="s4" d="m1027.8 712.7h-34.3v13.8h31.5v11.2h-31.5v16.7h35.9v11.6h-49.1v-64.8h47.5z"/>
			<path id="&lt;Compound Path&gt;" class="s4" d="m594.6 854q0.6 4.4 2.5 6.6 3.3 4 11.5 4 4.9 0 8-1 5.7-2 5.7-7.5 0-3.2-2.8-5-2.8-1.7-9-3l-7-1.6q-10.3-2.2-14.2-4.9-6.6-4.5-6.6-14 0-8.7 6.5-14.5 6.4-5.8 18.8-5.8 10.3 0 17.7 5.5 7.3 5.4 7.6 15.7h-13q-0.3-5.8-5.2-8.3-3.3-1.6-8.1-1.6-5.3 0-8.5 2.1-3.2 2.1-3.2 5.9 0 3.5 3.1 5.2 2.1 1.1 8.6 2.7l11.4 2.6q7.5 1.8 11.2 4.7 5.8 4.6 5.8 13.3 0 8.8-6.9 14.7-6.8 5.9-19.4 5.9-12.8 0-20.1-5.8-7.3-5.8-7.3-15.9z"/>
			<path id="&lt;Compound Path&gt;" class="s4" d="m692.8 820.7h-34.3v13.8h31.5v11.2h-31.5v16.7h35.9v11.6h-49.1v-64.8h47.5z"/>
			<path id="&lt;Compound Path&gt;" fill-rule="evenodd" class="s4" d="m746.4 810.9q3.6 1.5 6.1 4.5 2 2.5 3.2 5.5 1.2 3 1.2 6.8 0 4.6-2.3 9.1-2.3 4.4-7.7 6.3 4.5 1.8 6.4 5.1 1.8 3.3 1.8 10.1v4.4q0 4.4 0.4 6 0.5 2.5 2.5 3.7v1.6h-14.9q-0.7-2.2-0.9-3.5-0.5-2.7-0.6-5.6l-0.1-6q-0.1-6.2-2.1-8.2-2.1-2.1-7.7-2.1h-13.3v25.4h-13.2v-64.8h31q6.6 0.2 10.2 1.7zm-28 9.6v17.4h14.6q4.4 0 6.5-1.1 3.9-1.8 3.9-7.3 0-5.9-3.7-7.9-2.1-1.1-6.3-1.1z"/>
			<path id="&lt;Compound Path&gt;" class="s4" d="m806.2 809.2h14.1l-22.1 64.8h-12.8l-21.9-64.8h14.5l14 49.2z"/>
			<path id="&lt;Compound Path&gt;" class="s4" d="m840.7 874h-13.4v-64.8h13.4z"/>
			<path id="&lt;Compound Path&gt;" class="s4" d="m859.5 816q7.9-8 20-8 16.1 0 23.6 10.7 4.1 6 4.4 12.1h-13.5q-1.3-4.7-3.3-7-3.6-4.2-10.7-4.2-7.3 0-11.4 5.9-4.2 6-4.2 16.9 0 10.9 4.4 16.3 4.4 5.4 11.2 5.4 7 0 10.6-4.6 2-2.5 3.4-7.6h13.4q-1.7 10.6-8.9 17.3-7.1 6.6-17.2 6.6l-2.7 4q1.5-0.4 2.1-0.5 0.6-0.1 1.3-0.1 3.6 0 5.7 1.8 2.1 1.7 2.1 5 0 4-3.3 6.3-3.3 2.4-8.5 2.4-2.2 0-5.4-0.9-1.4-0.5-4.1-1.4l1.7-3.8q2.5 0.7 3.4 1 2.1 0.5 3.4 0.5 2.7 0 3.8-1.1 1.2-1.2 1.2-2.4 0-1.8-1.3-2.6-1.3-0.7-2.7-0.7-0.9 0-1.7 0.2-0.9 0.2-2 0.5l-1.9-1.7 4.1-6.5q-10.3 0-18.1-9-7.9-9-7.9-24.7 0-16.9 9-26.1z"/>
			<path id="&lt;Compound Path&gt;" fill-rule="evenodd" class="s4" d="m968.2 868.2q-7.3 7.6-21.2 7.6-13.9 0-21.2-7.6-9.9-9.2-9.9-26.7 0-17.8 9.9-26.7 7.3-7.5 21.2-7.6 13.9 0.1 21.2 7.6 9.8 8.9 9.8 26.7 0 17.5-9.8 26.7zm-8.4-9.8q4.7-5.9 4.7-16.9 0-10.9-4.7-16.8-4.7-6-12.8-6-8 0-12.8 6-4.8 5.9-4.8 16.8 0 11 4.8 16.9 4.8 5.9 12.8 5.9 8.1 0 12.8-5.9z"/>
			<path id="&lt;Compound Path&gt;" class="s4" d="m998.1 854q0.6 4.4 2.5 6.6 3.3 4 11.5 4 4.9 0 8-1 5.7-2 5.7-7.5 0-3.2-2.8-5-2.8-1.7-9-3l-7-1.6q-10.3-2.2-14.2-4.9-6.5-4.5-6.5-14 0-8.7 6.4-14.5 6.4-5.8 18.8-5.8 10.3 0 17.7 5.5 7.3 5.4 7.6 15.7h-13q-0.3-5.8-5.2-8.3-3.2-1.6-8.1-1.6-5.3 0-8.5 2.1-3.2 2.1-3.2 5.9 0 3.5 3.1 5.2 2.1 1.1 8.6 2.7l11.4 2.6q7.5 1.8 11.2 4.7 5.8 4.6 5.8 13.3 0 8.8-6.9 14.7-6.8 5.9-19.4 5.9-12.7 0-20.1-5.8-7.3-5.8-7.3-15.9z"/>
		</g>
	</g>
</svg>