<svg version="1.2" xmlns="http://www.w3.org/2000/svg" viewBox="0 0 1224 1584" width="1224" height="1584">
	<title>DEGEP-DRH-ai</title>
	<style>
		.s0 { fill: none } 
		.s1 { fill: #000000 } 
	</style>
	<g id="Layer 1">
		<g id="&lt;Group&gt;">
			<path id="&lt;Compound Path&gt;" fill-rule="evenodd" class="s0" d="m718.2 774.6c0 80.5-65.2 145.7-145.7 145.7-80.5 0-145.8-65.2-145.8-145.7 0-80.5 65.3-145.7 145.8-145.7 80.5 0 145.7 65.2 145.7 145.7zm-207 50.1l101.7-128c3.4-4.3 2.7-10.5-1.5-13.8-4.3-3.4-10.5-2.7-13.9 1.5l-101.8 128.1c-3.3 4.2-2.6 10.4 1.6 13.8 1.8 1.5 4 2.2 6.1 2.2 2.9 0 5.8-1.3 7.8-3.8zm142.8-99.2c-4.2-3.3-10.4-2.6-13.8 1.6l-101.8 128.1c-3.4 4.2-2.7 10.4 1.6 13.8 1.8 1.4 4 2.2 6.1 2.2 2.9 0 5.8-1.3 7.7-3.8l101.8-128c3.4-4.3 2.7-10.5-1.6-13.9z"/>
			<path id="&lt;Path&gt;" class="s1" d="m867.8 1022.4l13.2 13.1c9 9.1 4.4 28.3-10.2 43-14.8 14.7-34 19.3-43 10.2l-14.1-14.1-1.3-1.3 53.2-53.2 2.2 2.3z"/>
			<path id="&lt;Compound Path&gt;" fill-rule="evenodd" class="s1" d="m776.9 774.6c0 44.9-14.4 86.3-38.6 120.2l114.3 112.6-53.2 53.1-115.1-113.3c-32.8 21.9-72.2 34.7-114.7 34.7-114.4 0-207.2-92.8-207.2-207.3 0-114.5 92.8-207.3 207.2-207.3 114.5 0 207.3 92.8 207.3 207.3zm-58.7 0c0-80.5-65.2-145.7-145.7-145.7-80.5 0-145.8 65.2-145.8 145.7 0 80.5 65.3 145.7 145.8 145.7 80.5 0 145.7-65.2 145.7-145.7z"/>
		</g>
		<path id="&lt;Compound Path&gt;" fill-rule="evenodd" class="s1" d="m666.6 854.6c0.2 0.6 0.1 1.2-0.2 1.6-0.4 0.5-0.9 0.7-1.5 0.7h-186.2c-0.6 0-1.1-0.2-1.4-0.7-0.4-0.4-0.4-1-0.3-1.6l20.7-61.7c0.2-0.6 0.7-1 1.3-1.1l25.9-5.5 9.3-2 17.7-3.7v-13.8c-5.3-4-11.2-10.6-11.2-20.7q-1.6-0.5-3.2-1.5c-2.4-1.8-4.3-4.6-5.2-7.8-0.9-3.2-0.7-6.6 0.5-9.4 0.7-1.7 1.8-3.1 3.1-4.1q-1.5-0.6-3-1.1c-0.7-0.3-1.2-1-1.2-1.7v-5c0-1 0.8-1.8 1.8-1.8h2.6v-8c0-15.6 10.1-28.9 24.1-33.7v-3c0-1 0.8-1.8 1.8-1.8h19.1c1 0 1.8 0.8 1.8 1.8v2.8c14.3 4.7 24.7 18.1 24.7 33.9v8h2.5c1 0 1.8 0.8 1.8 1.8v5c0 0.7-0.4 1.4-1.1 1.7q-1.6 0.5-3.1 1.1c3.5 2.7 5.1 8.1 3.6 13.5-0.8 3.2-2.7 6-5.2 7.8q-1.5 1-3.1 1.5c-0.1 10.1-6 16.7-11.3 20.7v13.8l22.1 4.6 4.9 1.1 26 5.5c0.6 0.1 1.1 0.5 1.3 1.1zm-4.1-1.2l-19.6-58.4-22.8-4.8v31.9h6.4c1 0 1.8 0.8 1.8 1.8v29.5zm-147.2 0v-29.5c0-1 0.8-1.8 1.8-1.8h6.4v-31.9l-22.8 4.8-19.5 58.4zm31-68v36.7h51v-36.7l-5.6-1.2-1.1-0.2-0.7 0.7-1.7 1.9-15.1 16.7c-0.7 0.8-1.9 0.8-2.6 0l-15.1-16.7-1.8-1.9-0.6-0.7-1.1 0.2zm-10.7-49.5c0.7 2.4 2.1 4.5 3.9 5.8q0.6 0.4 1.1 0.7v-17.4c-0.2 0-0.4 0-0.6 0.1-1.8 0.5-3.2 1.8-4 3.7-0.9 2.1-1 4.6-0.4 7.1zm3.9-22.1h20.7v-38c-12.1 4.6-20.7 16.3-20.7 30zm24.2 0h15.6v-43.1h-15.6zm40.3-8c0-13.8-8.9-25.6-21.2-30.2v38.2h21.2zm-68.8 13.6q2.7 1 5.4 1.8 0.4 0.1 0.7 0.2 0.5 0.2 1.1 0.3 0.9 0.3 1.7 0.6 1.2 0.3 2.4 0.6c16.8 4.2 33.7 4.3 50.4 0q1.2-0.3 2.5-0.6 0.8-0.3 1.7-0.5 0.6-0.2 1.2-0.4 0.3-0.1 0.6-0.2 2.7-0.8 5.4-1.8v-2h-73.1zm68.3 5.7c-0.2 0-0.4 0-0.6-0.1v17.4q0.5-0.2 1.1-0.6c1.8-1.3 3.2-3.4 3.9-5.9 1.3-4.9-0.6-9.7-4.4-10.8zm-59.3 21.5c0.1 6.7 3.3 11.9 7.6 15.8q0.9 0.7 1.8 1.4 0.9 0.7 1.8 1.3c5.9 3.9 12.6 5.7 16.4 5.7 3.7 0 10.4-1.8 16.3-5.7q0.9-0.6 1.8-1.3 0.9-0.7 1.8-1.5c4.3-3.8 7.5-9 7.6-15.7q0.1-0.2 0.1-0.5v-20.2q-0.5 0.2-1 0.3-1.8 0.4-3.5 0.8-1.2 0.3-2.4 0.5-10.3 2.1-20.7 2.1-10.4 0-20.8-2.1-1.2-0.2-2.4-0.5-1.8-0.4-3.5-0.9-0.5-0.1-1-0.2v20.2q0 0.3 0.1 0.5zm11.2 22.6v12.2l16.4 18.2 16.3-18.2v-12.2c-6 3.5-12.3 5.1-16.3 5.1-4.1 0-10.4-1.6-16.4-5.1zm-28.4 68.7h15.8v-51.7l-4.8 1-11 2.3zm73.8 0h15.7v-48.3l-6.4-1.4-9.3-1.9zm-82 15.6h105.9v-27.7h-4.6v13.8c0 1-0.8 1.8-1.8 1.8h-19.3c-1 0-1.8-0.8-1.8-1.8v-13.8h-50.9v13.8c0 1-0.8 1.8-1.8 1.8h-19.3c-1 0-1.8-0.8-1.8-1.8v-13.8h-4.6z"/>
	</g>
</svg>