<svg version="1.2" xmlns="http://www.w3.org/2000/svg" viewBox="0 0 1224 1584" width="1224" height="1584">
	<title>DENUNCIA-ai</title>
	<style>
		.s0 { fill: #009641 } 
		.s1 { fill: #ffffff } 
	</style>
	<g id="Layer 1">
		<g id="&lt;Group&gt;">
			<g id="&lt;Group&gt;">
				<path id="&lt;Path&gt;" class="s0" d="m926.4 1156.1h-194.1l-96.9 134.4c-14.6 20.3-42 19.8-56-1.1l-89.7-133.3h-192.1c-86.2 0-156-80.1-156-178.9v-376c0-98.8 69.8-178.8 156-178.8h628.8c86.2 0 156 80 156 178.8v376c0 98.8-69.8 178.9-156 178.9z"/>
			</g>
		</g>
		<g id="&lt;Group&gt;">
			<path id="&lt;Compound Path&gt;" fill-rule="evenodd" class="s1" d="m731.1 868.9c3.1 6.8 6.4 15 3.1 22.4-3 7.1-10.8 11-17 15.2 2.9 9.3 5.6 18.5 8 27.8 3.5 13.7 13.8 39.5 6 53.3-7.6 13.5-28.9 4.7-40 2.3-22.6-4.8-45.1-10.9-68.1-13.4-25.9-2.9-51.5-0.3-77 4.6q-3 1-6.1 1.9c3.8 8.1 7.8 16 12.9 23.2 4.6 6.6 12 12.7 14.1 20.8 4.1 16-13 29.9-26.6 34.4-13 4.3-18.7-8.5-24.3-18.2-8.6-14.9-15.5-31-23-46.5-4.1 1-8.2 1.5-11.6 0.5-12.6-3.7-22.5-25.6-26.7-36.4-4.4-11.5-12-33.5-0.7-43.5 6.6-5.9 17.5-7.7 25.5-10.4 12.4-4.1 24.9-8 37.4-11.8q0.4-0.5 1-0.8c44.4-23.5 74.6-61.8 107.8-98.1 7.7-8.5 21.7-22.4 34.1-14 9 6.1 14.4 20.6 19.1 29.8 7.3 14.5 14.1 29.5 20.3 44.7 6-1.2 12.4-2.6 18.3-1.9 7 1 10.8 8.2 13.5 14.1zm-227.8 114.6c12.9-3.2 25.6-7 38.2-11q-12.1-33.7-22.9-67.8c-14.2 4.3-28.4 8.8-42.5 13.6-11.6 3.9-19.2 9.8-16.8 23.4 1.2 6.3 3.1 12.3 5.6 18.2 2.5 5.9 5.5 11.5 9.3 16.7 8.1 11.3 17.2 10 29.1 6.9zm29.8 1.7c-9 2.8-18.1 5.3-27.2 7.7-1.8 0.4-3.7 1-5.8 1.7q1.3 2.6 2.5 5.3c0.7-1 1.5-1.9 2.2-2.9 1.1-1.7 3.1-2.4 4.9-1.3 1.6 0.9 2.4 3.3 1.3 4.9q-2 3-4.2 5.8c-0.2 0.3-0.5 0.5-0.7 0.8 0.9 1.9 1.8 3.8 2.7 5.7q1.5-2.6 3-5.2c2.4-4 8.6-0.4 6.3 3.7q-2.4 4.1-4.9 8.3-0.3 0.6-0.7 0.9 0.5 1 1 2.1 0.9 1.9 1.9 4 1.4-3 2.8-6c0.8-1.8 3.4-2.3 5-1.3 1.8 1 2.1 3.1 1.3 4.9q-2.5 5.5-5 10.9 0 0-0.1 0 1.3 2.7 2.8 5.3c0.9-1.8 1.8-3.5 2.4-5.4 1.5-4.3 8.5-2.5 7 2-0.6 1.9-1.4 3.7-2.3 5.5-0.7 1.5-1.7 2.8-2.2 4.4q-0.1 0.2-0.3 0.4c0.7 0.8 1.3 1.6 2 2.3 0.3 0.3 0.6 0.6 0.9 0.9 1.2-1.9 2.2-3.9 2.9-6 1.5-4.4 8.5-2.5 7 1.9q-1.3 3.8-3.3 7.2c1.8 0 3.9-0.7 6.7-2.1 2.9-1.4 7.2-4.1 9.4-6.6 8.4-9.1 8.2-15.2 1.9-25.1-1-1.6-3.1-3.8-4.3-5.5-6.9-9.1-12.1-18.9-16.9-29.2zm176.7-0.7c-6.2-34.8-17-70.4-29.9-103.1-11.3-28.5-22.6-60.7-39.8-86.5-6 5-11.4 12.6-14.8 16.6-29.2 34.1-60.2 68.1-100.1 89.9q11 35 23.4 69.5c23.9-4.4 48-6.7 72.3-4.3 21.3 2.1 42 7.2 62.8 11.8 6.3 1.4 17.2 5.5 26.1 6.1zm5.4-50c-6.3-24.1-14.5-47.7-23.7-70.8-7.7-19.4-16.1-38.7-26.1-56.9-2.2-4-5.7-13.3-9.8-15.7-3.1-1.8-6.3-1.5-9.5-0.1 17.3 25.8 28.4 57.6 39.8 86.2 13.6 33.9 24.8 70.7 31.2 106.8 3.7-1 6.3-3.6 6.7-8.6 0.8-12.6-5.3-28.8-8.6-40.9zm8.6-64.3c-3.3-6.6-6-8.6-13.1-7.9-2.9 0.3-5.8 0.8-8.7 1.3q7 17.7 12.9 35.8c4.1-2.4 8.6-4.9 11.1-8.5 4.6-6.5 0.9-14.5-2.2-20.7z"/>
			<path id="&lt;Path&gt;" class="s1" d="m712.3 833.2c0-6.9-0.1-13.8 0-20.7 0-4.6 7.3-4.6 7.2 0 0 6.9 0.1 13.8 0 20.7 0 4.6-7.3 4.6-7.2 0z"/>
			<path id="&lt;Path&gt;" class="s1" d="m743.9 842q5.6-6.2 11.3-12.4c3.1-3.5 8.2 1.6 5.1 5.1q-5.7 6.2-11.3 12.4c-3.2 3.4-8.3-1.7-5.1-5.1z"/>
			<path id="&lt;Path&gt;" class="s1" d="m773.8 878c-5.4-0.3-10.8-0.3-16.1-0.4-4.7-0.2-4.7-7.4 0-7.3 5.3 0.2 10.7 0.2 16.1 0.5 4.6 0.3 4.6 7.5 0 7.2z"/>
			<path id="&lt;Path&gt;" class="s1" d="m761.1 915.8c3.5 3.1-1.7 8.2-5.1 5.1-4.2-3.8-8.5-7.6-13.1-10.9-3.8-2.7-0.1-9 3.6-6.3 5.2 3.7 9.9 7.8 14.6 12.1z"/>
			<path id="&lt;Path&gt;" class="s1" d="m472.7 943.5c-4.3 1.7-6.2-5.3-1.9-7q7.3-2.8 14.6-5.6c4.3-1.7 6.2 5.3 1.9 7q-7.3 2.8-14.6 5.6z"/>
			<path id="&lt;Path&gt;" class="s1" d="m492.9 949q-8.3 4-17.1 6.6c-4.5 1.3-6.4-5.7-1.9-7 5.3-1.6 10.4-3.5 15.4-5.9 4.2-2 7.9 4.3 3.6 6.3z"/>
		</g>
		<g id="&lt;Group&gt;">
			<path id="&lt;Compound Path&gt;" fill-rule="evenodd" class="s1" d="m342.8 663.2h-33.2v-78.6h33.9q9.4 0 16.9 2.3 7.5 2.3 12.8 7 5.3 4.7 8.1 11.9 2.8 7.2 2.8 16.8 0 14.2-5 23.3-5 9-14.2 13.2-9.2 4.1-22.1 4.1zm-7.8-60.2v41.9h5.3q9.7 0 14.2-5.9 4.1-5.2 4.1-15.1 0-8.2-1.8-12.8-1.8-4.5-5.9-6.3-4-1.8-11.1-1.8z"/>
			<path id="&lt;Compound Path&gt;" class="s1" d="m458.4 663.2h-64.6v-78.6h63.2v18.4h-37.6v11.4h31.7v18.4h-31.7v12.1h39z"/>
			<path id="&lt;Compound Path&gt;" class="s1" d="m493.2 584.6l27.6 43-0.8-17.8v-25.2h24.5v78.6h-24.1l-27.6-42.8 0.8 17.8v25h-24.1v-78.6z"/>
			<path id="&lt;Compound Path&gt;" class="s1" d="m557 584.6h25.4v47.3q0 6.7 2.4 10.5 2.4 3.8 9.3 3.8 6.6 0 9.3-3.7 2.6-3.8 2.6-10.6v-47.3h25.5v44.5q0 9.5-2.2 16.3-2.2 6.8-6.7 11.2-4.6 4.3-11.7 6.5-7 2.1-16.8 2.1-9.2 0-16.1-1.9-6.8-1.9-11.5-6.2-4.7-4.2-7.1-11.2-2.4-6.9-2.4-16.9zm37.1-23.2h22.4l-18.6 16.2h-14.4z"/>
			<path id="&lt;Compound Path&gt;" class="s1" d="m667.6 584.6l27.7 43-0.8-17.8v-25.2h24.4v78.6h-24l-27.6-42.8 0.8 17.8v25h-24.2v-78.6z"/>
			<path id="&lt;Compound Path&gt;" class="s1" d="m780.3 614.9q-0.5-6.2-4.2-9.6-3.6-3.4-9.6-3.4-6.7 0-10.5 5.9-3.8 5.8-3.8 17.1 0 9.7 3.2 15.5 3.3 5.8 12.2 5.8 5.8 0 9-3.6 3.2-3.7 3.9-9.5h24.5q-1.1 9.8-5.9 17.1-4.9 7.3-13 11.1-8 3.9-18.1 3.9-9.6 0-17.2-2.9-7.6-2.8-13-8.2-5.4-5.4-8.2-13-2.8-7.6-2.8-17 0-9.4 3-17.1 2.9-7.7 8.2-13.1 5.2-5.4 12.2-8.3 7-2.8 15.1-2.8 11.8 0 20.2 3.7 8.5 3.8 13.2 11 4.8 7.2 5.7 17.4z"/>
			<path id="&lt;Compound Path&gt;" class="s1" d="m840.8 663.2h-25.5v-78.6h25.5z"/>
			<path id="&lt;Compound Path&gt;" fill-rule="evenodd" class="s1" d="m873.9 663.2h-25l27.9-78.6h25.8l27.8 78.6h-25.3l-2.9-10.3h-25.4zm23.7-26.6l-8.1-28-7.7 28z"/>
		</g>
	</g>
</svg>