<svg version="1.2" xmlns="http://www.w3.org/2000/svg" viewBox="0 0 1224 1584" width="1224" height="1584">
	<title>DIR-URBANIZACAO-ai</title>
	<style>
		.s0 { fill: #000000 } 
	</style>
	<g id="Layer 1">
		<path id="&lt;Compound Path&gt;" fill-rule="evenodd" class="s0" d="m850.7 993.9c0.5 1.4 0.3 3-0.6 4.3-0.9 1.2-2.3 1.9-3.9 1.9h-500.2c-1.5 0-2.9-0.7-3.8-1.9-0.9-1.3-1.2-2.9-0.7-4.3l55.4-165.7c0.6-1.6 1.9-2.8 3.5-3.2l69.7-14.7 24.8-5.2 47.7-10.1v-37.1c-14.2-10.6-30-28.5-30.1-55.4-2.9-0.9-5.8-2.3-8.5-4.3-6.6-4.8-11.6-12.2-14-20.9-2.4-8.6-1.9-17.5 1.3-25.1 2-4.6 4.9-8.4 8.5-11.2-2.8-1-5.5-1.9-8.3-2.9-1.8-0.7-3-2.5-3-4.5v-13.4c0-2.6 2.1-4.7 4.7-4.7h6.9v-21.5c0-42.1 27.2-77.8 64.9-90.8v-8c0-2.7 2.1-4.8 4.8-4.8h51.4c2.6 0 4.7 2.1 4.7 4.8v7.6c38.4 12.5 66.2 48.6 66.2 91.2v21.5h6.9c2.7 0 4.8 2.1 4.8 4.7v13.4c0 2-1.2 3.8-3.1 4.5-2.7 1-5.5 2-8.2 2.9 9.4 7.5 13.8 21.9 9.8 36.3-2.4 8.7-7.4 16.1-14.1 20.9-2.7 2-5.5 3.4-8.4 4.3-0.2 26.9-15.9 44.8-30.2 55.4v37.1l59.2 12.5 13.4 2.8 69.6 14.7c1.6 0.4 3 1.6 3.5 3.2zm-11.1-3.3l-52.4-156.9-61.3-12.9v85.8h17.3c2.6 0 4.7 2.1 4.7 4.7v79.3zm-395.3 0v-79.3c0-2.6 2.1-4.7 4.7-4.7h17.3v-85.8l-61.3 12.9-52.5 156.9zm83.4-182.8v98.8h136.9v-98.8l-15-3.1-3-0.7-1.7 1.9-4.7 5.3-40.5 44.9c-1.8 2-5.3 2-7.1 0l-40.4-44.9-4.8-5.3-1.7-1.9-3 0.7zm-28.6-133.1c1.8 6.6 5.5 12.2 10.4 15.8 1 0.6 2 1.2 2.9 1.7v-46.7c-0.5 0.1-1.1 0.1-1.7 0.2-4.7 1.3-8.5 4.9-10.7 10.2-2.4 5.6-2.8 12.3-0.9 18.8zm10.5-59.3h55.4v-102.1c-32.4 12.5-55.4 43.9-55.4 80.6zm64.9 0h41.9v-115.6h-41.9zm108.1-21.5c0-37.2-23.7-68.9-56.7-81.1v102.6h56.7zm-184.7 36.4c4.9 1.8 9.7 3.4 14.5 4.9q1 0.3 1.9 0.6 1.4 0.4 2.9 0.8c1.6 0.5 3.1 1 4.7 1.4 2.2 0.6 4.3 1.1 6.4 1.7 45.2 11.4 90.5 11.5 135.4 0.1 2.2-0.6 4.4-1.1 6.6-1.7 1.5-0.4 3.1-1 4.7-1.4q1.5-0.5 3-0.9 0.9-0.3 1.7-0.5c4.9-1.6 9.7-3.2 14.6-5v-5.4h-196.4zm183.5 15.5c-0.5-0.2-1.1-0.2-1.7-0.3v46.7c1-0.5 2-1 2.9-1.7 5-3.6 8.7-9.2 10.5-15.7 3.7-13.2-1.6-26.2-11.7-29zm-159.4 57.7c0.4 18 9.1 31.9 20.6 42.2q2.3 2.1 4.7 3.9 2.4 1.8 4.8 3.4c15.8 10.5 33.9 15.5 44 15.5 10 0 28.2-5 44-15.5q2.4-1.6 4.7-3.4 2.5-1.8 4.8-3.9c11.5-10.3 20.2-24.2 20.6-42.2 0-0.4 0.1-0.9 0.1-1.4v-54.2q-1.4 0.3-2.8 0.7-4.6 1.2-9.2 2.2-3.3 0.8-6.6 1.5c-18.4 3.7-36.9 5.6-55.4 5.6-18.6 0-37.2-2-55.8-5.7q-3.3-0.7-6.6-1.4-4.7-1.1-9.4-2.3-1.3-0.3-2.6-0.7v54.3c0 0.5 0.1 1 0.1 1.4zm30.1 60.6v32.9l44 48.8 44-48.8v-32.9c-16.2 9.5-33.2 13.8-44 13.8-10.8 0-27.8-4.3-44-13.8zm-76.3 184.5h42.4v-138.8l-12.9 2.7-29.5 6.3zm198.2 0h42.4v-129.9l-17.4-3.6-25-5.3zm-220.2 42h284.6v-74.6h-12.5v37.3c0 2.6-2.1 4.8-4.8 4.8h-51.9c-2.6 0-4.7-2.2-4.7-4.8v-37.3h-136.8v37.3c0 2.6-2.1 4.8-4.8 4.8h-51.9c-2.6 0-4.7-2.2-4.7-4.8v-37.3h-12.5z"/>
	</g>
</svg>