<svg version="1.2" xmlns="http://www.w3.org/2000/svg" viewBox="0 0 1224 1584" width="1224" height="1584">
	<title>DIR-JURIDICA-ai</title>
	<style>
		.s0 { fill: #000000 } 
		.s1 { fill: #ffffff;stroke: #1a1a1a;stroke-width: 13.1 } 
		.s2 { fill: none;stroke: #1a1a1a;stroke-linecap: square;stroke-linejoin: bevel;stroke-width: 13.1 } 
		.s3 { fill: #ffffff;stroke: #1a1a1a;stroke-linecap: square;stroke-linejoin: bevel;stroke-width: 13.1 } 
		.s4 { fill: #ffffff;stroke: #1a1a1a;stroke-linecap: round;stroke-linejoin: round;stroke-width: 13.1 } 
	</style>
	<g id="Layer 1">
		<path id="&lt;Compound Path&gt;" fill-rule="evenodd" class="s0" d="m753.3 966.7h-316.6c-4.5 0-8.2-3.6-8.2-8.2v-386.3c0-2.5 1.1-4.8 3-6.3l87.1-72.6c1.5-1.3 3.3-1.9 5.3-1.9h229.4c4.6 0 8.2 3.6 8.2 8.2v458.9c0 4.6-3.6 8.2-8.2 8.2zm-308.4-16.3h300.3v-442.6h-218.4l-81.9 68.2z"/>
		<path id="&lt;Compound Path&gt;" fill-rule="evenodd" class="s0" d="m788.2 1001.2h-316.6c-4.5 0-8.2-3.7-8.2-8.2v-34.5c0-4.5 3.7-8.1 8.2-8.1h273.6v-416.4c0-4.5 3.6-8.2 8.1-8.2h34.9c4.6 0 8.2 3.7 8.2 8.2v459c0 4.5-3.6 8.2-8.2 8.2zm-308.4-16.4h300.2v-442.6h-18.5v416.3c0 4.6-3.6 8.2-8.2 8.2h-273.5z"/>
		<path id="&lt;Compound Path&gt;" fill-rule="evenodd" class="s0" d="m523.9 580.4h-87.2c-3.4 0-6.5-2.2-7.7-5.5-1.1-3.2-0.2-6.8 2.5-9l87.1-72.6c2.4-2.1 5.9-2.5 8.7-1.2 2.9 1.4 4.8 4.3 4.8 7.5v72.6c0 4.5-3.7 8.2-8.2 8.2zm-64.5-16.4h56.3v-46.9z"/>
		<g id="&lt;Group&gt;">
			<g id="&lt;Group&gt;">
				<g id="&lt;Group&gt;">
					<path id="&lt;Path&gt;" class="s1" d="m647.8 865.5h-106.2v-9.4h106.2z"/>
					<path id="&lt;Path&gt;" class="s1" d="m631.5 856.1h-73.6v-7.9h73.6z"/>
				</g>
				<path id="&lt;Path&gt;" class="s1" d="m594.7 848.2v-171.7"/>
				<path id="&lt;Path&gt;" class="s1" d="m518 676.5h153.4"/>
				<g id="&lt;Group&gt;">
					<g id="&lt;Group&gt;">
						<path id="&lt;Path&gt;" class="s2" d="m655.9 678.2l25.9 80.3h-25.9-25.9z"/>
						<path id="&lt;Path&gt;" class="s3" d="m691.2 758.5c-0.6 19.1-16.2 34.4-35.3 34.4-19.2 0-34.8-15.3-35.3-34.4z"/>
					</g>
					<g id="&lt;Group&gt;">
						<path id="&lt;Path&gt;" class="s2" d="m533.5 678.2l25.9 80.3h-25.9-25.9z"/>
						<path id="&lt;Path&gt;" class="s3" d="m568.8 758.5c-0.5 19.1-16.1 34.4-35.3 34.4-19.2 0-34.8-15.3-35.3-34.4z"/>
					</g>
				</g>
				<path id="&lt;Path&gt;" class="s3" d="m600.2 676.7c0 3-2.5 5.5-5.5 5.5-3.1 0-5.6-2.5-5.6-5.5 0-3.1 2.5-5.6 5.6-5.6 3 0 5.5 2.5 5.5 5.6z"/>
				<path id="&lt;Path&gt;" class="s3" d="m519.9 676.7c0 2-1.7 3.7-3.7 3.7-2.1 0-3.8-1.7-3.8-3.7 0-2.1 1.7-3.8 3.8-3.8 2 0 3.7 1.7 3.7 3.8z"/>
				<path id="&lt;Path&gt;" class="s3" d="m675.2 676.7c0 2-1.7 3.7-3.8 3.7-2.1 0-3.7-1.7-3.7-3.7 0-2.1 1.6-3.8 3.7-3.8 2.1 0 3.8 1.7 3.8 3.8z"/>
			</g>
			<g id="&lt;Group&gt;">
				<path id="&lt;Path&gt;" class="s4" d="m595.5 624.3l0.2-12.1"/>
			</g>
			<g id="&lt;Group&gt;">
				<path id="&lt;Path&gt;" class="s4" d="m549.7 642.3l-8.4-8.7"/>
			</g>
			<g id="&lt;Group&gt;">
				<path id="&lt;Path&gt;" class="s4" d="m640.6 643.9l8.7-8.4"/>
			</g>
			<g id="&lt;Group&gt;">
				<path id="&lt;Path&gt;" class="s4" d="m570.4 628.9l-4.5-11.2"/>
			</g>
			<g id="&lt;Group&gt;">
				<path id="&lt;Path&gt;" class="s4" d="m654 664.6l11.3-4.5"/>
			</g>
			<g id="&lt;Group&gt;">
				<path id="&lt;Path&gt;" class="s4" d="m535.3 663.3l-11.2-4.8"/>
			</g>
			<g id="&lt;Group&gt;">
				<path id="&lt;Path&gt;" class="s4" d="m619.6 629.5l4.8-10.8"/>
			</g>
		</g>
	</g>
</svg>