<svg version="1.2" xmlns="http://www.w3.org/2000/svg" viewBox="0 0 1224 1584" width="1224" height="1584">
	<title>DIR-FINANCEIRA-ai</title>
	<style>
		.s0 { fill: #000000 } 
	</style>
	<g id="Layer 1">
		<g id="&lt;Group&gt;">
			<path id="&lt;Path&gt;" class="s0" d="m640.7 1019.7c0 5.8-4.7 10.5-10.5 10.5h-24.8c-5.7 0-10.4-4.7-10.4-10.5 0-5.7 4.7-10.4 10.4-10.4h24.8c5.8 0 10.5 4.7 10.5 10.4z"/>
			<path id="&lt;Compound Path&gt;" fill-rule="evenodd" class="s0" d="m843.3 534.4v482.5c0 28-22.9 50.9-51 50.9h-349c-28.1 0-50.9-22.9-50.9-50.9v-482.5c0-28.1 22.8-50.9 50.9-50.9h349c28.1 0 51 22.8 51 50.9zm-20.9 0c0-16.5-13.5-30-30.1-30h-349c-16.6 0-30 13.5-30 30v482.5c0 16.5 13.4 30 30 30h349c16.6 0 30.1-13.5 30.1-30z"/>
			<path id="&lt;Path&gt;" class="s0" d="m799 553.4c0 5.7-4.7 10.4-10.5 10.4h-341.4c-5.8 0-10.5-4.7-10.5-10.4 0-5.8 4.7-10.5 10.5-10.5h341.4c5.8 0 10.5 4.7 10.5 10.5z"/>
			<path id="&lt;Path&gt;" class="s0" d="m799 982.7c0 5.8-4.7 10.5-10.5 10.5h-341.4c-5.8 0-10.5-4.7-10.5-10.5 0-5.8 4.7-10.4 10.5-10.4h341.4c5.8 0 10.5 4.6 10.5 10.4z"/>
		</g>
		<g id="&lt;Group&gt;">
			<path id="&lt;Compound Path&gt;" fill-rule="evenodd" class="s0" d="m607.8 654h22.4v16.4q30.6 1.8 50.4 15.8 19.7 14 19.7 43.2h-47.3q-0.4-8.7-6.5-15-6-6.4-16.3-6.4v38.1q16.9 5 28.6 9.5 11.8 4.5 22 11.4 10.2 6.9 16.4 17.6 6.2 10.6 6.2 25.2 0 16-5.6 27.5-5.6 11.5-15.6 18.7-10 7.3-23.1 10.7-13 3.5-28.9 3.9v26.7h-22.4v-26.7q-19.5-0.5-35.8-8.1-16.1-7.6-25.6-22.2-9.6-14.6-9.9-35.5h49.2q0 24 22.1 29.1v-42.6q-21.8-7.3-29.5-10.2-7.6-2.8-17.2-9.2-9.7-6.3-15.4-16.4-5.8-10-5.8-24.5 0-29.1 18.3-42.3 18.4-13.3 49.6-18.3zm0 52.4q-6.7 0-13.6 4.6-6.9 4.6-6.9 12 0 5.7 3 9.2 3 3.4 7.4 5.5 4.5 2.1 10.1 4.7zm22.4 129.1q9.2 0 16.5-5.1 7.3-5.2 7.3-13.2 0-17.6-23.8-21.9z"/>
		</g>
	</g>
</svg>