<svg version="1.2" xmlns="http://www.w3.org/2000/svg" viewBox="0 0 1224 1584" width="1224" height="1584">
	<title>DIR-ADMINISTRATIVA-ai</title>
	<style>
		.s0 { fill: none;stroke: #000000;stroke-width: 11.7 } 
		.s1 { fill: #000000 } 
	</style>
	<g id="Layer 1">
		<path id="&lt;Compound Path&gt;" fill-rule="evenodd" class="s0" d="m847.4 817.2l45.6 16.8-29.2 79.4-44.6-16.5c-8.9 15.5-19.4 29.9-31.4 42.9l28.2 37.6-67.7 50.7-27.8-37.1c-20.6 10.5-42.7 18.2-66.2 22.4v46.1h-84.6v-46.1c-24.7-4.4-48-12.6-69.3-24l-28.4 36.8-67-51.7 28.8-37.3c-16.1-18.1-29.4-38.6-39.5-60.9l-46.2 12.1-21.5-81.9 47.3-12.3c-0.2-5.2-0.5-10.4-0.5-15.6 0-15.2 1.5-29.9 4.1-44.3l-46.5-17.2 29.2-79.3 47.5 17.5c8.9-14.7 19.3-28.2 31-40.6l-30.8-41 67.8-50.7 31 41.5c19.7-9.7 40.8-16.7 63-20.7v-52.1h84.6v52.1c23.3 4.2 45.5 11.8 66 22.2l31.7-41 66.9 51.7-31.2 40.5c15.9 17.3 29.2 36.9 39.5 58.3l48.8-12.7 21.4 81.8-47.9 12.6c0.7 7 1.1 14.1 1.1 21.4 0 13.1-1.1 26-3.2 38.6zm-72.9-41.6c0-89.7-72.7-162.5-162.5-162.5-89.8 0-162.5 72.8-162.5 162.5 0 89.7 72.7 162.4 162.5 162.4 89.8 0 162.5-72.7 162.5-162.4z"/>
		<g id="&lt;Group&gt;">
			<path id="&lt;Path&gt;" class="s1" d="m571.9 867.9l-73.8-73.9 26.5-26.6 47.3 47.3 119.5-119.4 26.5 26.6z"/>
		</g>
	</g>
</svg>