<svg version="1.2" xmlns="http://www.w3.org/2000/svg" viewBox="0 0 1224 1584" width="1224" height="1584">
	<title>DIR-EDIFICACOES-ai</title>
	<style>
		.s0 { fill: #000000 } 
	</style>
	<g id="Layer 1">
		<g id="&lt;Group&gt;">
			<g id="&lt;Group&gt;">
				<path id="&lt;Compound Path&gt;" fill-rule="evenodd" class="s0" d="m381 493.1c39.2 0 71.1 32 71.1 71.2v373c0 5.4-4.4 9.9-9.9 9.9-5.5 0-10-4.5-10-9.9 0-28.3-23-51.3-51.2-51.3-28.3 0-51.3 23-51.3 51.3 0 5.4-4.4 9.9-9.9 9.9-5.5 0-10-4.5-10-9.9v-373c0-39.2 32-71.2 71.2-71.2zm0 373c20.1 0 38.3 8.4 51.2 21.9v-323.7c0-28.3-23-51.3-51.2-51.3-28.3 0-51.3 23-51.3 51.3v323.7c13-13.5 31.2-21.9 51.3-21.9z"/>
				<path id="&lt;Compound Path&gt;" fill-rule="evenodd" class="s0" d="m328.3 889.4c13.5-14.8 32.7-23.3 52.7-23.3 20.1 0 38.3 8.4 51.2 21.9v-294.4c0-5.4 4.5-9.9 10-9.9h412.8c5.4 0 9.9 4.5 9.9 9.9v404.9c0 5.4-4.5 9.9-9.9 9.9h-471.4c-37.7 0-70-28.2-73.4-64.2q-0.4-3.5-0.4-7.1c0-17.7 6.5-34.4 18.5-47.7zm516.7-285.8h-392.9v333.7c0 5.4-4.4 9.9-9.9 9.9-5.5 0-10-4.5-10-9.9 0-28.3-23-51.3-51.2-51.3-14.4 0-28.3 6.1-38 16.8-9.8 10.8-14.4 24.8-13 39.5 2.4 25.9 26 46.2 53.6 46.2h461.4z"/>
			</g>
			<path id="&lt;Compound Path&gt;" fill-rule="evenodd" class="s0" d="m766.5 794.4c-3.2 3.1-7.2 4.7-11.3 4.7-4.1 0-8.2-1.6-11.3-4.7l-4.7-4.7v78h-191.8v-78l-4.7 4.7c-6.2 6.2-16.3 6.2-22.6 0-6.2-6.2-6.2-16.4 0-22.6l123.2-123.2 123.2 123.2c6.2 6.2 6.2 16.4 0 22.6zm-43.3-20.7l-79.9-79.9-79.9 79.9v78h47.9v-63.9h64v63.9h47.9z"/>
			<path id="&lt;Compound Path&gt;" fill-rule="evenodd" class="s0" d="m528.1 915.3c0-2.2 1.2-4.1 3.2-5l36.4-17.4 1.5-0.1 169.5 0.1c5.4 0 10.5 2.1 14.2 6 3.6 3.8 5.8 8.9 5.6 14.3l-0.1 4.6c-0.3 11-9.5 20.1-20.6 20.1l-170.8-0.1-1.4-0.6-34.4-16.9q-0.9-0.4-1.6-1.1c-1-1-1.5-2.4-1.5-3.9zm14 0.1l11.3 5.5 0.3-11zm41.7-9.4l6.1 4.7h103.7l0.3-8.5-106-0.1zm118.7 22.6h10.2l0.7-26.4h-10.2zm-115.4-0.1l106.1 0.1 0.2-8.6h-103.5l-6.6 4.8zm135.6-26.4l-0.7 26.4h15.8c6.1 0 11.1-4.9 11.3-11l0.1-4.6c0.1-2.9-1-5.6-2.9-7.6-2-2.1-4.7-3.2-7.6-3.2zm-152.7 0l-7 3.3-0.5 19.9 6.4 3.2h5.1l-0.2-0.3q-0.1 0-0.1 0c-1.1-1.2-1.7-2.7-1.6-4.3 0.2-1.6 1-3.1 2.3-4.1l6.3-4.6-5.9-4.5c-1.3-1-2.1-2.5-2.2-4.1-0.1-1.7 0.6-3.3 1.8-4.4l0.1-0.1z"/>
		</g>
	</g>
</svg>