<svg version="1.2" xmlns="http://www.w3.org/2000/svg" viewBox="0 0 1224 1584" width="1224" height="1584">
	<title>DOWNLOAD (1)-ai</title>
	<defs>
		<linearGradient id="g1" x1="358.6" y1="570.9" x2="865.4" y2="570.9" gradientUnits="userSpaceOnUse">
			<stop offset=".5" stop-color="#27974e"/>
			<stop offset=".5" stop-color="#0c9057"/>
		</linearGradient>
		<linearGradient id="g2" x1="435" y1="646.4" x2="790.9" y2="646.4" gradientUnits="userSpaceOnUse">
			<stop offset="0" stop-color="#c7ccd2"/>
			<stop offset=".2" stop-color="#e3e7eb"/>
			<stop offset=".5" stop-color="#ffffff"/>
			<stop offset="1" stop-color="#ffffff"/>
		</linearGradient>
	</defs>
	<style>
		.s0 { fill: url(#g1) } 
		.s1 { fill: #ffffff } 
		.s2 { fill: #fafafa } 
		.s3 { fill: #f5f5f5 } 
		.s4 { fill: #f0f0f0 } 
		.s5 { fill: #ebebeb } 
		.s6 { fill: #e6e6e6 } 
		.s7 { fill: #e1e1e1 } 
		.s8 { fill: #dcdcdc } 
		.s9 { fill: #d7d7d7 } 
		.s10 { fill: #d2d2d2 } 
		.s11 { fill: #cdcdcd } 
		.s12 { fill: #c8c8c8 } 
		.s13 { fill: #c3c3c3 } 
		.s14 { fill: #bebebe } 
		.s15 { fill: #b9b9b9 } 
		.s16 { fill: #b4b4b4 } 
		.s17 { fill: #afafaf } 
		.s18 { fill: #aaaaaa } 
		.s19 { fill: #a5a5a5 } 
		.s20 { fill: #a0a0a0 } 
		.s21 { fill: #9b9b9b } 
		.s22 { fill: #969696 } 
		.s23 { fill: #919191 } 
		.s24 { fill: #8c8c8c } 
		.s25 { fill: #878787 } 
		.s26 { fill: #828282 } 
		.s27 { fill: #7d7d7d } 
		.s28 { fill: #787878 } 
		.s29 { fill: #737373 } 
		.s30 { fill: #6e6e6e } 
		.s31 { fill: #696969 } 
		.s32 { fill: #646464 } 
		.s33 { fill: #5f5f5f } 
		.s34 { fill: #5a5a5a } 
		.s35 { fill: #555555 } 
		.s36 { fill: #505050 } 
		.s37 { fill: #4b4b4b } 
		.s38 { fill: #464646 } 
		.s39 { fill: #414141 } 
		.s40 { fill: #3c3c3c } 
		.s41 { fill: #373737 } 
		.s42 { fill: #323232 } 
		.s43 { fill: #2d2d2d } 
		.s44 { fill: #282828 } 
		.s45 { fill: #232323 } 
		.s46 { fill: #1e1e1e } 
		.s47 { fill: #191919 } 
		.s48 { fill: #141414 } 
		.s49 { fill: #0f0f0f } 
		.s50 { fill: #0a0a0a } 
		.s51 { fill: #050505 } 
		.s52 { fill: #000000 } 
		.s53 { fill: url(#g2) } 
		.s54 { fill: #060606 } 
	</style>
	<g id="Layer 1">
		<g id="&lt;Group&gt;">
			<path id="&lt;Path&gt;" class="s0" d="m865.4 828.3c0 140-113.4 253.4-253.4 253.4-140 0-253.4-113.4-253.4-253.4 0-139.9 113.4-253.4 253.4-253.4 140 0 253.4 113.5 253.4 253.4z"/>
			<g id="&lt;Group&gt;">
				<g id="&lt;Group&gt;" style="opacity: .4;mix-blend-mode: multiply">
					<path id="&lt;Path&gt;" class="s1" d="m841.3 836.9c0 98.3-81.5 178-182.1 178-100.5 0-182-79.7-182-178 0-98.2 81.5-177.9 182-177.9 100.6 0 182.1 79.7 182.1 177.9z"/>
					<path id="&lt;Path&gt;" class="s2" d="m840.2 836.8c0 98.2-81.5 177.9-182 177.9-100.5 0-182-79.7-182-177.9 0-98.3 81.5-177.9 182-177.9 100.5 0 182 79.6 182 177.9z"/>
					<path id="&lt;Path&gt;" class="s3" d="m839.2 836.6c0 98.3-81.5 177.9-182 177.9-100.6 0-182.1-79.6-182.1-177.9 0-98.3 81.5-177.9 182.1-177.9 100.5 0 182 79.6 182 177.9z"/>
					<path id="&lt;Path&gt;" class="s4" d="m838.1 836.4c0 98.3-81.4 178-182 178-100.5 0-182-79.7-182-178 0-98.2 81.5-177.9 182-177.9 100.6 0 182 79.7 182 177.9z"/>
					<path id="&lt;Path&gt;" class="s5" d="m837.1 836.3c0 98.2-81.5 177.9-182 177.9-100.5 0-182-79.7-182-177.9 0-98.3 81.5-178 182-178 100.5 0 182 79.7 182 178z"/>
					<path id="&lt;Path&gt;" class="s6" d="m836.1 836.1c0 98.3-81.5 177.9-182.1 177.9-100.5 0-182-79.6-182-177.9 0-98.3 81.5-177.9 182-177.9 100.6 0 182.1 79.6 182.1 177.9z"/>
					<path id="&lt;Path&gt;" class="s7" d="m835 835.9c0 98.3-81.5 177.9-182 177.9-100.5 0-182-79.6-182-177.9 0-98.2 81.5-177.9 182-177.9 100.5 0 182 79.7 182 177.9z"/>
					<path id="&lt;Path&gt;" class="s8" d="m834 835.8c0 98.2-81.5 177.9-182 177.9-100.6 0-182-79.7-182-177.9 0-98.3 81.4-178 182-178 100.5 0 182 79.7 182 178z"/>
					<path id="&lt;Path&gt;" class="s9" d="m833 835.6c0 98.3-81.5 177.9-182.1 177.9-100.5 0-182-79.6-182-177.9 0-98.3 81.5-177.9 182-177.9 100.6 0 182.1 79.6 182.1 177.9z"/>
					<path id="&lt;Path&gt;" class="s10" d="m831.9 835.4c0 98.3-81.5 177.9-182 177.9-100.5 0-182-79.6-182-177.9 0-98.2 81.5-177.9 182-177.9 100.5 0 182 79.7 182 177.9z"/>
					<path id="&lt;Path&gt;" class="s11" d="m830.9 835.3c0 98.2-81.5 177.9-182 177.9-100.6 0-182.1-79.7-182.1-177.9 0-98.3 81.5-178 182.1-178 100.5 0 182 79.7 182 178z"/>
					<path id="&lt;Path&gt;" class="s12" d="m829.8 835.1c0 98.2-81.5 177.9-182 177.9-100.5 0-182-79.7-182-177.9 0-98.3 81.5-177.9 182-177.9 100.5 0 182 79.6 182 177.9z"/>
					<path id="&lt;Path&gt;" class="s13" d="m828.8 834.9c0 98.3-81.5 177.9-182 177.9-100.5 0-182-79.6-182-177.9 0-98.2 81.5-177.9 182-177.9 100.5 0 182 79.7 182 177.9z"/>
					<path id="&lt;Path&gt;" class="s14" d="m827.8 834.7c0 98.3-81.5 178-182.1 178-100.5 0-182-79.7-182-178 0-98.2 81.5-177.9 182-177.9 100.6 0 182.1 79.7 182.1 177.9z"/>
					<path id="&lt;Path&gt;" class="s15" d="m826.7 834.6c0 98.2-81.5 177.9-182 177.9-100.5 0-182-79.7-182-177.9 0-98.3 81.5-177.9 182-177.9 100.5 0 182 79.6 182 177.9z"/>
					<path id="&lt;Path&gt;" class="s16" d="m825.7 834.4c0 98.3-81.5 177.9-182 177.9-100.6 0-182.1-79.6-182.1-177.9 0-98.3 81.5-177.9 182.1-177.9 100.5 0 182 79.6 182 177.9z"/>
					<path id="&lt;Path&gt;" class="s17" d="m824.7 834.2c0 98.3-81.5 178-182.1 178-100.5 0-182-79.7-182-178 0-98.2 81.5-177.9 182-177.9 100.6 0 182.1 79.7 182.1 177.9z"/>
					<path id="&lt;Path&gt;" class="s18" d="m823.6 834.1c0 98.2-81.5 177.9-182 177.9-100.5 0-182-79.7-182-177.9 0-98.3 81.5-178 182-178 100.5 0 182 79.7 182 178z"/>
					<path id="&lt;Path&gt;" class="s19" d="m822.6 833.9c0 98.3-81.5 177.9-182 177.9-100.6 0-182.1-79.6-182.1-177.9 0-98.3 81.5-177.9 182.1-177.9 100.5 0 182 79.6 182 177.9z"/>
					<path id="&lt;Path&gt;" class="s20" d="m821.5 833.7c0 98.3-81.5 178-182 178-100.5 0-182-79.7-182-178 0-98.2 81.5-177.9 182-177.9 100.5 0 182 79.7 182 177.9z"/>
					<path id="&lt;Path&gt;" class="s21" d="m820.5 833.6c0 98.2-81.5 177.9-182 177.9-100.6 0-182-79.7-182-177.9 0-98.3 81.4-178 182-178 100.5 0 182 79.7 182 178z"/>
					<path id="&lt;Path&gt;" class="s22" d="m819.5 833.4c0 98.3-81.5 177.9-182.1 177.9-100.5 0-182-79.6-182-177.9 0-98.3 81.5-177.9 182-177.9 100.6 0 182.1 79.6 182.1 177.9z"/>
					<path id="&lt;Path&gt;" class="s23" d="m818.4 833.2c0 98.3-81.5 177.9-182 177.9-100.5 0-182-79.6-182-177.9 0-98.2 81.5-177.9 182-177.9 100.5 0 182 79.7 182 177.9z"/>
					<path id="&lt;Path&gt;" class="s24" d="m817.4 833.1c0 98.2-81.5 177.9-182 177.9-100.6 0-182.1-79.7-182.1-177.9 0-98.3 81.5-178 182.1-178 100.5 0 182 79.7 182 178z"/>
					<path id="&lt;Path&gt;" class="s25" d="m816.3 832.9c0 98.2-81.5 177.9-182 177.9-100.5 0-182-79.7-182-177.9 0-98.3 81.5-177.9 182-177.9 100.5 0 182 79.6 182 177.9z"/>
					<path id="&lt;Path&gt;" class="s26" d="m815.3 832.7c0 98.3-81.5 177.9-182 177.9-100.5 0-182-79.6-182-177.9 0-98.2 81.5-177.9 182-177.9 100.5 0 182 79.7 182 177.9z"/>
					<path id="&lt;Path&gt;" class="s27" d="m814.3 832.5c0 98.3-81.5 178-182.1 178-100.5 0-182-79.7-182-178 0-98.2 81.5-177.9 182-177.9 100.6 0 182.1 79.7 182.1 177.9z"/>
					<path id="&lt;Path&gt;" class="s28" d="m813.2 832.4c0 98.2-81.5 177.9-182 177.9-100.5 0-182-79.7-182-177.9 0-98.3 81.5-177.9 182-177.9 100.5 0 182 79.6 182 177.9z"/>
					<path id="&lt;Path&gt;" class="s29" d="m812.2 832.2c0 98.3-81.5 177.9-182 177.9-100.6 0-182.1-79.6-182.1-177.9 0-98.3 81.5-177.9 182.1-177.9 100.5 0 182 79.6 182 177.9z"/>
					<path id="&lt;Path&gt;" class="s30" d="m811.2 832c0 98.3-81.5 178-182.1 178-100.5 0-182-79.7-182-178 0-98.2 81.5-177.9 182-177.9 100.6 0 182.1 79.7 182.1 177.9z"/>
					<path id="&lt;Path&gt;" class="s31" d="m810.1 831.9c0 98.2-81.5 177.9-182 177.9-100.5 0-182-79.7-182-177.9 0-98.3 81.5-177.9 182-177.9 100.5 0 182 79.6 182 177.9z"/>
					<path id="&lt;Path&gt;" class="s32" d="m809.1 831.7c0 98.3-81.5 177.9-182 177.9-100.6 0-182.1-79.6-182.1-177.9 0-98.3 81.5-177.9 182.1-177.9 100.5 0 182 79.6 182 177.9z"/>
					<path id="&lt;Path&gt;" class="s33" d="m808 831.5c0 98.3-81.5 178-182 178-100.5 0-182-79.7-182-178 0-98.2 81.5-177.9 182-177.9 100.5 0 182 79.7 182 177.9z"/>
					<path id="&lt;Path&gt;" class="s34" d="m807 831.4c0 98.2-81.5 177.9-182 177.9-100.6 0-182-79.7-182-177.9 0-98.3 81.4-178 182-178 100.5 0 182 79.7 182 178z"/>
					<path id="&lt;Path&gt;" class="s35" d="m806 831.2c0 98.3-81.5 177.9-182.1 177.9-100.5 0-182-79.6-182-177.9 0-98.3 81.5-177.9 182-177.9 100.6 0 182.1 79.6 182.1 177.9z"/>
					<path id="&lt;Path&gt;" class="s36" d="m804.9 831c0 98.3-81.5 177.9-182 177.9-100.5 0-182-79.6-182-177.9 0-98.2 81.5-177.9 182-177.9 100.5 0 182 79.7 182 177.9z"/>
					<path id="&lt;Path&gt;" class="s37" d="m803.9 830.9c0 98.2-81.5 177.9-182 177.9-100.6 0-182.1-79.7-182.1-177.9 0-98.3 81.5-178 182.1-178 100.5 0 182 79.7 182 178z"/>
					<path id="&lt;Path&gt;" class="s38" d="m802.8 830.7c0 98.2-81.4 177.9-182 177.9-100.5 0-182-79.7-182-177.9 0-98.3 81.5-177.9 182-177.9 100.6 0 182 79.6 182 177.9z"/>
					<path id="&lt;Path&gt;" class="s39" d="m801.8 830.5c0 98.3-81.5 177.9-182 177.9-100.5 0-182-79.6-182-177.9 0-98.2 81.5-177.9 182-177.9 100.5 0 182 79.7 182 177.9z"/>
					<path id="&lt;Path&gt;" class="s40" d="m800.8 830.3c0 98.3-81.5 178-182.1 178-100.5 0-182-79.7-182-178 0-98.2 81.5-177.9 182-177.9 100.6 0 182.1 79.7 182.1 177.9z"/>
					<path id="&lt;Path&gt;" class="s41" d="m799.7 830.2c0 98.2-81.5 177.9-182 177.9-100.5 0-182-79.7-182-177.9 0-98.3 81.5-177.9 182-177.9 100.5 0 182 79.6 182 177.9z"/>
					<path id="&lt;Path&gt;" class="s42" d="m798.7 830c0 98.3-81.5 177.9-182 177.9-100.6 0-182.1-79.6-182.1-177.9 0-98.3 81.5-177.9 182.1-177.9 100.5 0 182 79.6 182 177.9z"/>
					<path id="&lt;Path&gt;" class="s43" d="m797.7 829.8c0 98.3-81.5 178-182.1 178-100.5 0-182-79.7-182-178 0-98.2 81.5-177.9 182-177.9 100.6 0 182.1 79.7 182.1 177.9z"/>
					<path id="&lt;Path&gt;" class="s44" d="m796.6 829.7c0 98.2-81.5 177.9-182 177.9-100.5 0-182-79.7-182-177.9 0-98.3 81.5-177.9 182-177.9 100.5 0 182 79.6 182 177.9z"/>
					<path id="&lt;Path&gt;" class="s45" d="m795.6 829.5c0 98.3-81.5 177.9-182 177.9-100.6 0-182.1-79.6-182.1-177.9 0-98.3 81.5-177.9 182.1-177.9 100.5 0 182 79.6 182 177.9z"/>
					<path id="&lt;Path&gt;" class="s46" d="m794.5 829.3c0 98.3-81.5 178-182 178-100.5 0-182-79.7-182-178 0-98.2 81.5-177.9 182-177.9 100.5 0 182 79.7 182 177.9z"/>
					<path id="&lt;Path&gt;" class="s47" d="m793.5 829.2c0 98.2-81.5 177.9-182 177.9-100.5 0-182-79.7-182-177.9 0-98.3 81.5-178 182-178 100.5 0 182 79.7 182 178z"/>
					<path id="&lt;Path&gt;" class="s48" d="m792.5 829c0 98.3-81.5 177.9-182.1 177.9-100.5 0-182-79.6-182-177.9 0-98.3 81.5-177.9 182-177.9 100.6 0 182.1 79.6 182.1 177.9z"/>
					<path id="&lt;Path&gt;" class="s49" d="m791.4 828.8c0 98.3-81.5 177.9-182 177.9-100.5 0-182-79.6-182-177.9 0-98.2 81.5-177.9 182-177.9 100.5 0 182 79.7 182 177.9z"/>
					<path id="&lt;Path&gt;" class="s50" d="m790.4 828.7c0 98.2-81.5 177.9-182 177.9-100.6 0-182.1-79.7-182.1-177.9 0-98.3 81.5-178 182.1-178 100.5 0 182 79.7 182 178z"/>
					<path id="&lt;Path&gt;" class="s51" d="m789.3 828.5c0 98.3-81.4 177.9-182 177.9-100.5 0-182-79.6-182-177.9 0-98.3 81.5-177.9 182-177.9 100.6 0 182 79.6 182 177.9z"/>
					<path id="&lt;Path&gt;" class="s52" d="m788.3 828.3c0 98.3-81.5 177.9-182 177.9-100.5 0-182-79.6-182-177.9 0-98.2 81.5-177.9 182-177.9 100.5 0 182 79.7 182 177.9z"/>
				</g>
				<g id="&lt;Group&gt;">
					<path id="&lt;Path&gt;" class="s1" d="m780.1 828.3c0 98.3-79.7 177.9-177.9 177.9-98.3 0-177.9-79.6-177.9-177.9 0-98.2 79.6-177.9 177.9-177.9 98.2 0 177.9 79.7 177.9 177.9z"/>
					<path id="&lt;Path&gt;" class="s53" d="m790.9 828.3c0 98.3-79.7 177.9-177.9 177.9-98.3 0-178-79.6-178-177.9 0-98.2 79.7-177.9 178-177.9 98.2 0 177.9 79.7 177.9 177.9z"/>
				</g>
			</g>
			<g id="&lt;Group&gt;">
				<path id="&lt;Path&gt;" class="s54" d="m612.9 893.2l-26.9-31-27-31.1h27.7v-108.4h52.4v108.4h27.8l-27 31.1z"/>
				<path id="&lt;Path&gt;" class="s54" d="m707.5 880.4v22.7 31.3h-28.7-131.7-28.8v-31.3-22.7h28.8v22.7h131.7v-22.7z"/>
			</g>
		</g>
	</g>
</svg>