<svg version="1.2" xmlns="http://www.w3.org/2000/svg" viewBox="0 0 1224 1584" width="1224" height="1584">
	<title>ELOGIO-ai</title>
	<style>
		.s0 { fill: #fecb08 } 
		.s1 { fill: #ffffff } 
	</style>
	<g id="Layer 1">
		<g id="&lt;Group&gt;">
			<g id="&lt;Group&gt;">
				<path id="&lt;Path&gt;" class="s0" d="m926.4 1156.1h-194.1l-96.9 134.4c-14.6 20.3-42 19.8-56-1.1l-89.7-133.3h-192.1c-86.2 0-156-80.1-156-178.9v-376c0-98.8 69.8-178.8 156-178.8h628.8c86.2 0 156 80 156 178.8v376c0 98.8-69.8 178.9-156 178.9z"/>
			</g>
		</g>
		<g id="&lt;Group&gt;">
			<path id="&lt;Compound Path&gt;" class="s1" d="m464.7 661.8h-64.6v-78.5h63.2v18.3h-37.6v11.5h31.7v18.4h-31.7v12.1h39z"/>
			<path id="&lt;Compound Path&gt;" class="s1" d="m537.7 661.8h-60.4v-78.5h25.5v60.3h34.9z"/>
			<path id="&lt;Compound Path&gt;" fill-rule="evenodd" class="s1" d="m597.1 584.7q7.7 3.3 12.8 9.1 5 5.8 7.6 13.1 2.5 7.3 2.5 15.5 0 12.9-5.4 22.3-5.3 9.4-14.5 14.3-9.2 4.8-20.7 4.8-12.3 0-21.5-4.9-9.2-4.9-14.3-14.3-5.1-9.4-5.1-22.5 0-9.1 3-16.7 2.9-7.5 8.4-12.9 5.4-5.4 13-8.2 7.5-2.9 16.5-2.9 10 0 17.7 3.3zm-29.4 22.4q-3.6 6.5-3.6 15.3 0 9.2 3.4 15.8 3.4 6.7 11.9 6.7 5.2 0 8.7-2.9 3.5-2.9 5.1-7.9 1.6-5.1 1.6-11.7 0-5.7-1.6-10.7-1.7-5-5.2-8.1-3.5-3-8.9-3-7.9 0-11.4 6.5z"/>
			<path id="&lt;Compound Path&gt;" class="s1" d="m704.3 618.7v43.3h-16.3l-1.2-7.5q-3.1 4-7.9 6.3-6.2 3-15.3 3-7.7 0-14.4-2.5-6.8-2.5-12.2-7.5-5.3-5.1-8.3-12.7-2.9-7.6-2.9-17.5 0-9.2 2.8-17 2.8-7.8 8.2-13.5 5.3-5.6 12.9-8.6 7.5-3.1 16.9-3.1 9.4 0 17.2 3.3 7.8 3.3 12.9 9.8 5.1 6.5 6.5 15.8h-24q-1.4-4.6-4.8-7.1-3.4-2.6-8.2-2.6-7.4 0-11.1 6.1-3.8 6.1-3.8 16.8 0 6.1 1.5 10.8 1.5 4.8 5.1 7.7 3.7 2.9 9.8 2.9 5.9 0 10.2-4.5 2-2.1 2.5-4.8h-11.1v-16.9z"/>
			<path id="&lt;Compound Path&gt;" class="s1" d="m743.6 661.8h-25.5v-78.5h25.5z"/>
			<path id="&lt;Compound Path&gt;" fill-rule="evenodd" class="s1" d="m812.6 584.7q7.7 3.3 12.8 9.1 5 5.8 7.6 13.1 2.5 7.3 2.5 15.5 0 12.9-5.4 22.3-5.3 9.4-14.5 14.3-9.3 4.8-20.8 4.8-12.2 0-21.4-4.9-9.2-4.9-14.3-14.3-5.1-9.4-5.1-22.5 0-9.1 3-16.7 2.9-7.5 8.4-12.9 5.4-5.4 13-8.2 7.5-2.9 16.4-2.9 10.1 0 17.8 3.3zm-29.4 22.4q-3.6 6.5-3.6 15.3 0 9.2 3.4 15.8 3.4 6.7 11.8 6.7 5.3 0 8.8-2.9 3.5-2.9 5-7.9 1.7-5.1 1.7-11.7 0-5.7-1.7-10.7-1.6-5-5.1-8.1-3.5-3-8.9-3-7.9 0-11.4 6.5z"/>
		</g>
		<g id="&lt;Group&gt;">
			<g id="&lt;Group&gt;">
				<path id="&lt;Compound Path&gt;" fill-rule="evenodd" class="s1" d="m535.2 1056.2h-61.6c-3.3 0-6-2.7-6-6v-156.9c0-3.4 2.7-6.1 6-6.1h61.6c3.4 0 6 2.7 6 6.1v156.9c0 3.3-2.6 6-6 6zm-55.6-12.1h49.6v-144.8h-49.6z"/>
			</g>
			<path id="&lt;Path&gt;" class="s1" d="m760.2 952.7v0.4c0 13.6-8.9 25.2-21.1 29.2 3.2 4.4 5.1 9.7 5.1 15.5 0 14-10.5 25.2-23.9 26.3 2.6 4.1 4.2 8.9 4.2 14.1v1.2c0 14.3-11.7 26-26 26h-110.8c-1 0-23.9-0.2-47.5-14-2.1-1.3-4.5-2.6-7.7-4.2-3-1.5-4.2-5.1-2.7-8.1 1.6-3 5.2-4.2 8.1-2.7 3.5 1.8 6.1 3.2 8.5 4.6 20.6 12.1 41.1 12.3 41.3 12.3h110.8c7.7 0 13.9-6.2 13.9-13.9v-1.2c0-7.7-6.2-14-13.9-14-3.3 0-6-2.7-6-6 0-3.3 2.7-6 6-6h19.7c7.7 0 13.9-6.3 13.9-14 0-8.1-6.2-14.3-13.9-14.3-3.3 0-6-2.7-6-6.1 0-3.3 2.7-6 6-6h11.3c10.3 0 18.7-8.4 18.7-18.7v-0.4c0-10.4-8.4-18.8-18.7-18.8h-4c-3.3 0-6-2.7-6-6 0-3.3 2.7-6 6-6 10.3 0 18.7-8.4 18.7-18.7v-0.4c0-10.3-8.4-18.7-18.7-18.7h-80.3c-4 8.3-14.2 29-21 37.1-1.2 1.4-2.9 2.1-4.6 2.1-1.4 0-2.8-0.5-3.9-1.4-2.5-2.2-2.8-6-0.7-8.5 6.1-7.2 17-29.4 20.8-37.6 8.3-22 4.4-51.2 0-64.9-11.1-21.5-21.4-27.8-28.1-29.2-3.8-0.9-7.1-0.2-9.1 0.5 0.8 9.8 2.7 34.7 0.6 53.5q-0.2 1-0.6 2c-11.3 22.9-25 48.1-41.4 61.6-6.1 5-14.3 8.3-20.1 10.3-3.1 1-6.5-0.7-7.6-3.8-1-3.2 0.6-6.6 3.8-7.6 7-2.4 12.6-5.2 16.2-8.2 16.3-13.3 31.1-43 37.8-56.7 2.2-21.9-1.1-53.5-1.1-53.9-0.2-2 0.6-4.1 2.3-5.4 3.3-2.6 11.7-6.4 21.9-4.1 13.4 3 25.6 15.1 36.3 36q0.2 0.4 0.4 0.8c4.7 14 8.6 41.5 2.5 65.4h75.9c17 0 30.8 13.7 30.8 30.7v0.4c0 9.3-4.2 17.6-10.7 23.3 8.8 5.4 14.6 15.1 14.6 26.2z"/>
		</g>
	</g>
</svg>