<svg version="1.2" xmlns="http://www.w3.org/2000/svg" viewBox="0 0 1224 1584" width="1224" height="1584">
	<title>facebook (1)-ai</title>
	<style>
		.s0 { fill: #ffffff } 
	</style>
	<g id="Layer 1">
		<g id="&lt;Group&gt;">
			<path id="&lt;Compound Path&gt;" fill-rule="evenodd" class="s0" d="m853.9 819.2c0 146.7-119 265.7-265.8 265.7-146.8 0-265.8-119-265.8-265.7 0-146.8 119-265.8 265.8-265.8 146.8 0 265.8 119 265.8 265.8zm-24.2 0c0-133.5-108.2-241.7-241.6-241.7-133.4 0-241.6 108.2-241.6 241.7 0 133.4 108.2 241.6 241.6 241.6 133.4 0 241.6-108.2 241.6-241.6z"/>
			<path id="&lt;Path&gt;" class="s0" d="m541.2 978.5v-145.4h-48.9v-56.6h48.9v-41.8c0-48.5 29.6-74.9 72.9-74.9 20.7 0 38.5 1.5 43.7 2.2v50.7h-30c-23.5 0-28.1 11.2-28.1 27.6v36.2h56.1l-7.3 56.6h-48.8v145.4z"/>
		</g>
	</g>
</svg>