<svg version="1.2" xmlns="http://www.w3.org/2000/svg" viewBox="0 0 1224 1584" width="1224" height="1584">
	<title>flickr (1)-ai</title>
	<style>
		.s0 { fill: #ffffff } 
	</style>
	<g id="Layer 1">
		<g id="&lt;Group&gt;">
			<path id="&lt;Compound Path&gt;" fill-rule="evenodd" class="s0" d="m851.5 819c0 146.3-118.6 264.9-264.9 264.9-146.3 0-264.9-118.6-264.9-264.9 0-146.3 118.6-264.9 264.9-264.9 146.3 0 264.9 118.6 264.9 264.9zm-24.1 0c0-133-107.8-240.9-240.8-240.9-133 0-240.8 107.9-240.8 240.9 0 133 107.8 240.8 240.8 240.8 133 0 240.8-107.8 240.8-240.8z"/>
			<path id="&lt;Path&gt;" class="s0" d="m571.1 813.6c0 39.5-31.9 71.4-71.4 71.4-39.4 0-71.4-31.9-71.4-71.4 0-39.4 32-71.4 71.4-71.4 39.5 0 71.4 32 71.4 71.4z"/>
			<path id="&lt;Path&gt;" class="s0" d="m740.2 813.6c0 39.5-32 71.4-71.5 71.4-39.4 0-71.4-31.9-71.4-71.4 0-39.4 32-71.4 71.4-71.4 39.5 0 71.5 32 71.5 71.4z"/>
		</g>
	</g>
</svg>