<svg version="1.2" xmlns="http://www.w3.org/2000/svg" viewBox="0 0 1224 1584" width="1224" height="1584">
	<title>instagram (1)-ai</title>
	<style>
		.s0 { fill: #ffffff } 
	</style>
	<g id="Layer 1">
		<path id="&lt;Compound Path&gt;" fill-rule="evenodd" class="s0" d="m851.4 820c0 146.3-118.6 264.9-264.8 264.9-146.3 0-264.9-118.6-264.9-264.9 0-146.2 118.6-264.8 264.9-264.8 146.2 0 264.8 118.6 264.8 264.8zm-24 0c0-133-107.8-240.8-240.8-240.8-133 0-240.8 107.8-240.8 240.8 0 133 107.8 240.8 240.8 240.8 133 0 240.8-107.8 240.8-240.8zm-192.5-133.2c14 0.6 23.5 2.8 31.8 6.1 8.7 3.3 16 7.8 23.3 15.1 7.3 7.3 11.8 14.6 15.1 23.2 3.3 8.4 5.5 17.9 6.1 31.9 0.7 14 0.8 18.5 0.8 54.1 0 35.6-0.1 40.1-0.8 54.1-0.6 13.9-2.8 23.5-6.1 31.8-3.3 8.7-7.8 16-15.1 23.3-7.3 7.3-14.6 11.7-23.3 15.1-8.3 3.2-17.8 5.5-31.8 6.1-14 0.6-18.5 0.8-54.1 0.8-35.6 0-40.1-0.2-54.1-0.8-13.9-0.6-23.5-2.9-31.8-6.1-8.7-3.4-16-7.8-23.3-15.1-7.3-7.3-11.7-14.6-15.1-23.3-3.2-8.3-5.5-17.9-6.1-31.8-0.6-14-0.8-18.5-0.8-54.1 0-35.6 0.2-40.1 0.8-54.1 0.6-14 2.9-23.5 6.1-31.9 3.4-8.6 7.8-15.9 15.1-23.2 7.3-7.3 14.6-11.8 23.3-15.1 8.3-3.3 17.9-5.5 31.8-6.1 14-0.7 18.5-0.8 54.1-0.8 35.6 0 40.1 0.1 54.1 0.8zm-107.1 23.6c-12.8 0.6-19.7 2.7-24.4 4.5-6.1 2.4-10.5 5.2-15.1 9.8-4.5 4.6-7.4 9-9.8 15.1-1.8 4.6-3.9 11.6-4.5 24.4-0.6 13.8-0.8 18-0.8 53 0 35 0.2 39.2 0.8 53 0.6 12.8 2.7 19.7 4.5 24.4 2.4 6.1 5.3 10.4 9.8 15 4.6 4.6 9 7.5 15.1 9.9 4.7 1.8 11.6 3.9 24.4 4.5 13.8 0.6 18 0.7 53 0.7 35 0 39.2-0.1 53-0.7 12.8-0.6 19.8-2.7 24.4-4.5 6.1-2.4 10.5-5.3 15.1-9.9 4.6-4.6 7.4-8.9 9.8-15 1.8-4.7 3.9-11.6 4.5-24.4 0.6-13.8 0.8-18 0.8-53 0-35-0.2-39.2-0.8-53-0.6-12.8-2.7-19.8-4.5-24.4-2.4-6.1-5.2-10.5-9.8-15.1-4.6-4.6-9-7.4-15.1-9.8-4.6-1.8-11.6-3.9-24.4-4.5-13.8-0.6-18-0.8-53-0.8-35 0-39.2 0.2-53 0.8zm120.4 106.8c0 37.2-30.2 67.4-67.4 67.4-37.2 0-67.4-30.2-67.4-67.4 0-37.2 30.2-67.4 67.4-67.4 37.2 0 67.4 30.2 67.4 67.4zm-23.7 0c0-24.2-19.5-43.8-43.7-43.8-24.1 0-43.7 19.6-43.7 43.8 0 24.1 19.6 43.7 43.7 43.7 24.2 0 43.7-19.6 43.7-43.7zm26.3-54.3c-8.7 0-15.7-7.1-15.7-15.7 0-8.7 7-15.8 15.7-15.8 8.7 0 15.8 7.1 15.8 15.8 0 8.6-7.1 15.7-15.8 15.7z"/>
	</g>
</svg>