<svg version="1.2" xmlns="http://www.w3.org/2000/svg" viewBox="0 0 1224 1584" width="1224" height="1584">
	<title>lupa-ai</title>
	<style>
		.s0 { fill: #000000 } 
	</style>
	<g id="Layer 1">
		<g id="&lt;Group&gt;">
			<g id="&lt;Group&gt;">
				<g id="&lt;Group&gt;">
					<path id="&lt;Compound Path&gt;" fill-rule="evenodd" class="s0" d="m584.1 885.5c-93.5 0-169.6-76.1-169.6-169.6 0-93.5 76.1-169.6 169.6-169.6 93.6 0 169.7 76.1 169.7 169.6 0 93.5-76.1 169.6-169.7 169.6zm0-284.5c-63.4 0-114.9 51.5-114.9 114.9 0 63.4 51.5 115 114.9 115 63.4 0 115-51.6 115-115 0-63.4-51.6-114.9-115-114.9z"/>
				</g>
			</g>
			<g id="&lt;Group&gt;">
				<g id="&lt;Group&gt;">
					<path id="&lt;Path&gt;" class="s0" d="m815.3 974.4c-7 0-14-2.7-19.4-8l-130.5-130.6c-10.6-10.6-10.6-27.9 0-38.6 10.7-10.7 28-10.7 38.7 0l130.5 130.5c10.7 10.7 10.7 28 0 38.7-5.3 5.3-12.3 8-19.3 8z"/>
				</g>
			</g>
		</g>
	</g>
</svg>