<svg version="1.2" xmlns="http://www.w3.org/2000/svg" viewBox="0 0 1224 1584" width="1224" height="1584">
	<title>NORMASGERAIS-ai</title>
	<style>
		.s0 { fill: #000000 } 
		.s1 { fill: none } 
	</style>
	<g id="Layer 1">
		<g id="&lt;Group&gt;">
			<path id="&lt;Compound Path&gt;" fill-rule="evenodd" class="s0" d="m787.4 994.7h-307.9c-18.8 0-34.1-15.3-34.1-34.1v-20.8c0-18.9 15.3-34.2 34.1-34.2h307.9c3.6 0 6.6 3 6.6 6.6v75.9c0 3.7-3 6.6-6.6 6.6zm-307.9-75.8c-11.5 0-20.9 9.3-20.9 20.9v20.8c0 11.5 9.4 20.9 20.9 20.9h301.3v-62.6z"/>
			<path id="&lt;Path&gt;" class="s0" d="m505.2 994.7c-18.8 0-34.1-15.3-34.1-34.1v-20.8c0-18.9 15.3-34.2 34.1-34.2 3.7 0 6.6 3 6.6 6.6 0 3.7-2.9 6.7-6.6 6.7-11.5 0-20.9 9.3-20.9 20.9v20.8c0 11.5 9.4 20.9 20.9 20.9 3.7 0 6.6 3 6.6 6.6 0 3.7-2.9 6.6-6.6 6.6z"/>
			<path id="&lt;Path&gt;" class="s0" d="m452 956.8c-3.7 0-6.6-3-6.6-6.6v-305.1c0-24.5 20-44.5 44.5-44.5h297.5c3.6 0 6.6 2.9 6.6 6.6v305c0 3.7-3 6.7-6.6 6.7-3.7 0-6.6-3-6.6-6.7v-298.4h-290.9c-17.2 0-31.3 14.1-31.3 31.3v305.1c0 3.6-3 6.6-6.6 6.6z"/>
			<path id="&lt;Path&gt;" class="s0" d="m489.9 918.9c-3.6 0-6.6-3-6.6-6.7v-305c0-3.7 3-6.6 6.6-6.6 3.7 0 6.7 2.9 6.7 6.6v305c0 3.7-3 6.7-6.7 6.7z"/>
			<path id="&lt;Path&gt;" class="s0" d="m451 700.6c-24.1-0.5-42.9-14.5-42.9-31.8 0-17.8 19.4-31.8 44.2-31.8 24.8 0 44.3 14 44.3 31.8 0 3.7-3 6.6-6.7 6.6-3.6 0-6.6-2.9-6.6-6.6 0-10.1-14.2-18.6-31-18.6-16.8 0-31 8.5-31 18.6 0 9.7 13.7 18.2 29.9 18.6 3.6 0.1 6.5 3.1 6.4 6.8-0.1 3.6-3 6.4-6.6 6.4z"/>
			<path id="&lt;Path&gt;" class="s0" d="m451 770.4c-24.1-0.5-42.9-14.5-42.9-31.8 0-17.8 19.4-31.8 44.2-31.8 24.8 0 44.3 14 44.3 31.8 0 3.7-3 6.6-6.7 6.6-3.6 0-6.6-2.9-6.6-6.6 0-10.1-14.2-18.6-31-18.6-16.8 0-31 8.5-31 18.6 0 9.7 13.7 18.2 29.9 18.6 3.6 0.1 6.5 3.1 6.4 6.8-0.1 3.6-3 6.4-6.6 6.4z"/>
			<path id="&lt;Path&gt;" class="s0" d="m451 840.2c-24.1-0.5-42.9-14.5-42.9-31.8 0-17.8 19.4-31.8 44.2-31.8 24.8 0 44.3 14 44.3 31.8 0 3.7-3 6.6-6.7 6.6-3.6 0-6.6-2.9-6.6-6.6 0-10.1-14.2-18.6-31-18.6-16.8 0-31 8.5-31 18.6 0 9.7 13.7 18.2 29.9 18.6 3.6 0.1 6.5 3.1 6.4 6.7-0.1 3.7-3 6.5-6.6 6.5z"/>
			<path id="&lt;Path&gt;" class="s0" d="m451 910c-24.1-0.6-42.9-14.5-42.9-31.8 0-17.8 19.4-31.8 44.2-31.8 24.8 0 44.3 14 44.3 31.8 0 3.6-3 6.6-6.7 6.6-3.6 0-6.6-3-6.6-6.6 0-10.1-14.2-18.6-31-18.6-16.8 0-31 8.5-31 18.6 0 9.7 13.7 18.2 29.9 18.6 3.6 0.1 6.5 3.1 6.4 6.7-0.1 3.6-3 6.5-6.6 6.5z"/>
			<path id="&lt;Path&gt;" class="s0" d="m787.4 973.2h-256.6c-3.7 0-6.7-3-6.7-6.6 0-3.7 3-6.6 6.7-6.6h256.6c3.6 0 6.6 2.9 6.6 6.6 0 3.6-3 6.6-6.6 6.6z"/>
			<path id="&lt;Path&gt;" class="s0" d="m787.4 948.2h-199.4c-3.6 0-6.6-2.9-6.6-6.6 0-3.6 3-6.6 6.6-6.6h199.4c3.6 0 6.6 3 6.6 6.6 0 3.7-3 6.6-6.6 6.6z"/>
		</g>
		<g id="&lt;Group&gt;">
			<path id="&lt;Compound Path&gt;" fill-rule="evenodd" class="s1" d="m658.5 687.7c30.8 0 55.8 24.9 55.8 55.7 0 30.8-25 55.7-55.8 55.7-30.7 0-55.7-24.9-55.7-55.7 0-30.8 25-55.7 55.7-55.7zm26.4 76.3c0.9 0 1.7-0.3 2.4-0.8 1.6-1.3 1.9-3.7 0.6-5.3l-38.9-49c-1.3-1.6-3.7-1.9-5.3-0.6-1.7 1.3-1.9 3.7-0.6 5.3l38.9 49c0.7 0.9 1.8 1.4 2.9 1.4zm-58.2-34.1l39 49c0.7 0.9 1.8 1.4 2.9 1.4 0.8 0 1.7-0.2 2.4-0.8 1.6-1.3 1.9-3.7 0.6-5.3l-39-48.9c-1.2-1.7-3.6-1.9-5.2-0.7-1.7 1.3-1.9 3.7-0.7 5.3z"/>
			<path id="&lt;Path&gt;" class="s0" d="m545.7 838.1l0.8-0.8 20.3 20.3-0.5 0.5-5.4 5.4c-3.4 3.5-10.8 1.7-16.4-3.9-5.6-5.6-7.4-13-3.9-16.4l5-5.1z"/>
			<path id="&lt;Path&gt;" class="s0" d="m551.5 832.4l20.3 20.3-5 4.9-20.3-20.3 0.6-0.6z"/>
			<path id="&lt;Compound Path&gt;" fill-rule="evenodd" class="s0" d="m659.6 664.2c43.8 0 79.3 35.5 79.3 79.2 0 43.8-35.5 79.2-79.3 79.2-16.2 0-31.3-4.8-43.8-13.2l-44 43.3-20.3-20.3 43.7-43c-9.3-13-14.8-28.8-14.8-46 0-43.7 35.5-79.2 79.2-79.2zm-1.1 134.9c30.8 0 55.8-24.9 55.8-55.7 0-30.8-25-55.7-55.8-55.7-30.7 0-55.7 24.9-55.7 55.7 0 30.8 25 55.7 55.7 55.7z"/>
			<path id="&lt;Path&gt;" class="s0" d="m649 708.9l38.9 49c1.3 1.6 1 4-0.6 5.3-0.7 0.5-1.5 0.8-2.4 0.8-1.1 0-2.2-0.5-2.9-1.4l-38.9-49c-1.3-1.6-1.1-4 0.6-5.3 1.6-1.3 4-1 5.3 0.6z"/>
			<path id="&lt;Path&gt;" class="s0" d="m632.6 725.3l39 48.9c1.3 1.6 1 4-0.6 5.3-0.7 0.6-1.6 0.8-2.4 0.8-1.1 0-2.2-0.5-2.9-1.4l-39-49c-1.2-1.6-1-4 0.7-5.3 1.6-1.2 4-1 5.2 0.7z"/>
		</g>
	</g>
</svg>