<svg version="1.2" xmlns="http://www.w3.org/2000/svg" viewBox="0 0 2069 482" width="2069" height="482">
	<title>novacap logo original 73x17-ai</title>
	<style>
		.s0 { fill: #13007c } 
	</style>
	<g id="Layer 1">
		<g id="&lt;Group&gt;">
			<path id="&lt;Path&gt;" class="s0" d="m645.9 475.2l-7.6-17.5-8.7-15.2-9.9-14.2-8.7-13.1-10.9-10.9-9.8-9.9-12-7.6-11-7.7-12-6.5-12-4.4-13.1-4.3-13.1-3.3-13.1-2.2-14.2-1.1-14.2-1.1h-14.1v-15.3l8.7-5.4 20.7-15.3 13.1-9.8 15.3-14.2 16.4-15.3 16.4-18.6 16.3-20.7 15.3-25.1 7.7-13.1 7.6-13.1 6.6-15.3 6.5-15.3 6.6-16.3 5.4-17.5 4.4-17.5 4.3-18.5 3.3-19.7 3.3-20.7 1.1-20.8 1.1-21.8h18.5l1.1 26.2 3.3 26.2 4.4 25.1 5.4 25.1 7.7 22.9 8.7 24.1 9.8 21.8 12 21.8 12 20.8 14.2 20.7 16.4 19.7 16.4 18.5 18.5 18.6 19.7 17.4 19.6 16.4 21.9 16.4h-20.8l-26.2-18.6-26.2-20.7-12-10.9-13.1-13.1-12-13.1-10.9-14.2-12-15.3-10.9-17.5-10.9-18.5-9.9-19.7-9.8-21.8-8.7-24-8.8-26.2-6.5-28.4-9.8 31.6-8.8 31.7-5.4 15.3-6.6 16.4-7.6 15.2-7.7 15.3-8.7 15.3-10.9 16.4-12 15.3-13.1 16.3-15.3 15.3-17.5 16.4-19.6 16.4-21.8 16.3 16.3 2.2 16.4 3.3 14.2 3.3 14.2 4.3 14.2 5.5 12 6.6 12 7.6 10.9 7.6 10.9 8.8 9.9 9.8 8.7 10.9 8.7 12 7.7 12 7.6 13.1 5.5 13.1 6.5 15.3z"/>
			<path id="&lt;Path&gt;" class="s0" d="m949.4 337.7l-22.9-12-21.8-14.2-20.8-15.3-20.7-16.4-19.7-18.5-18.5-19.7-17.5-20.7-15.3-23-15.3-22.9-13.1-25.1-10.9-26.2-8.7-27.3-7.7-29.5-3.2-14.1-2.2-15.3-2.2-15.3-1.1-15.3h12l2.2 17.5 3.3 17.4 3.3 16.4 4.3 16.4 4.4 15.3 4.4 15.2 6.5 15.3 5.5 14.2 13.1 27.3 15.2 26.2 16.4 24 18.6 21.9 18.5 20.7 19.7 18.6 19.6 16.3 20.8 15.3 21.8 14.2 20.8 10.9 20.7 9.8 20.7 8.8h-27.3z"/>
			<path id="&lt;Path&gt;" class="s0" d="m899.2 336.6l-20.7-14.2-20.8-14.2-19.6-16.4-17.5-17.4-18.6-18.6-16.3-19.7-15.3-20.7-14.2-22.9-12-22.9-12-24.1-9.8-26.2-7.7-26.2-6.5-28.3-4.4-28.4-3.3-29.5h12l3.3 29.5 5.5 29.4 6.5 27.3 8.7 26.2 11 26.2 12 24.1 14.2 22.9 15.2 22.9 16.4 20.7 18.6 19.7 18.5 18.6 19.7 17.4 20.7 16.4 20.8 14.2 21.8 14.2 21.8 12h-26.2z"/>
			<path id="&lt;Path&gt;" class="s0" d="m853.4 334.4l-21.9-15.3-19.6-16.4-19.7-17.4-17.4-18.6-16.4-19.6-15.3-19.7-14.2-21.8-12-21.9-10.9-22.9-9.8-24-7.7-24-6.5-26.2-5.5-26.2-2.2-26.2-2.2-27.3h12.1l3.2 29.5 4.4 28.4 6.5 27.2 8.8 26.2 9.8 25.2 10.9 25.1 12 22.9 13.1 21.8 15.3 20.8 16.4 20.7 16.4 18.6 17.4 17.4 19.7 16.4 18.5 15.3 20.8 13.1 20.7 13.1h-22.9z"/>
			<path id="&lt;Path&gt;" class="s0" d="m296.6 416.3h192.2l9.8 1.1 9.8 1 8.7 3.3 8.8 3.3 7.6 3.3 6.6 5.4 6.5 4.4 6.6 5.5 8.7 9.8 7.6 9.8 5.5 7.6 3.3 4.4h-18.6l-4.4-5.4-5.4-6.6-6.6-7.6-7.6-6.6-8.7-6.5-11-4.4-13.1-4.4-14.1-1.1h-192.2z"/>
			<path id="&lt;Path&gt;" class="s0" d="m353.4 390.1h135.4l14.1 2.1 12.1 2.2 12 4.4 10.9 4.4 9.8 5.4 9.8 5.5 7.7 5.4 7.6 6.6 13.1 13.1 9.8 13.1 6.6 13.1 4.3 9.8h-16.3l-4.4-8.7-7.6-9.8-8.8-11-12-12-14.2-9.8-15.3-8.7-8.7-3.3-9.8-3.3-8.7-1.1-9.9-1.1h-137.5z"/>
			<path id="&lt;Path&gt;" class="s0" d="m415.6 366h86.3l15.2 2.2 15.3 4.4 14.2 4.4 12 6.5 12 7.7 10.9 7.6 9.9 8.7 8.7 8.8 7.6 8.7 6.6 8.7 6.5 8.8 4.4 8.7 6.6 14.2 3.2 9.8h-15.3l-5.4-10.9-7.7-14.2-12-15.3-14.1-15.3-7.7-7.6-8.7-6.6-9.9-6.5-9.8-5.5-9.8-4.3-10.9-4.4-10.9-2.2-10.9-1.1h-86.3z"/>
			<path id="&lt;Compound Path&gt;" fill-rule="evenodd" class="s0" d="m1735.9 347.5v-123.1h39.9q22.6 0 29.5 1.9 10.6 2.8 17.8 12 7.1 9.3 7.1 24 0 11.3-4.1 19c-2.8 5.2-6.2 9.2-10.5 12.2q-6.3 4.4-12.9 5.8-8.8 1.8-25.7 1.8h-16.2v46.4zm24.8-102.2v34.9h13.6q14.7 0 19.7-2 4.9-1.9 7.7-6 2.8-4.1 2.8-9.6 0-6.7-3.9-11.1c-2.6-2.9-6-4.7-10-5.4q-4.5-0.8-17.9-0.8zm-38 102.2h-27l-10.8-28h-49.2l-10.1 28h-26.4l48-123.1h26.2zm-45.7-48.6l-17-45.7-16.6 45.7zm-110.6 3.4l24 7.6q-5.5 20.2-18.4 30c-8.5 6.5-19.5 9.7-32.7 9.7q-24.5 0-40.2-16.7-15.8-16.8-15.8-45.8 0-30.7 15.8-47.7 15.9-17 41.8-17 22.5 0 36.6 13.3c5.6 5.3 9.8 12.9 12.6 22.7l-24.6 5.9q-2.1-9.6-9.1-15.1-6.9-5.6-16.8-5.6c-9.1 0-16.5 3.3-22.2 9.9q-8.5 9.8-8.5 31.8 0 23.3 8.4 33.2 8.4 9.9 21.8 9.9 9.9 0 17-6.3 7.2-6.3 10.3-19.8zm-91.9 45.2h-27.1l-10.7-27.9h-49.2l-10.1 27.9h-26.4l47.9-123h26.3zm-45.8-48.7l-16.9-45.7-16.6 45.7zm-135.8 48.7l-43.9-123.1h26.9l31.1 91.1 30.2-91.1h26.3l-44 123.1zm-170.2-60.8q0-18.8 5.7-31.5 4.2-9.4 11.4-16.9 7.3-7.5 15.9-11.1c7.7-3.2 16.5-4.9 26.5-4.9q27.2 0 43.6 16.9 16.3 16.9 16.3 46.9c0 19.9-5.4 35.4-16.2 46.7q-16.2 16.8-43.3 16.8-27.5 0-43.7-16.8-16.2-16.7-16.2-46.1zm25.6-0.8c0 13.9 3.3 24.5 9.7 31.7q9.6 10.8 24.5 10.7 14.8 0.1 24.4-10.7 9.5-10.7 9.5-32.1 0-21.1-9.3-31.5-9.2-10.4-24.6-10.4-15.4 0-24.8 10.5c-6.2 7-9.4 17.6-9.4 31.8zm-144.4 61.6v-123.1h24.2l50.3 82.2v-82.2h23.1v123.1h-24.9l-49.6-80.3v80.3z"/>
		</g>
	</g>
</svg>