<svg version="1.2" xmlns="http://www.w3.org/2000/svg" viewBox="0 0 1224 1584" width="1224" height="1584">
	<title>OUVIDORIA-ai</title>
	<style>
		.s0 { fill: #1e8bfe } 
		.s1 { fill: #ffffff } 
		.s2 { fill: #ffde00 } 
		.s3 { fill: #000a67 } 
	</style>
	<g id="Layer 1">
		<g id="&lt;Group&gt;">
			<g id="&lt;Group&gt;">
				<path id="&lt;Path&gt;" class="s0" d="m1061 804.4q0 81.5 0 163c-13 41.9-20.7 47.8-66.2 48.1-92.8 0.5-185.6 0.5-278.4-0.1-24.4-0.1-46 3.9-62.9 23-9.2 10.3-22.8 12.4-34.8 17.4q-7 0-14 0c-14.8-6.7-28.8-14.6-40.5-26.4-12.5-12.5-28.8-13.7-45.4-13.7-83.5-0.1-167.1 0-250.7 0-11.6 0-23.2 0-34.8-0.2-45.6-0.6-53.2-6.2-66.3-48.1q0-81.5 0-163 3.9-33.4 37.3-37.2 409.7 0 819.4 0 33.4 3.8 37.3 37.2z"/>
			</g>
			<g id="&lt;Group&gt;">
				<path id="&lt;Compound Path&gt;" fill-rule="evenodd" class="s1" d="m291.8 885.1q0.1-22.7 12.6-37.4 12.5-14.8 35.1-15 22.8 0.2 35.1 15 12.4 14.7 12.5 37.4-0.1 22-12.5 36.5-12.3 14.9-35.1 15.1-22.6-0.2-35.1-15.1-12.5-14.5-12.6-36.5zm21.9 0q-0.2 12.8 5.9 22.9 6.1 10.1 19.9 10.4 14.1-0.3 20-10.4 5.7-10.1 5.7-22.9 0-13.6-5.7-23.6-5.9-10.2-20-10.5-13.8 0.3-19.9 10.5-6.1 10-5.9 23.6z"/>
				<path id="&lt;Compound Path&gt;" class="s1" d="m467.9 934.4h-18.3v-10h-0.4q-3.7 6-9.2 8.9-5.8 3-12 3-14.9-0.1-20.3-8.2-5.3-7.9-5.2-21.5v-44.2h19.2v40.7q-0.3 17.7 12.2 17.7 15 0.5 14.8-20.6v-37.8h19.2z"/>
				<path id="&lt;Compound Path&gt;" class="s1" d="m523.5 934.4h-21.2l-23.9-72h20.1l14.7 49.2h0.3l14.6-49.2h19z"/>
				<path id="&lt;Compound Path&gt;" class="s1" d="m577 851.3h-19.1v-16.3h19.1zm-19.1 11.1h19.1v72h-19.1z"/>
				<path id="&lt;Compound Path&gt;" fill-rule="evenodd" class="s1" d="m644.8 925.2h-0.3q-3.5 5.8-9.2 8.5-5.7 2.6-12.6 2.6-16.3-0.2-24.3-11.9-8-11.3-8-26.7 0-15.1 8-26 8-10.9 23.8-11.2 6.6 0 12.3 2.6 5.6 2.7 9 8.1h0.3v-36.2h19.8v99.4h-18.8zm-0.3-27q0-9.1-3.6-15.9-3.9-6.8-13.4-6.9-9.4 0.1-13.5 6.9-4 6.7-3.9 16 0 8.8 4.2 15.6 4.2 7.4 13.2 7.5 9.8-0.1 13.5-7.2 3.5-6.8 3.5-16z"/>
				<path id="&lt;Compound Path&gt;" fill-rule="evenodd" class="s1" d="m676 898.6q0.1-17.4 10-27.6 9.4-10.1 26-10.2 16.8 0.1 26.4 10.2 9.6 10.2 9.7 27.6-0.1 17.4-9.7 27.3-9.6 10.3-26.4 10.4-16.6-0.1-26-10.4-9.9-9.9-10-27.3zm19.1 0q-0.1 8.9 3.7 15.7 3.6 7.1 13.2 7.2 9.8-0.1 13.4-7.2 3.6-6.8 3.6-15.7 0-9.2-3.6-16-3.6-6.9-13.4-7-9.6 0.1-13.2 7-3.8 6.8-3.7 16z"/>
				<path id="&lt;Compound Path&gt;" class="s1" d="m763.2 862.4h18.1v13.4h0.3q2.8-7.1 9-11.1 6.1-3.8 13.3-3.9 2.1 0 4.2 0.7v18.3q-3.1-0.7-6.9-0.7-10.4 0.2-14.7 6.7-4.3 6.4-4.2 16.3v32.3h-19.1z"/>
				<path id="&lt;Compound Path&gt;" class="s1" d="m837 851.3h-19.2v-16.3h19.2zm-19.2 11.1h19.2v72h-19.2z"/>
				<path id="&lt;Compound Path&gt;" fill-rule="evenodd" class="s1" d="m852.3 884.8q1.4-13.8 11.1-19.1 9.6-5 21.7-4.9 5.4 0 10.8 0.5 5.4 0.8 9.8 3.1 4.6 2.2 7.3 6.2 2.7 4.1 2.7 10.6v37.2q0 4.9 0.7 9.2 0.5 4.4 1.8 6.8h-19.5q-1.1-3.4-1.4-7-4.5 4.7-10.8 6.8-6 2.1-12.6 2.1-10.2 0-16.7-5.4-6.9-5.2-7-16.2 0-6.2 2.1-10.1 1.9-4.1 5.3-6.2 3.4-2.6 7.7-3.7 4.1-1.2 8.6-1.8 4.6-0.8 8.6-1.4 4-0.4 7.2-1.1 6.7-1.2 6.9-6.9-0.2-6.1-3.7-8-3.5-1.5-8.7-1.5-11.3-0.2-12.7 10.7zm44.2 14.4q-2.6 2-6.8 2.7-4.5 0.7-9.1 1.5-4.6 0.7-7.8 2.9-3.5 2.4-3.5 7.7 0.1 5.3 3.7 7.2 3.3 2 8 2 5.6 0 8.9-2.1 3.3-1.8 4.6-4.6 1.4-2.8 1.8-5.6 0.2-2.8 0.2-4.3z"/>
			</g>
			<path id="&lt;Path&gt;" class="s2" d="m850.4 767.2h-481.3v-100h481.3z"/>
			<g id="&lt;Group&gt;">
				<path id="&lt;Compound Path&gt;" class="s3" d="m477.5 713.6l-0.1 0.2 1.2 33.4h-13.3v-60h14.5l10.8 33.5h0.3l-1.4-33.5h13.3v60h-14.3z"/>
				<path id="&lt;Compound Path&gt;" fill-rule="evenodd" class="s3" d="m547.6 728.1c0 13.5-4.7 20.5-19 20.5-14.2 0-19.1-7-19.1-20.5v-24.4c0-11.5 6.8-17.9 19.1-17.9 12.3 0 19 6.4 19 17.9zm-14.1-23.4c0-3.7-0.3-8.1-4.9-8.1-4.5 0-5.1 4.4-5.1 8.1v24.6c0 3.4 0.6 8.5 5.1 8.5 4.6 0 4.9-5.1 4.9-8.5z"/>
				<path id="&lt;Compound Path&gt;" class="s3" d="m564.6 747.2l-13-60h14l7.2 42.1h0.2l7.2-42.1h14l-13.1 60z"/>
				<path id="&lt;Compound Path&gt;" fill-rule="evenodd" class="s3" d="m592.9 747.2l13.1-60h16.9l13 60h-14.2l-2-11.7h-11l-1.7 11.7zm21.6-49.1h-0.2l-4.1 26.9h8.2z"/>
				<path id="&lt;Compound Path&gt;" class="s3" d="m663.6 708.2v-3.9c0-5.1-1.8-7.7-4.4-7.7-4.4-0.1-5.5 2.3-5.5 6.2v29.7c0 3.3 1.3 5.3 5 5.3 4.8 0 5.2-4.9 5.2-8.6v-5.4h14v7.3c0 10.3-5.9 17.5-20.2 17.5-13 0-18-6.9-18-19.1v-24.6c0-13 6-19.1 18.8-19.1 12 0 19.2 5.1 19.2 17.3v5.1z"/>
				<path id="&lt;Compound Path&gt;" fill-rule="evenodd" class="s3" d="m681.7 747.2l13.1-60h16.9l13.1 60h-14.3l-2-11.7h-11l-1.7 11.7zm21.6-49.1h-0.2l-4 26.9h8.1z"/>
				<path id="&lt;Compound Path&gt;" fill-rule="evenodd" class="s3" d="m729.6 747.2v-60h16.7c5.4 0 13.3 0.5 17.2 5 3.3 3.7 3.9 8.1 3.9 13 0 6.5-1.5 13.8-7.9 16.7-4.9 2.4-10.5 1.7-15.8 1.9v23.4zm14-34.1c2.7-0.1 5.7 0.2 8-1.6 1.4-1.6 1.7-4 1.7-6 0-2.4-0.2-5.9-2.6-7-1.4-0.5-3.3-0.5-5.5-0.5h-1.6z"/>
			</g>
		</g>
	</g>
</svg>