<svg version="1.2" xmlns="http://www.w3.org/2000/svg" viewBox="0 0 1224 1584" width="1224" height="1584">
	<title>RECLAMAÇÃO-ai</title>
	<style>
		.s0 { fill: #fecb08 } 
		.s1 { fill: #ffffff } 
	</style>
	<g id="Layer 1">
		<g id="&lt;Group&gt;">
			<g id="&lt;Group&gt;">
				<path id="&lt;Path&gt;" class="s0" d="m926.4 1156.1h-194.1l-96.9 134.4c-14.6 20.3-42 19.8-56-1.1l-89.7-133.3h-192.1c-86.2 0-156-80.1-156-178.9v-376c0-98.8 69.8-178.8 156-178.8h628.8c86.2 0 156 80 156 178.8v376c0 98.8-69.8 178.9-156 178.9z"/>
			</g>
		</g>
		<g id="&lt;Group&gt;">
			<g id="&lt;Group&gt;">
				<path id="&lt;Compound Path&gt;" fill-rule="evenodd" class="s1" d="m692.5 778.4h61.7c3.3 0 6 2.7 6 6v156.9c0 3.3-2.7 6-6 6h-61.7c-3.3 0-6-2.7-6-6v-156.9c0-3.3 2.7-6 6-6zm55.7 12h-49.6v144.9h49.6z"/>
			</g>
			<path id="&lt;Path&gt;" class="s1" d="m467.6 881.9v-0.5c0-13.6 8.9-25.1 21.1-29.2-3.2-4.3-5.1-9.7-5.1-15.5 0-14 10.5-25.2 23.8-26.3-2.6-4-4.1-8.8-4.1-14v-1.2c0-14.3 11.7-26 26-26h110.8c1 0 23.9 0.2 47.4 14 2.2 1.2 4.6 2.6 7.8 4.2 2.9 1.5 4.1 5.1 2.6 8.1-1.5 2.9-5.1 4.1-8.1 2.6-3.4-1.7-6.1-3.2-8.4-4.5-20.6-12.2-41.1-12.3-41.3-12.3h-110.8c-7.7 0-13.9 6.2-13.9 13.9v1.2c0 7.7 6.2 13.9 13.9 13.9 3.3 0 6 2.7 6 6.1 0 3.3-2.7 6-6 6h-19.7c-7.7 0-14 6.2-14 13.9 0 8.1 6.3 14.4 14 14.4 3.3 0 6 2.7 6 6 0 3.4-2.7 6.1-6 6.1h-11.3c-10.3 0-18.7 8.3-18.7 18.6v0.5c0 10.3 8.4 18.7 18.7 18.7h3.9c3.4 0 6 2.7 6 6 0 3.4-2.6 6.1-6 6.1-10.3 0-18.6 8.3-18.6 18.6v0.5c0 10.3 8.3 18.7 18.6 18.7h80.4c3.9-8.4 14.1-29.1 21-37.1 1.2-1.4 2.9-2.1 4.6-2.1 1.3 0 2.7 0.4 3.9 1.4 2.5 2.2 2.8 6 0.6 8.5-6 7.2-16.9 29.3-20.7 37.6-8.3 22-4.5 51.2 0 64.8 11.1 21.5 21.4 27.8 28 29.3 3.9 0.9 7.1 0.2 9.2-0.6-0.9-9.7-2.7-34.7-0.6-53.4q0.1-1.1 0.6-2c11.2-22.9 24.9-48.2 41.4-61.7 6-4.9 14.2-8.3 20-10.2 3.2-1.1 6.6 0.6 7.7 3.8 1 3.1-0.7 6.6-3.8 7.6-7 2.3-12.6 5.2-16.2 8.2-16.3 13.3-31.1 43-37.8 56.6-2.3 22 1.1 53.6 1.1 53.9 0.2 2.1-0.7 4.1-2.3 5.4-3.4 2.6-11.7 6.4-21.9 4.2-13.4-3-25.6-15.1-36.4-36q-0.2-0.4-0.3-0.8c-4.7-14-8.7-41.6-2.5-65.4h-76c-16.9 0-30.7-13.8-30.7-30.7v-0.5c0-9.2 4.1-17.6 10.7-23.2-8.8-5.4-14.6-15.1-14.6-26.2z"/>
		</g>
		<g id="&lt;Group&gt;">
			<path id="&lt;Compound Path&gt;" fill-rule="evenodd" class="s1" d="m244.1 636.5h-7.7v27.3h-25.2v-78.6h36.6q12.8 0 20.4 2.5 7.5 2.4 10.8 7.4 3.3 5 3.3 12.7 0 4.5-1.4 8.5-1.5 3.9-4.5 6.7-3 2.8-7.4 4 5.2 1.9 7.7 3.5 2.6 1.7 4.1 5.7 1.5 3.9 1.5 11.5 0 6 0.1 8.6 0.1 2.6 0.7 3.9 0.6 1.3 1.9 1.3v2.3h-25.9q-1.3-3.5-1.3-13.8 0-5.6-0.9-8.3-0.9-2.7-3.8-4-2.9-1.2-9-1.2zm-7.7-32.9v15.8h10.3q5.9 0 8.9-1.8 3.1-1.7 3.1-5.7 0-4-2.9-6.1-2.9-2.2-7.5-2.2z"/>
			<path id="&lt;Compound Path&gt;" class="s1" d="m360.4 663.8h-64.6v-78.6h63.2v18.4h-37.6v11.5h31.7v18.4h-31.7v12.1h39z"/>
			<path id="&lt;Compound Path&gt;" class="s1" d="m420.6 615.5q-0.5-6.2-4.2-9.6-3.6-3.4-9.6-3.4-6.7 0-10.5 5.9-3.8 5.8-3.8 17.1 0 9.7 3.3 15.5 3.2 5.8 12.2 5.8 5.8 0.1 8.9-3.6 3.2-3.7 3.9-9.5h24.5q-1 9.8-5.9 17.1-4.9 7.3-12.9 11.2-8.1 3.8-18.2 3.8-9.5 0-17.2-2.8-7.6-2.9-12.9-8.3-5.5-5.4-8.3-13-2.8-7.6-2.8-16.9 0-9.4 3-17.1 2.9-7.7 8.2-13.2 5.3-5.4 12.3-8.2 6.9-2.9 15.1-2.9 11.7 0 20.1 3.7 8.5 3.8 13.3 11 4.7 7.2 5.6 17.4z"/>
			<path id="&lt;Compound Path&gt;" class="s1" d="m515.8 663.8h-60.4v-78.6h25.5v60.4h34.9z"/>
			<path id="&lt;Compound Path&gt;" fill-rule="evenodd" class="s1" d="m543.5 663.8h-25l27.9-78.6h25.8l27.8 78.6h-25.3l-2.9-10.2h-25.4zm23.7-26.7l-8.1-28-7.7 28z"/>
			<path id="&lt;Compound Path&gt;" class="s1" d="m628.5 663.8h-22.8v-78.6h30.5l14 49.2 13.4-49.2h30.8v78.6h-22.8v-24.1l0.2-12.1 1.4-14.2h-0.2l-14 50.4h-17.7l-14.3-50.4h-0.2l1.1 11.8 0.6 12z"/>
			<path id="&lt;Compound Path&gt;" fill-rule="evenodd" class="s1" d="m725.1 663.8h-25l27.9-78.6h25.9l27.8 78.6h-25.3l-3-10.2h-25.4zm23.7-26.7l-8-28-7.7 28z"/>
			<path id="&lt;Compound Path&gt;" class="s1" d="m837.3 615.5q-0.5-6.2-4.1-9.6-3.7-3.4-9.6-3.4-6.7 0-10.5 5.9-3.8 5.8-3.8 17.1 0 9.7 3.2 15.5 3.2 5.8 12.2 5.8 5.8 0.1 9-3.6 3.1-3.7 3.8-9.5h24.6q-1.1 9.8-6 17.1-4.9 7.3-12.9 11.2-8 3.8-18.2 3.8-9.5 0-17.1-2.8-7.6-2.9-13-8.3-5.4-5.4-8.2-13-2.8-7.6-2.8-16.9 0-9.4 2.9-17.1 3-7.7 8.3-13.2 5.2-5.4 12.2-8.2 7-2.9 15.1-2.9 11.8 0 20.2 3.7 8.5 3.8 13.2 11 4.7 7.2 5.6 17.4zm-26.4 65.5q0.9 0.2 2.9 0.8 2.1 0.7 3.5 1 1.5 0.4 2.9 0.4 2.5 0 4.1-1.3 1.4-1 1.4-2.6 0-1.6-1.4-2.8-1.3-1.2-3.4-1.2-2 0-4.2 1.1l-2.6-2.5 5.8-10.1h6.2l-4.1 7q1.5-0.7 3.6-0.7 2.6 0 5 1 2.6 1.1 4.2 3.1 1.6 1.9 1.6 4.4 0 1-0.3 2-2.4 8.3-13.4 8.3-7.1 0-14.3-2.9z"/>
			<path id="&lt;Compound Path&gt;" fill-rule="evenodd" class="s1" d="m864.9 663.8l19.9-55.6 8-23h25.8l19.9 56.1 8 22.5h-25.3l-3-10.2h-25.4l-2.9 10.2zm62.3-100.6q-0.8 6.3-4.2 10.3-3.4 4-9.4 4-2.1 0-7.3-1.8-5.2-1.7-7.4-1.7-4.2 0-5.5 4.3h-8.6q0.8-6.2 4.3-10.8 3.4-4.5 9.2-4.5 2.3 0 4.1 0.4 1.8 0.5 4.6 1.6 2.8 1 4.7 1.6 1.2 0.3 2.2 0.3 2 0 3.2-1.1 1.3-1.1 1.5-2.6zm-21.7 45.9l-7.7 28.1h15.8z"/>
			<path id="&lt;Compound Path&gt;" fill-rule="evenodd" class="s1" d="m1008.2 586.7q7.7 3.3 12.8 9.1 5 5.8 7.6 13.1 2.5 7.3 2.5 15.4 0 13-5.4 22.4-5.3 9.4-14.5 14.2-9.2 4.9-20.7 4.9-12.3 0-21.5-4.9-9.2-4.9-14.3-14.3-5.1-9.4-5.1-22.5 0-9.2 3-16.7 2.9-7.5 8.4-12.9 5.4-5.4 13-8.2 7.5-2.9 16.5-2.9 10 0 17.7 3.3zm-29.4 22.4q-3.6 6.5-3.6 15.2 0 9.3 3.4 15.9 3.4 6.6 11.9 6.6 5.2 0.1 8.7-2.8 3.5-2.9 5.1-7.9 1.6-5.1 1.6-11.8 0-5.6-1.6-10.6-1.7-5-5.2-8.1-3.5-3.1-8.9-3.1-7.9 0-11.4 6.6z"/>
		</g>
	</g>
</svg>