<svg version="1.2" xmlns="http://www.w3.org/2000/svg" viewBox="0 0 1224 1584" width="1224" height="1584">
	<title>SECULLUMPONTOELETRONICO-ai</title>
	<style>
		.s0 { fill: none;stroke: #000000;stroke-width: 12 } 
		.s1 { fill: #000000 } 
	</style>
	<g id="Layer 1">
		<g id="&lt;Group&gt;">
			<path id="&lt;Path&gt;" class="s0" d="m755.1 776.7c0 79.2-64.3 143.5-143.5 143.5-79.2 0-143.4-64.3-143.4-143.5 0-79.2 64.2-143.4 143.4-143.4 79.2 0 143.5 64.2 143.5 143.4z"/>
			<path id="&lt;Path&gt;" class="s0" d="m804.2 776.7c0 106.4-86.2 192.6-192.6 192.6-106.3 0-192.6-86.2-192.6-192.6 0-106.3 86.3-192.6 192.6-192.6 106.4 0 192.6 86.3 192.6 192.6z"/>
			<path id="&lt;Path&gt;" class="s1" d="m636.8 776.7c0 14-11.3 25.2-25.2 25.2-13.9 0-25.2-11.2-25.2-25.2 0-13.9 11.3-25.2 25.2-25.2 13.9 0 25.2 11.3 25.2 25.2z"/>
			<path id="&lt;Path&gt;" class="s0" d="m676.9 855.6l-64.9-79.4v-96.2"/>
		</g>
	</g>
</svg>