<svg version="1.2" xmlns="http://www.w3.org/2000/svg" viewBox="0 0 1224 1584" width="1224" height="1584">
	<title>SISTEMAINTEGRADO-ai</title>
	<style>
		.s0 { fill: #515151 } 
		.s1 { fill: #ffffff;stroke: #1a1a1a;stroke-width: 13.1 } 
		.s2 { fill: #ffffff;stroke: #1a1a1a;stroke-linecap: square;stroke-linejoin: bevel;stroke-width: 13.1 } 
		.s3 { fill: #ffffff;stroke: #ffffff;stroke-linecap: round;stroke-linejoin: round;stroke-width: 13.1 } 
		.s4 { fill: #5c8cc6 } 
	</style>
	<g id="Layer 1">
		<g id="&lt;Group&gt;">
			<path id="&lt;Path&gt;" class="s0" d="m501.4 753.1c0 104.3-84.6 188.9-188.9 188.9-104.4 0-189-84.6-189-188.9 0-104.4 84.6-189 189-189 104.3 0 188.9 84.6 188.9 189z"/>
			<g id="&lt;Group&gt;">
				<g id="&lt;Group&gt;">
					<g id="&lt;Group&gt;">
						<path id="&lt;Path&gt;" class="s1" d="m368.2 883.6h-110.7v-9.8h110.7z"/>
						<path id="&lt;Path&gt;" class="s1" d="m351.3 873.8h-76.8v-8.2h76.8z"/>
					</g>
					<path id="&lt;Path&gt;" class="s1" d="m312.9 865.6v-179.2"/>
					<path id="&lt;Path&gt;" class="s1" d="m232.8 686.4h160.1"/>
					<g id="&lt;Group&gt;">
						<g id="&lt;Group&gt;">
							<path id="&lt;Path&gt;" class="s2" d="m376.7 688.3l27 83.7h-27-27z"/>
							<path id="&lt;Path&gt;" class="s2" d="m413.5 772c-0.5 19.9-16.8 35.9-36.8 35.9-20 0-36.3-16-36.8-35.9z"/>
						</g>
						<g id="&lt;Group&gt;">
							<path id="&lt;Path&gt;" class="s2" d="m249 688.3l27.1 83.7h-27.1-27z"/>
							<path id="&lt;Path&gt;" class="s2" d="m285.8 772c-0.5 19.9-16.8 35.9-36.8 35.9-20 0-36.3-16-36.8-35.9z"/>
						</g>
					</g>
					<path id="&lt;Path&gt;" class="s2" d="m318.6 686.6c0 3.2-2.6 5.8-5.7 5.8-3.2 0-5.8-2.6-5.8-5.8 0-3.2 2.6-5.7 5.8-5.7 3.1 0 5.7 2.5 5.7 5.7z"/>
					<path id="&lt;Path&gt;" class="s2" d="m234.9 686.6c0 2.2-1.8 3.9-4 3.9-2.1 0-3.9-1.7-3.9-3.9 0-2.1 1.8-3.9 3.9-3.9 2.2 0 4 1.8 4 3.9z"/>
					<path id="&lt;Path&gt;" class="s2" d="m396.8 686.6c0 2.2-1.7 3.9-3.9 3.9-2.1 0-3.9-1.7-3.9-3.9 0-2.1 1.8-3.9 3.9-3.9 2.2 0 3.9 1.8 3.9 3.9z"/>
				</g>
				<g id="&lt;Group&gt;">
					<path id="&lt;Path&gt;" class="s3" d="m313.7 632l0.2-12.7"/>
				</g>
				<g id="&lt;Group&gt;">
					<path id="&lt;Path&gt;" class="s3" d="m266 650.8l-8.8-9.1"/>
				</g>
				<g id="&lt;Group&gt;">
					<path id="&lt;Path&gt;" class="s3" d="m360.8 652.5l9.1-8.8"/>
				</g>
				<g id="&lt;Group&gt;">
					<path id="&lt;Path&gt;" class="s3" d="m287.5 636.8l-4.7-11.7"/>
				</g>
				<g id="&lt;Group&gt;">
					<path id="&lt;Path&gt;" class="s3" d="m374.7 674.1l11.8-4.8"/>
				</g>
				<g id="&lt;Group&gt;">
					<path id="&lt;Path&gt;" class="s3" d="m250.9 672.7l-11.7-5"/>
				</g>
				<g id="&lt;Group&gt;">
					<path id="&lt;Path&gt;" class="s3" d="m338.9 637.4l4.9-11.3"/>
				</g>
			</g>
		</g>
		<g id="&lt;Group&gt;">
			<path id="&lt;Compound Path&gt;" class="s4" d="m557.3 680v4.7c0 3.9 1.2 7.3 6.3 7.3 3.7 0 5.3-3.3 5.3-6.7 0-5.7-4.7-7.8-8.8-10.4-4.9-2.8-9-5.4-12-8.8-2.9-3.4-4.6-7.5-4.6-13.5 0-12.7 7.7-19.1 19.9-19.1 13.8 0 20.8 9.1 20.1 21.8h-14.6c-0.2-3.9 0-9.3-5.2-9.7-3.3-0.3-5.2 1.5-5.5 4.5-0.5 4 1.6 6.1 4.8 8.3 5.9 3.8 11 6.1 14.7 9.5 3.7 3.4 5.9 7.9 5.9 16.1 0 13-7.2 20.2-20.4 20.2-14.5 0-20.6-8.1-20.6-17v-7.2z"/>
			<path id="&lt;Compound Path&gt;" class="s4" d="m590.8 702.6v-67.5h15.8v67.5z"/>
			<path id="&lt;Compound Path&gt;" class="s4" d="m628.8 664.8l-0.1 0.1 1.4 37.7h-15v-67.5h16.3l12.2 37.7h0.3l-1.6-37.7h15.1v67.5h-16.2z"/>
			<path id="&lt;Compound Path&gt;" class="s4" d="m674.6 680.1v8.5c0 2.5 1 3.5 3.2 3.4 2.3-0.1 3.1-0.5 3.1-2.4v-54.5h15.9v46.9c0 4.8 0.3 10-2.1 14.5-3.3 6.2-9.3 7.7-16.1 7.7-7.5 0-14.1-3.6-16-11.2-0.8-3-0.7-6.1-0.7-9.1v-3.8z"/>
			<path id="&lt;Compound Path&gt;" class="s4" d="m705.1 681.2v-13.5h22.3v13.5z"/>
			<path id="&lt;Compound Path&gt;" fill-rule="evenodd" class="s4" d="m735.3 702.6v-67.5h17.2c5.8 0 12.7 0.1 17.8 3.1 6.1 3.6 7.1 10.2 7.1 16.7v29.9c-0.1 6.8-2.1 11.7-6.7 14.6-4.2 2.7-9.2 3.2-14.1 3.2zm15.9-12.2c10.6 0.7 10.7-3.6 10.4-12.6v-22c-0.1-8-2.7-8.4-10.4-8.6z"/>
			<path id="&lt;Compound Path&gt;" class="s4" d="m785.6 702.6v-67.5h37.3v13.5h-21.4v11.9h19.7v13.5h-19.7v28.6z"/>
		</g>
		<g id="&lt;Group&gt;">
			<path id="&lt;Compound Path&gt;" class="s0" d="m554.6 787.5v3.4c0 2.7 0.9 5.2 4.5 5.2 2.6 0 3.8-2.4 3.8-4.8 0-4.1-3.3-5.6-6.3-7.4-3.4-2-6.4-3.8-8.5-6.3-2-2.4-3.3-5.3-3.3-9.6 0-9 5.5-13.6 14.2-13.6 9.8 0 14.8 6.5 14.3 15.6h-10.4c-0.1-2.8 0-6.7-3.7-6.9-2.3-0.2-3.7 1-3.9 3.2-0.3 2.8 1.1 4.3 3.4 5.8 4.2 2.7 7.8 4.4 10.5 6.8 2.6 2.5 4.1 5.7 4.1 11.5 0 9.2-5.1 14.3-14.4 14.3-10.3 0-14.7-5.7-14.7-12.1v-5.1z"/>
			<path id="&lt;Compound Path&gt;" class="s0" d="m578.4 803.6v-48h11.3v48z"/>
			<path id="&lt;Compound Path&gt;" class="s0" d="m604.4 787.5v3.4c0 2.7 0.9 5.2 4.5 5.2 2.6 0 3.8-2.4 3.8-4.8 0-4.1-3.3-5.6-6.3-7.4-3.4-2-6.4-3.8-8.5-6.3-2-2.4-3.3-5.3-3.3-9.6 0-9 5.5-13.6 14.2-13.6 9.8 0 14.8 6.5 14.3 15.6h-10.4c-0.1-2.8 0-6.7-3.7-6.9-2.3-0.2-3.7 1-3.9 3.2-0.4 2.8 1.1 4.3 3.4 5.8 4.2 2.7 7.8 4.4 10.5 6.8 2.6 2.5 4.1 5.7 4.1 11.5 0 9.2-5.1 14.3-14.4 14.3-10.4 0-14.7-5.7-14.7-12.1v-5.1z"/>
			<path id="&lt;Compound Path&gt;" class="s0" d="m626.4 755.6h29.2v9.6h-9.1v38.4h-11.3v-38.4h-8.8z"/>
			<path id="&lt;Compound Path&gt;" class="s0" d="m659.9 803.6v-48h25.8v9.6h-14.5v8.8h14.1v9.6h-14.1v10.4h15.3v9.6z"/>
			<path id="&lt;Compound Path&gt;" class="s0" d="m692.1 803.6v-48h15.9l5.8 28.3h0.1l6-28.3h15.8v48h-10.8l1.2-37.7h-0.1l-8 37.7h-8.4l-7.7-37.7h-0.1l1 37.7z"/>
			<path id="&lt;Compound Path&gt;" fill-rule="evenodd" class="s0" d="m739.3 803.6l10.5-48h13.6l10.4 48h-11.4l-1.6-9.4h-8.8l-1.3 9.4zm17.2-39.3h-0.1l-3.2 21.5h6.5z"/>
			<path id="&lt;Compound Path&gt;" class="s0" d="m793.6 803.6v-48h11.3v48z"/>
			<path id="&lt;Compound Path&gt;" class="s0" d="m820.7 776.7l-0.1 0.1 1 26.8h-10.7v-48h11.6l8.7 26.8h0.2l-1.1-26.8h10.7v48h-11.5z"/>
			<path id="&lt;Compound Path&gt;" class="s0" d="m845.1 755.6h29.2v9.6h-9.1v38.4h-11.2v-38.4h-8.9z"/>
			<path id="&lt;Compound Path&gt;" class="s0" d="m878.7 803.6v-48h25.8v9.6h-14.6v8.8h14.1v9.6h-14.1v10.4h15.3v9.6z"/>
			<path id="&lt;Compound Path&gt;" class="s0" d="m932.8 803.6l-0.5-4.3h-0.1c-2.3 4.1-4.9 5.4-9.8 5.4-9.5 0-12.6-6.6-12.6-15.3v-19.7c0-10.4 4.8-15.3 15.1-15.3 9.6 0 15.3 4.1 15.3 13.9v3.6h-11.2v-2.6c0-4.1-0.5-6.2-3.5-6.2-3.6-0.1-4.4 1.8-4.4 4.9v23.8c0 2.7 1.2 4.3 4.2 4.3 3.8 0 3.9-3.1 3.9-6.2v-3.7h-4v-8.7h15.3v26.1z"/>
			<path id="&lt;Compound Path&gt;" fill-rule="evenodd" class="s0" d="m957.3 803.6h-11.3v-48h16.4c9.3 0 13.9 3.7 13.9 13.2 0 5.1-1.2 8.8-6 11v0.1c3.2 0.7 5.4 2.9 5.6 6.2 0.3 3.8 0.4 12.1 1 15.2 0.3 0.6 0.6 1.2 1.1 1.6v0.7h-12.3c-0.3-0.9-0.6-1.8-0.6-2.8-0.2-4.2 0-8.2-0.3-11.1-0.3-3-1.2-4.9-3.8-5.1h-3.7zm0-27.6h3.8c3.3 0 4-3 4-5.9 0-5.7-2.3-6-7.8-5.8z"/>
			<path id="&lt;Compound Path&gt;" fill-rule="evenodd" class="s0" d="m979.5 803.6l10.5-48h13.5l10.5 48h-11.4l-1.6-9.4h-8.9l-1.3 9.4zm17.3-39.3h-0.2l-3.2 21.5h6.5z"/>
			<path id="&lt;Compound Path&gt;" fill-rule="evenodd" class="s0" d="m1017.4 803.6v-48h12.2c4.1 0 9.1 0.1 12.7 2.2 4.4 2.6 5.1 7.2 5.1 11.8v21.4c-0.1 4.8-1.6 8.3-4.8 10.3-3 1.9-6.6 2.3-10 2.3zm11.3-8.7c7.5 0.5 7.6-2.5 7.4-8.9v-15.7c-0.1-5.6-1.9-6-7.4-6.1z"/>
			<path id="&lt;Compound Path&gt;" fill-rule="evenodd" class="s0" d="m1083.1 788.3c0 10.8-3.7 16.4-15.1 16.4-11.4 0-15.4-5.6-15.4-16.4v-19.5c0-9.3 5.5-14.4 15.4-14.4 9.8 0 15.1 5.1 15.1 14.4zm-11.2-18.8c0-2.9-0.3-6.5-4-6.5-3.6 0-4 3.6-4 6.5v19.7c0 2.8 0.4 6.9 4.1 6.9 3.6 0 3.9-4.1 3.9-6.9z"/>
			<path id="&lt;Compound Path&gt;" fill-rule="evenodd" class="s0" d="m546.1 881.6v-48h12.2c4.1 0 9.1 0.1 12.7 2.2 4.4 2.6 5.1 7.2 5.1 11.8v21.4c-0.1 4.8-1.6 8.3-4.8 10.3-3 1.9-6.6 2.3-10 2.3zm11.3-8.7c7.5 0.5 7.6-2.5 7.4-8.9v-15.7c-0.1-5.6-1.9-6-7.4-6.1z"/>
			<path id="&lt;Compound Path&gt;" class="s0" d="m581.7 881.6v-48h25.8v9.6h-14.5v8.8h14.1v9.6h-14.1v10.4h15.3v9.6z"/>
			<path id="&lt;Compound Path&gt;" class="s0" d="m639.3 854.7l-0.1 0.1 1 26.8h-10.7v-48h11.6l8.7 26.8h0.2l-1.1-26.8h10.7v48h-11.5z"/>
			<path id="&lt;Compound Path&gt;" fill-rule="evenodd" class="s0" d="m695.4 866.3c0 10.8-3.7 16.4-15.1 16.4-11.4 0-15.4-5.6-15.4-16.4v-19.5c0-9.3 5.5-14.4 15.4-14.4 9.8 0 15.1 5.1 15.1 14.4zm-11.2-18.8c0-2.9-0.3-6.5-4-6.5-3.6 0-4 3.6-4 6.5v19.7c0 2.8 0.4 6.9 4.1 6.9 3.6 0 3.9-4.1 3.9-6.9z"/>
			<path id="&lt;Compound Path&gt;" fill-rule="evenodd" class="s0" d="m711.9 881.6h-11.3v-48h16.5c9.2 0 13.8 3.7 13.8 13.2 0 5.1-1.2 8.8-6 11v0.1c3.2 0.7 5.4 2.9 5.6 6.2 0.3 3.8 0.4 12.1 1 15.2 0.3 0.6 0.6 1.2 1.1 1.6v0.7h-12.3c-0.3-0.9-0.5-1.8-0.6-2.8-0.2-4.2 0.1-8.2-0.3-11.1-0.3-3-1.2-4.9-3.8-5.1h-3.7zm0-27.6h3.8c3.3 0 4.1-3 4.1-5.9 0-5.7-2.4-6-7.9-5.8z"/>
			<path id="&lt;Compound Path&gt;" class="s0" d="m736.7 881.6v-48h15.8l5.8 28.3h0.2l6-28.3h15.7v48h-10.7l1.1-37.7h-0.1l-7.9 37.7h-8.4l-7.8-37.7h-0.1l1 37.7z"/>
			<path id="&lt;Compound Path&gt;" fill-rule="evenodd" class="s0" d="m783.9 881.6l10.5-48h13.5l10.5 48h-11.4l-1.6-9.4h-8.8l-1.4 9.4zm17.3-39.3h-0.1l-3.3 21.5h6.5z"/>
			<path id="&lt;Compound Path&gt;" class="s0" d="m830.3 865.5v3.4c0 2.7 0.9 5.2 4.5 5.2 2.7 0 3.8-2.4 3.8-4.8 0-4.1-3.3-5.6-6.3-7.4-3.4-2-6.4-3.8-8.5-6.3-2-2.4-3.2-5.3-3.2-9.6 0-9 5.4-13.6 14.1-13.6 9.8 0 14.8 6.5 14.3 15.6h-10.4c-0.1-2.8 0-6.7-3.7-6.9-2.3-0.2-3.7 1-3.9 3.2-0.3 2.8 1.1 4.3 3.4 5.8 4.2 2.7 7.9 4.4 10.5 6.8 2.6 2.5 4.1 5.7 4.1 11.5 0 9.2-5.1 14.3-14.4 14.3-10.3 0-14.7-5.7-14.7-12.1v-5.1z"/>
			<path id="&lt;Compound Path&gt;" class="s0" d="m876.4 865.6v6c0 1.8 0.7 2.5 2.3 2.5 1.6-0.1 2.2-0.4 2.1-1.7l0.1-38.8h11.3v33.4c0 3.4 0.2 7.1-1.5 10.3-2.4 4.4-6.6 5.4-11.5 5.4-5.3 0-10-2.5-11.3-7.9-0.6-2.2-0.6-4.4-0.6-6.5v-2.7z"/>
			<path id="&lt;Compound Path&gt;" class="s0" d="m898 833.6h11.3v36.2c0 2.3 0.7 4.3 3.9 4.3 2.9 0 3.8-2.6 3.8-4.6v-35.9h11.3v34.7c0 8.1-3.7 14.4-15.2 14.4-9.5 0-15.1-4.5-15.1-14.4z"/>
			<path id="&lt;Compound Path&gt;" fill-rule="evenodd" class="s0" d="m944.8 881.6h-11.2v-48h16.4c9.2 0 13.8 3.7 13.8 13.2 0 5.1-1.2 8.8-5.9 11v0.1c3.1 0.7 5.4 2.9 5.6 6.2 0.3 3.8 0.3 12.1 1 15.2 0.2 0.6 0.6 1.2 1.1 1.6v0.7h-12.3c-0.3-0.9-0.6-1.8-0.6-2.8-0.2-4.2 0-8.2-0.3-11.1-0.3-3-1.2-4.9-3.8-5.1h-3.8zm0-27.6h3.9c3.2 0 4-3 4-5.9 0-5.7-2.4-6-7.9-5.8z"/>
			<path id="&lt;Compound Path&gt;" class="s0" d="m988.5 819.4l-11 9.4h-8.7l6.4-9.4zm-18.8 62.2v-48h11.3v48z"/>
			<path id="&lt;Compound Path&gt;" fill-rule="evenodd" class="s0" d="m987.2 881.6v-48h12.2c4.1 0 9.1 0.1 12.7 2.2 4.4 2.6 5.1 7.2 5.1 11.8v21.4c-0.1 4.8-1.6 8.3-4.8 10.3-3 1.9-6.6 2.3-10 2.3zm11.2-8.7c7.6 0.5 7.7-2.5 7.5-8.9v-15.7c-0.1-5.6-2-6-7.5-6.1z"/>
			<path id="&lt;Compound Path&gt;" class="s0" d="m1023.1 881.6v-48h11.3v48z"/>
			<path id="&lt;Compound Path&gt;" class="s0" d="m1059.3 850.3v-3c0-4.1-1.4-6.2-3.5-6.2-3.6-0.1-4.4 1.8-4.4 4.9l-0.1 23.8c0 2.7 1.1 4.3 4.1 4.3 3.8 0 4.1-4 4.1-6.9v-4.4h11.3v5.9c0 8.3-4.7 14-16.3 14-10.3 0-14.4-5.5-14.4-15.3v-19.7c0-10.4 4.8-15.3 15.1-15.3 9.6 0 15.4 4.1 15.4 13.9v4z"/>
			<path id="&lt;Compound Path&gt;" fill-rule="evenodd" class="s0" d="m1073.8 881.6l10.5-48h13.6l10.4 48h-11.4l-1.6-9.4h-8.8l-1.4 9.4zm17.3-39.3h-0.1l-3.3 21.5h6.5z"/>
			<path id="&lt;Compound Path&gt;" class="s0" d="m1120.3 865.5v3.4c0 2.7 0.9 5.2 4.4 5.2 2.7 0 3.8-2.4 3.8-4.8 0-4.1-3.3-5.6-6.2-7.4-3.5-2-6.4-3.8-8.6-6.3-2-2.4-3.2-5.3-3.2-9.6 0-9 5.4-13.6 14.1-13.6 9.8 0 14.8 6.5 14.3 15.6h-10.4c-0.1-2.8 0-6.7-3.7-6.9-2.3-0.2-3.6 1-3.9 3.2-0.3 2.8 1.2 4.3 3.4 5.8 4.2 2.7 7.9 4.4 10.5 6.8 2.6 2.5 4.2 5.7 4.2 11.5 0 9.2-5.2 14.3-14.5 14.3-10.3 0-14.7-5.7-14.7-12.1v-5.1z"/>
		</g>
	</g>
</svg>