<svg version="1.2" xmlns="http://www.w3.org/2000/svg" viewBox="0 0 1224 1584" width="1224" height="1584">
	<title>SITEOUVIDORIA-ai</title>
	<style>
		.s0 { fill: #007ab7 } 
		.s1 { fill: #fecb08 } 
		.s2 { fill: #ffffff } 
		.s3 { fill: #008a3a } 
		.s4 { fill: #5d5c5c } 
	</style>
	<g id="Layer 1">
		<g id="&lt;Group&gt;">
			<g id="&lt;Group&gt;">
				<path id="&lt;Path&gt;" class="s0" d="m692.4 857.3l-151.2 48.1-40.3-126.8 151.1-48.1z"/>
				<path id="&lt;Path&gt;" class="s1" d="m778.3 676.5l-280.3 90.6-65.2-201.9 280.2-90.6z"/>
				<g id="&lt;Group&gt;">
					<path id="&lt;Compound Path&gt;" class="s0" d="m273.1 860.8l28.5 97.8-28.3 8.3-16.4-56.1-21.9 6.4-5.7-19.5q7.8-2.5 13-6.2 5.1-3.8 7.6-9.8 2.5-6 1.8-14.6z"/>
					<path id="&lt;Compound Path&gt;" fill-rule="evenodd" class="s0" d="m363.8 863.9q-4.1-7-13.7-4.3-7.4 2.2-9.2 9.3-1.9 7.2 1 17.1 7.5-9.5 19.6-13.1 6.5-1.9 13-1.6 6.5 0.3 12.4 2.9 5.9 2.6 10.3 7.6 4.4 5 6.6 12.3 3.3 11.3 0.5 20.4-2.7 9-10.3 15.3-7.5 6.2-18.6 9.4-21.6 6.3-36.8-2.6-15.3-8.8-22.7-34.3-4.3-14.7-2.7-27.5 1.7-12.7 9.3-21.7 7.6-8.9 20.5-12.7 7.2-2.1 13.9-2.6 6.6-0.6 12.7 0.9 6 1.3 11.2 5.3 5.1 4 8.6 10.8zm-12.7 36.3q-2.1 4.7-0.3 10.7 1.5 5.2 6.2 7.7 4.8 2.4 10 0.8 5.9-1.7 8-6.5 2.1-4.9 0.6-10.3-1.5-5.1-5.8-8.1-4.3-3-9.9-1.3-6.8 2.2-8.8 7z"/>
					<path id="&lt;Compound Path&gt;" class="s0" d="m502.5 900l-80.1 23.4q-2.6-8.9-1.6-16.1 0.9-7.2 5-14.5 3.4-6.8 9.6-14.3 7.3-8.9 10.5-13 3.3-4.2 5-6.7 1.8-2.5 2.1-3.2 0.4-0.7 1.3-2.9 2.4-5.6 0.7-11.2-1.2-4.3-5.4-6-4.2-1.7-8.7-0.4-6.9 2-9.1 7.6-2.1 5.6 0.6 14.8l-25.3 7.4q-5.6-20.3 1.9-33.3 7.3-12.6 26.8-18.3 7.9-2.3 15.3-2.5 7.3-0.3 13.9 2 6.5 2.3 11.3 7.4 4.7 5 7.1 13.3 2.5 8.4 0.1 15.9-1.3 3.8-3.2 7.3-2 3.5-4.7 6.9-2.6 3.3-5.9 6.7-3.3 3.4-6.5 6.7-8.3 8.4-11.7 12.7l44.3-12.9z"/>
				</g>
				<g id="&lt;Group&gt;">
					<path id="&lt;Compound Path&gt;" fill-rule="evenodd" class="s2" d="m547 798c1.8-4 5.2-7.1 9.4-8.5 3.7-1.2 7.6-1 11.2 0.6l6.1 2.7c3.8 1.7 6.7 4.8 8.2 8.7 1.5 3.9 1.4 8.1-0.3 11.9l-1.8 4c-1 2.2-2.4 4.1-4.2 5.6 9.2 8.9 21.1 14.3 33.8 15.4q0.2-2.6 1.3-4.9l1.8-4.1c1.8-4 5.2-7.1 9.4-8.4 3.7-1.2 7.6-1 11.2 0.6l6.1 2.7c7.9 3.5 11.4 12.8 7.9 20.6l-1.8 4q-1 2.2-2.7 4.1c-2.2 2.7-5.5 4.7-9.2 6q-1.1 0.3-2.2 0.6c-33.6 7.7-68.8-8.1-85.5-38.3-3.9-7-3.4-13.8-1.2-17.6q0.3-0.9 0.7-1.7zm1.8 5.6q-0.3 0.7-0.5 1.4 0 0.2-0.1 0.3l-0.1 0.2q0 0.1-0.1 0.2c-1.3 2.2-2.1 7.7 1.2 13.7 15.8 28.7 49.2 43.6 81.1 36.3 3.9-0.9 7.2-2.8 9.3-5.3q1.3-1.4 2-3.1l1.8-4c2.6-5.8 0-12.7-5.8-15.3l-6.1-2.7c-2.7-1.2-5.6-1.4-8.3-0.5-3.2 1-5.7 3.3-7 6.3l-1.8 4q-1 2.2-1 4.6v0.9c-0.1 0.5-0.3 1-0.7 1.4-0.4 0.4-0.9 0.6-1.5 0.5h-0.8c-14.6-0.9-28.4-7.2-38.6-17.6l-0.7-0.7c-0.4-0.4-0.6-1-0.6-1.6 0.1-0.6 0.4-1.1 0.9-1.5l0.8-0.5c1.7-1.2 3-2.8 3.9-4.8q0 0 0 0l1.8-4c1.3-2.8 1.4-6 0.2-8.8-1.1-2.9-3.2-5.2-6-6.5l-6.2-2.7c-2.6-1.2-5.5-1.3-8.3-0.5-3.1 1.1-5.6 3.3-7 6.3z"/>
					<path id="&lt;Compound Path&gt;" fill-rule="evenodd" class="s2" d="m640.6 805.1c-2.2 0.7-4.6-0.5-5.3-2.7-6.7-20.6-28.9-31.9-49.4-25.2-2.2 0.7-4.6-0.4-5.3-2.6-0.7-2.2 0.5-4.6 2.7-5.3 24.9-8.1 51.8 5.6 59.9 30.5 0.8 2.2-0.4 4.6-2.6 5.3zm0.7-4.7c-7.7-23.9-33.5-37-57.4-29.2-1.1 0.4-1.7 1.6-1.4 2.7 0.4 1.2 1.6 1.8 2.7 1.4 21.7-7 45 4.9 52 26.5 0.4 1.1 1.6 1.7 2.8 1.4 1.1-0.4 1.7-1.6 1.3-2.8z"/>
					<path id="&lt;Compound Path&gt;" fill-rule="evenodd" class="s2" d="m628.7 805.1c0.7 2.2-0.5 4.5-2.7 5.2-2.2 0.8-4.5-0.4-5.2-2.6-4.2-12.7-17.9-19.7-30.6-15.6-2.2 0.7-4.6-0.5-5.3-2.6-0.7-2.2 0.5-4.6 2.7-5.3 17.1-5.6 35.5 3.8 41.1 20.9zm-1.9 0.6c-5.2-16-22.5-24.8-38.6-19.6-1.1 0.4-1.7 1.6-1.4 2.7 0.4 1.2 1.6 1.8 2.8 1.4 13.7-4.5 28.6 3.1 33.1 16.9 0.3 1.1 1.5 1.7 2.7 1.3 1.1-0.3 1.7-1.5 1.4-2.7z"/>
				</g>
				<g id="&lt;Group&gt;">
					<path id="&lt;Compound Path&gt;" fill-rule="evenodd" class="s2" d="m620 588.2l16.4-5.2 7.5 53.3q0.2 1.3 1 3.6 0.7 2.3 3.4 1.5 3.7-1.2 6.3-6.4 2.6-5.3 2.9-13.2 0.3-7.9-2.6-16.8-4.4-13.6-13.5-21.4-9-7.8-21.1-9.5-12-1.6-25.1 2.6-10.6 3.4-18.2 9.9-7.6 6.5-11.8 15.3-4.1 8.8-4.5 19-0.4 10.3 3 20.9 4.8 14.9 15 24.1 10.2 9.2 23.7 11.6 13.5 2.3 27.8-2.3 17.1-5.5 28.6-22.4l16.7-5.4q-2.5 7.9-6.4 14.8-3.9 6.9-9.1 12.4-5.3 5.5-11.9 9.6-6.6 4.1-14.4 6.6-18.1 5.8-36 2.3-17.9-3.6-31.5-15.6-13.8-11.9-19.6-30.1-5.9-18.2-2-36 4-17.8 16.2-31.2 12.2-13.4 30-19.1 10.6-3.4 22.5-3 11.9 0.5 22.8 4.8 10.8 4.3 19.1 12.4 8.3 8.1 11.9 19.2 3.7 11.7 1.9 25.1-1.8 13.5-9.2 24.2-7.3 10.7-19.1 14.5-10.1 3.2-12.9-5.3-4.8 10.2-14.5 13.3-7 2.3-15 0.2-8-2.1-14.2-7.8-6.3-5.7-8.9-13.7-3.3-10.2-1.9-20.7 1.4-10.5 7.6-18.7 6.1-8.1 16.3-11.4 13-4.2 24.2 3.7zm-18.3 57.1q4.9 3.2 10.9 1.3 7.6-2.5 10.6-9.7 2.9-7.1 0.6-14.4-2.2-6.8-7.2-9.7-4.9-2.9-11.1-0.9-4.7 1.5-7.6 5.3-3 3.9-3.7 8.9-0.8 4.9 0.7 9.5 2.1 6.5 6.8 9.7z"/>
				</g>
				<path id="&lt;Path&gt;" class="s3" d="m1009.5 754.9l-303.6 98.9-41.6-127.8 303.6-98.8z"/>
				<path id="&lt;Path&gt;" class="s3" d="m974 646.7l-175.3 55.4-35.4-111.8 175.3-55.4z"/>
				<g id="&lt;Group&gt;">
					<g id="&lt;Group&gt;">
						<path id="&lt;Path&gt;" class="s2" d="m902.4 633.4c6 18.2-4 37.8-22.2 43.7-18.2 5.9-37.8-4-43.7-22.2-5.9-18.2 4-37.8 22.2-43.7 18.2-6 37.8 4 43.7 22.2z"/>
					</g>
					<g id="&lt;Group&gt;">
						<path id="&lt;Path&gt;" class="s2" d="m949.2 691.3l18.3 56-116.4 38-18.3-56c-3.2-10 2.2-20.8 12.2-24l80.3-26.2c9.9-3.2 20.7 2.2 23.9 12.2z"/>
					</g>
				</g>
			</g>
			<g id="&lt;Group&gt;">
				<path id="&lt;Compound Path&gt;" class="s4" d="m217.8 1055.7l5.6 22.5 5.7-22.5h13.3l-11.4 36.3h-14l-5.6-21.3-5 21.3h-13.9l-12-36.3h14.1l5.6 22.5 5.4-22.5z"/>
				<path id="&lt;Compound Path&gt;" class="s4" d="m281 1055.7l5.6 22.5 5.6-22.5h13.4l-11.4 36.3h-14.1l-5.6-21.3-4.9 21.3h-14l-11.9-36.3h14.1l5.6 22.5 5.4-22.5z"/>
				<path id="&lt;Compound Path&gt;" class="s4" d="m344.1 1055.7l5.6 22.5 5.7-22.5h13.4l-11.4 36.3h-14.1l-5.6-21.3-5 21.3h-13.9l-11.9-36.3h14.1l5.6 22.5 5.4-22.5z"/>
				<path id="&lt;Compound Path&gt;" class="s4" d="m368 1092v-14.2h14.5v14.2z"/>
				<path id="&lt;Compound Path&gt;" fill-rule="evenodd" class="s4" d="m387.8 1074.3q0-6.2 2.6-10.6 2.5-4.4 7.2-6.7 4.6-2.2 10.8-2.2 4.6 0 8.4 1.3 3.9 1.3 6.5 3.8 2.7 2.5 4.1 5.9 1.4 3.5 1.4 7.8 0 6.4-2.6 10.8-2.7 4.3-7.3 6.4-4.6 2.2-10.5 2.2-5.9 0-10.6-2.1-4.6-2.1-7.3-6.4-2.7-4.2-2.7-10.2zm20.7-9.9q-3.3 0-4.8 2.8-1.5 2.7-1.5 6.4 0 4.9 1.6 7.4 1.7 2.5 4.6 2.5 3.3 0 4.8-2.8 1.4-2.5 1.4-7.1 0-4.1-1.6-6.6-1.6-2.6-4.5-2.6z"/>
				<path id="&lt;Compound Path&gt;" class="s4" d="m472.7 1055.7v36.3h-13.2v-5.3q-2.7 3.7-5.5 5-2.9 1.3-7.5 1.3-6.1 0-9.4-3.8-3.4-3.8-3.4-11.3v-22.2h14.2v19.6q0 3.7 1.2 5.1 1.2 1.4 3.9 1.4 3 0 4.2-2 1.3-2.1 1.3-6.6v-17.5z"/>
				<path id="&lt;Compound Path&gt;" class="s4" d="m488.4 1092l-12.4-36.3h14.4l6.3 23.1 6.1-23.1h13.7l-12 36.3z"/>
				<path id="&lt;Compound Path&gt;" class="s4" d="m520.6 1051.1v-10.3h14.2v10.3zm14.2 40.9h-14.2v-36.3h14.2z"/>
				<path id="&lt;Compound Path&gt;" fill-rule="evenodd" class="s4" d="m580.4 1092h-12.8v-4.9q-2.4 3.3-5 4.6-2.5 1.3-6 1.3-4 0-7.1-1.5-3.1-1.3-5.2-3.9-2-2.5-3.1-5.8-1-3.4-1-7.2 0-5.9 2-10.5 2-4.5 5.5-6.9 3.5-2.5 7.8-2.5 3.5 0 6 1.1 2.4 1 4.7 3.6v-17.4h14.2zm-20.3-9.4q3.2 0 4.9-2.5 1.8-2.6 1.8-6.1 0-3.3-1.6-5.8-1.7-2.4-4.6-2.4-2.9 0-4.7 2.6-1.7 2.7-1.7 6.3 0 3.2 1.6 5.6 1.5 2.3 4.3 2.3z"/>
				<path id="&lt;Compound Path&gt;" fill-rule="evenodd" class="s4" d="m585 1074.3q0-6.2 2.6-10.6 2.5-4.4 7.2-6.7 4.6-2.2 10.7-2.2 4.7 0 8.5 1.3 3.8 1.3 6.5 3.8 2.7 2.5 4.1 5.9 1.4 3.5 1.4 7.8 0 6.4-2.7 10.8-2.6 4.3-7.2 6.4-4.7 2.2-10.6 2.2-5.8 0-10.5-2.1-4.6-2.1-7.3-6.4-2.7-4.2-2.7-10.2zm20.7-9.9q-3.3 0-4.8 2.8-1.5 2.7-1.5 6.4 0 4.9 1.6 7.4 1.7 2.5 4.5 2.5 3.4 0 4.9-2.8 1.4-2.5 1.4-7.1 0-4.1-1.6-6.6-1.7-2.6-4.5-2.6z"/>
				<path id="&lt;Compound Path&gt;" class="s4" d="m630.9 1092v-36.3h12.8l0.1 7.3q1.7-4.5 4.9-6.3 3.1-1.8 8.1-1.8v14.3q-2.1-0.4-2.9-0.4-3 0-4.9 1.1-2 1-2.9 3.4-1 2.3-1 6.2v12.5z"/>
				<path id="&lt;Compound Path&gt;" class="s4" d="m660.7 1051.1v-10.3h14.2v10.3zm14.2 40.9h-14.2v-36.3h14.2z"/>
				<path id="&lt;Compound Path&gt;" fill-rule="evenodd" class="s4" d="m721.7 1092h-14.9l-0.7-3.9q-1.5 1.5-3.7 2.6-2.2 1.1-4.7 1.7-2.5 0.6-5.1 0.6-3.4 0-6.4-1.2-2.9-1.2-4.6-3.6-1.8-2.5-1.8-6.1 0-5.6 3.5-8.1 1.7-1.2 4-2 2.3-0.7 4.9-1.2 2.6-0.5 4.9-0.9 2.3-0.3 4.1-0.6 4.3-0.7 4.3-2.9 0-1.7-1.5-2.4-1.5-0.7-3.2-0.7-4.6 0-5.1 3.7h-13.6q0-4 1.9-6.7 2-2.8 6.4-4.2 4.3-1.4 11.2-1.4 6.2 0 9.9 1.1 3.7 1.1 5.4 3.1 1.8 1.9 2.3 4.4 0.5 2.6 0.5 6.3v17.1q0 1.8 0.3 2.7 0.3 0.9 1.7 1.9zm-22.5-7.1q3 0 4.5-2 1.8-2.3 1.8-7-1.6 0.8-4.9 1.5-3.2 0.7-4.6 1.5-1.4 0.8-1.4 2.9 0 1.4 1.2 2.3 1.2 0.8 3.4 0.8z"/>
				<path id="&lt;Compound Path&gt;" class="s4" d="m726.8 1092v-14.2h14.5v14.2z"/>
				<path id="&lt;Compound Path&gt;" fill-rule="evenodd" class="s4" d="m786.7 1092h-12.7v-4.9q-2.5 3.3-5 4.6-2.5 1.3-6.1 1.3-3.9 0-7-1.5-3.2-1.3-5.2-3.9-2.1-2.5-3.1-5.8-1.1-3.4-1.1-7.2 0-5.9 2-10.5 2.1-4.5 5.5-6.9 3.6-2.5 7.8-2.5 3.5 0 6 1.1 2.5 1 4.7 3.6v-17.4h14.2zm-20.2-9.4q3.1 0 4.9-2.5 1.8-2.6 1.8-6.1 0-3.3-1.7-5.8-1.7-2.4-4.6-2.4-2.9 0-4.6 2.6-1.8 2.7-1.8 6.3 0 3.2 1.6 5.6 1.6 2.3 4.4 2.3z"/>
				<path id="&lt;Compound Path&gt;" class="s4" d="m808.8 1055.7h6v8.3h-6v28h-14.1v-28h-4.9v-8.3h4.9q0-6.1 1.5-9.4 1.6-3.2 4.5-4.3 3-1.2 7.9-1.2h6.2v9.1q-2.5 0-3.7 0.2-1.2 0.2-1.8 1.1-0.6 1-0.6 3.1 0 0.8 0.1 1.4z"/>
				<path id="&lt;Compound Path&gt;" class="s4" d="m819.2 1092v-14.2h14.5v14.2z"/>
				<path id="&lt;Compound Path&gt;" fill-rule="evenodd" class="s4" d="m855.3 1093.7q0 1.4 1.2 2 1.2 0.6 2.8 0.6 3.1 0 4.4-1.5 1.3-1.6 1.3-5.4v-3.1q-4.1 4.1-10.3 4.1-4.8 0-8.4-2.3-3.6-2.4-5.5-6.3-1.9-4-1.9-8.6 0-4.8 1.7-9 1.7-4.2 5.3-6.8 3.6-2.7 9.3-2.7 3.2 0 6.1 1.6 2.8 1.6 4.7 4.3v-4.9h12.6v29.2q0 4.9-0.5 8.1-0.6 3.3-2.5 5.9-1.8 2.5-5.7 4-3.9 1.4-10.3 1.4-8.9 0-13.5-3-4.6-3-5.2-7.6zm-0.6-26.6q-1.6 2.3-1.6 5.3 0 3.2 1.6 5.5 1.6 2.4 4.3 2.5 3 0 4.5-2.2 1.6-2.3 1.6-5.4 0-3.2-1.6-5.5-1.6-2.4-4.5-2.4-2.7 0-4.3 2.2z"/>
				<path id="&lt;Compound Path&gt;" fill-rule="evenodd" class="s4" d="m883.7 1074.3q0-6.2 2.6-10.6 2.5-4.4 7.2-6.7 4.6-2.2 10.7-2.2 4.7 0 8.5 1.3 3.8 1.3 6.5 3.8 2.7 2.5 4.1 5.9 1.4 3.5 1.4 7.8 0 6.4-2.7 10.8-2.6 4.3-7.2 6.4-4.7 2.2-10.6 2.2-5.8 0-10.5-2.1-4.6-2.1-7.3-6.4-2.7-4.2-2.7-10.2zm20.7-9.9q-3.3 0-4.8 2.8-1.6 2.7-1.6 6.4 0 4.9 1.7 7.4 1.7 2.5 4.5 2.5 3.3 0 4.9-2.8 1.4-2.5 1.4-7.1 0-4.1-1.7-6.6-1.6-2.6-4.4-2.6z"/>
				<path id="&lt;Compound Path&gt;" class="s4" d="m937 1092l-12.4-36.3h14.4l6.3 23.1 6.1-23.1h13.7l-12 36.3z"/>
				<path id="&lt;Compound Path&gt;" class="s4" d="m964.1 1092v-14.2h14.5v14.2z"/>
				<path id="&lt;Compound Path&gt;" fill-rule="evenodd" class="s4" d="m999.2 1042v17.4q3.7-4.6 10.3-4.6 4.5 0 8.1 2.4 3.6 2.5 5.6 6.8 2 4.3 2 9.7 0 8.7-3.9 14-4 5.3-12.3 5.3-4 0-6.6-1.3-2.5-1.3-3.6-2.9-1.1-1.5-1.1-1.9v5.1h-12.7v-50zm5.6 40.6q2 0 3.4-1.2 1.4-1.1 2.1-3.1 0.7-1.9 0.7-4.1 0-2.2-0.7-4.1-0.7-2-2.1-3.2-1.4-1.2-3.4-1.1-2.9 0-4.5 2.5-1.7 2.5-1.7 5.9 0 3.4 1.7 5.9 1.6 2.5 4.5 2.5z"/>
				<path id="&lt;Compound Path&gt;" class="s4" d="m1029.7 1092v-36.3h12.9l0.1 7.3q1.7-4.5 4.8-6.3 3.2-1.8 8.1-1.8v14.3q-2.1-0.4-2.8-0.4-3 0-4.9 1.1-2 1-3 3.4-0.9 2.3-0.9 6.2v12.5z"/>
			</g>
		</g>
	</g>
</svg>