<svg version="1.2" xmlns="http://www.w3.org/2000/svg" viewBox="0 0 1224 1584" width="1224" height="1584">
	<title>SUGESTAO-ai</title>
	<style>
		.s0 { fill: #009641 } 
		.s1 { fill: #ffffff } 
	</style>
	<g id="Layer 1">
		<g id="&lt;Group&gt;">
			<g id="&lt;Group&gt;">
				<path id="&lt;Path&gt;" class="s0" d="m926.4 1156.1h-194.1l-96.9 134.4c-14.6 20.3-42 19.8-56-1.1l-89.7-133.3h-192.1c-86.2 0-156-80.1-156-178.9v-376c0-98.8 69.8-178.8 156-178.8h628.8c86.2 0 156 80 156 178.8v376c0 98.8-69.8 178.9-156 178.9z"/>
			</g>
		</g>
		<g id="&lt;Group&gt;">
			<path id="&lt;Compound Path&gt;" class="s1" d="m341.9 607.6q-0.4-3.5-3.2-5.1-2.8-1.6-6.7-1.6-8.3 0-8.3 4.4 0 3.7 7.5 5.9 7.5 2.3 16.3 4.8 8.8 2.4 14.8 7.5 6.1 5 6.1 14.7 0 8.8-4.5 14.9-4.6 6.1-12.7 9.1-8.2 3-19 3-10 0-17.8-3.6-7.7-3.5-12.1-9.5-4.5-6.1-4.8-13.2h24.5q1 4 4.1 6.2 3.2 2.1 7.3 2.1 4.9 0 7.8-1.5 3-1.5 3-4.2 0-3.8-7.6-6-7.5-2.2-16.2-4.7-8.7-2.4-14.8-7.6-6.1-5.2-6.1-15.3 0-8.1 4.3-13.8 4.2-5.7 11.7-8.5 7.6-2.8 17.4-2.8 15.5 0 23.7 6.8 8.3 6.8 9.7 18z"/>
			<path id="&lt;Compound Path&gt;" class="s1" d="m378.4 584.6h25.4v47.3q0 6.7 2.4 10.5 2.4 3.8 9.3 3.8 6.6 0 9.2-3.7 2.7-3.8 2.7-10.6v-47.3h25.5v44.5q0 9.5-2.2 16.3-2.2 6.8-6.8 11.2-4.5 4.3-11.6 6.4-7 2.2-16.8 2.2-9.3 0-16.1-1.9-6.8-1.9-11.5-6.2-4.7-4.2-7.1-11.2-2.4-6.9-2.4-16.9z"/>
			<path id="&lt;Compound Path&gt;" class="s1" d="m540.5 620.1v43.3h-16.4l-1.1-7.6q-3.2 4.1-7.9 6.3-6.3 3.1-15.3 3.1-7.7 0-14.5-2.5-6.8-2.5-12.1-7.6-5.3-5-8.3-12.6-3-7.7-3-17.5 0-9.2 2.9-17.1 2.8-7.8 8.1-13.4 5.4-5.7 13-8.7 7.5-3 16.9-3 9.4 0 17.2 3.3 7.8 3.2 12.9 9.8 5.1 6.5 6.5 15.8h-24.1q-1.3-4.6-4.7-7.2-3.4-2.5-8.3-2.5-7.3 0-11 6-3.8 6.1-3.8 16.9 0 6.1 1.5 10.8 1.5 4.7 5.1 7.6 3.7 2.9 9.8 2.9 5.9 0 10.1-4.4 2-2.1 2.6-4.8h-11.1v-16.9z"/>
			<path id="&lt;Compound Path&gt;" class="s1" d="m619.3 663.2h-64.7v-78.6h63.2v18.4h-37.6v11.4h31.7v18.4h-31.7v12.1h39.1z"/>
			<path id="&lt;Compound Path&gt;" class="s1" d="m671.9 607.6q-0.4-3.5-3.2-5.1-2.8-1.6-6.7-1.6-8.3 0-8.3 4.4 0 3.7 7.5 5.9 7.5 2.3 16.3 4.8 8.8 2.4 14.8 7.5 6.1 5 6.1 14.7 0 8.8-4.5 14.9-4.6 6.1-12.7 9.1-8.2 3-19 3-10 0-17.8-3.6-7.7-3.5-12.1-9.5-4.5-6.1-4.8-13.2h24.5q1 4 4.1 6.2 3.2 2.1 7.3 2.1 4.9 0 7.8-1.5 3-1.5 3-4.2 0-3.8-7.6-6-7.5-2.2-16.2-4.7-8.7-2.4-14.8-7.6-6.1-5.2-6.1-15.3 0-8.1 4.3-13.8 4.2-5.7 11.7-8.5 7.6-2.8 17.4-2.8 15.5 0 23.7 6.8 8.3 6.8 9.7 18z"/>
			<path id="&lt;Compound Path&gt;" class="s1" d="m702.1 605.6v-21h71.1v21h-22.6v57.6h-25.5v-57.6z"/>
			<path id="&lt;Compound Path&gt;" fill-rule="evenodd" class="s1" d="m777.2 663.2l19.8-55.6 8-23h25.9l19.8 56 8 22.6h-25.3l-3-10.3h-25.4l-2.9 10.3zm62.3-100.7q-0.8 6.3-4.2 10.3-3.4 4-9.4 4-2 0-7.2-1.7-5.3-1.8-7.5-1.8-4.2 0-5.4 4.4h-8.6q0.8-6.3 4.2-10.8 3.4-4.6 9.2-4.6 2.3 0 4.1 0.5 1.9 0.5 4.6 1.5 2.8 1.1 4.7 1.6 1.2 0.3 2.2 0.3 2 0 3.2-1.1 1.3-1.1 1.6-2.6zm-21.7 46l-7.7 28h15.7z"/>
			<path id="&lt;Compound Path&gt;" fill-rule="evenodd" class="s1" d="m920.4 586.1q7.7 3.3 12.8 9.1 5 5.7 7.6 13 2.5 7.4 2.5 15.5 0 13-5.3 22.3-5.3 9.4-14.6 14.3-9.2 4.9-20.7 4.9-12.3 0-21.5-4.9-9.2-4.9-14.3-14.3-5-9.4-5-22.6 0-9.1 2.9-16.6 2.9-7.5 8.4-12.9 5.5-5.4 13-8.3 7.5-2.8 16.5-2.8 10 0 17.7 3.3zm-29.4 22.4q-3.6 6.5-3.6 15.2 0 9.2 3.4 15.9 3.5 6.6 11.9 6.6 5.3 0 8.7-2.8 3.5-2.9 5.1-8 1.6-5 1.6-11.7 0-5.7-1.6-10.7-1.6-5-5.2-8-3.5-3.1-8.8-3.1-7.9 0-11.5 6.6z"/>
		</g>
		<g id="&lt;Group&gt;">
			<path id="&lt;Compound Path&gt;" fill-rule="evenodd" class="s1" d="m682.9 847.5c25.6 26 32.3 71.7 16.2 104.6-4.9 10-13.6 19-19.9 28.3-4.2 6.3-9.4 10.4-11.3 18.2-1.2 5.2 0.2 10.6-2.1 15.5-0.6 1.3-1.3 2.2-2 3.1 3.7 3.8 5 8.2 2.7 11.8 4.2 6.5 2.2 10.8-2.8 13.5 2.9 2.9 4.4 6.6 1.2 10.7-5.2 6.6-21 5.8-31.4 5.5-0.3 4-1 8.6-4.4 10.6-3.5 2.2-9.2 2.5-13.3 2.6-3.6 0-8.5-0.3-10.3-4-1.2-2.3-1.5-5.3-1.9-8.1-18.1-0.2-37.9-3.1-28.4-17.2-6.2-2.8-8.7-7.3-3-14.7-2.3-3.8-1.2-8.2 1.6-11.4-1.6-1.8-2.7-4.3-3.7-8-2.5-8.9-4.3-14.6-10.9-21.9-4.3-4.9-8.7-9.6-12.5-15-7.3-10.4-12.9-22-17.3-33.9-13.6-36.7 5.8-81.4 38-101.6 37.3-23.3 84.4-20.2 115.5 11.4zm1.7 15.8c-14.5-22-41.2-35.8-67.4-33.7-28.6 2.2-53.2 14.4-69.2 38.7-10.9 16.7-17.4 38.1-13.1 58.3 2.7 12.8 9.7 25.9 16.8 36.8 6.4 9.8 17.4 17.3 22.8 27.7 2.2 4.3 1.9 9 3.6 13.4 2.6 6.6 3.8 6.4 10 7.8 3.9 0.9 8 1.4 12.1 1.8q-1.2-21.7-2.3-43.4c-0.7-12-0.6-24.3-3.1-36.1-9.2 1.6-18.4 0.4-24.5-6.6-5.2-6.1-6.2-17.4 1.9-21.5 13.9-7.1 22.2 3.5 27.2 20.5 4.3-1.2 8.7-3.1 12.5-5.7-6-6.4-9.8-14.3-8-22.4 2.5-11.3 14-17.5 21.8-8.4 9.6 11.2 5.8 22.3-3.7 30.9 1.8 1.3 3.6 2.5 5.1 3.3 1.9 1 4.3 2.1 7.1 2.9q1-2.8 2.3-5.6c5.6-12.1 25.5-27.2 30.1-5.8 3.3 14.9-15.3 20.5-27.9 19.4-7.1 24.9-5.7 54.3-4.2 79.5 6.1 0.1 12.3-0.2 16.6-1.9 9.4-3.6 6.7-10 8.4-16.9 1.2-5 3.6-9.3 6.4-13.5 5.5-8.6 11.8-16.8 18-24.9 7.6-10 10-17.4 12.5-29.2 4.7-22.5 1.1-45.8-11.8-65.4zm-83.6 69.8c6.6 28.9 5.6 70.6 5.8 81.4 4.3 0.1 8.4 0.2 12.4 0.2 2.5-0.1 5.5 0.1 8.7 0.2-1.5-24.9-3.2-55.4 4.1-80.6-5.1-1.6-10.6-4.7-15.4-8.6-4.3 2.9-9.8 5.6-15.6 7.4zm-18.6 87.4q-1.4-0.2-2.7-0.5c-7.8 5 15.6 7.8 20.1 8.1 6.6 0.4 13.2 0.6 19.8 0.8 7.2 0.3 14.4 0.4 21.6 0.1 4.5-0.2 23.4-1.5 16.9-8.1-2 0.6-4.4 0.9-7 1.1-10.5 0.9-21.3 1.4-31.9 1.5-12 0-24.9-0.9-36.8-3zm76.5 13.4c-13.9 4.6-32.1 1.9-46.2 1.4-8.2-0.3-25.7 1.5-35.3-3-2.6 6.6 19.8 7.3 21.5 7.4 5.9 0.3 11.8 0.4 17.8 0.4 7.4 0.1 14.7 0.4 22.1 0.2 3.3-0.1 6.6-0.2 9.9-0.5q3.9-0.5 7.8-1 1.2-2.4 2.4-4.9zm-32 24.9c-2.7 0.2-9.1 0.7-16.7 0.9 0.2 1.6 0.5 3.4 1 4.4 0.7 1.1-0.1 0.4 0.9 0.9 1 0.5 2.6 0.3 3.7 0.3 2.5-0.1 6-0.3 8.4-1.2 1.9-0.7 2.5-3.1 2.7-5.3zm29.4-13.7c-13.7 3.1-34.3 1.7-39.6 1.6-5.4 0-22.8 0.7-35.1-2.1q-0.1 0.2-0.2 0.5c-6.6 9 33 7.7 37.5 7.5 5.8-0.3 11.5-0.6 17.3-1q5.1-0.3 10.2-0.5 6.8 1.1 10.1-5.8-0.1-0.1-0.2-0.2zm-39.2-128c3.7-3.7 6-8.2 5.9-13.2q1.5-6.8-3.9-11-7.5 1.2-8.9 9.2c-0.6 5.4 2.7 10.7 6.9 15zm38.3 9q10.9-16.9-6.5-10.9-5.3 5.6-7.8 12.9-0.2 0.5-0.4 1.1c5.6 0.8 11.2 0.3 14.7-3.1zm-63-0.3c-1.8-5-12.8-22.3-19.3-11-4.8 8.3 10 13.1 14.5 13.5q2.6 0.2 5.5-0.1c-0.3-0.8-0.5-1.6-0.7-2.4z"/>
			<path id="&lt;Path&gt;" class="s1" d="m743.6 848c-9.5 4.3-19.2 8.2-27.7 14.3-4.6 3.4-9-4.3-4.5-7.5 8.5-6.2 18.2-10.1 27.7-14.4 5.2-2.4 9.6 5.2 4.5 7.6z"/>
			<path id="&lt;Path&gt;" class="s1" d="m669.1 813.6c6-7.7 10.6-16.4 15.3-24.9 2.8-4.9 10.4-0.5 7.6 4.4-5.2 9.3-10.2 18.3-16.7 26.7-3.4 4.5-9.6-1.8-6.2-6.2z"/>
			<path id="&lt;Path&gt;" class="s1" d="m610.8 801.3q1.1-14.8 1-29.7c0-5.6 8.8-5.6 8.8 0q0.1 14.9-1 29.7c-0.3 5.7-9.1 5.7-8.8 0z"/>
			<path id="&lt;Path&gt;" class="s1" d="m540.3 789.9c-2-5.3 6.5-7.6 8.5-2.4 3.8 10.1 10.6 18.9 16.5 27.7 3.2 4.8-4.4 9.2-7.6 4.5-6.4-9.6-13.2-19-17.4-29.8z"/>
			<path id="&lt;Path&gt;" class="s1" d="m516.9 861.5c-8-5.9-16.7-10.8-26-14.6-5.2-2-2.9-10.5 2.4-8.4 10 4 19.4 9 28 15.4 4.6 3.4 0.2 11-4.4 7.6z"/>
			<path id="&lt;Path&gt;" class="s1" d="m589.7 853.6c-18.5 5.4-34.7 25.7-37.3 44.5-0.5 4.2-6.9 2.4-6.3-1.7 2.8-21.1 21.4-43.2 41.9-49.1 4.1-1.2 5.8 5.1 1.7 6.3z"/>
			<path id="&lt;Path&gt;" class="s1" d="m593.8 865c-5.3 0.7-9.8 4.3-13.1 8.5-2.6 3.3-7.2-1.4-4.6-4.7 3.8-5 9.7-9.3 16-10.2 4.1-0.6 5.9 5.8 1.7 6.4z"/>
		</g>
	</g>
</svg>