<svg version="1.2" xmlns="http://www.w3.org/2000/svg" viewBox="0 0 1224 1584" width="1224" height="1584">
	<title>twitter (1)-ai</title>
	<style>
		.s0 { fill: #ffffff } 
	</style>
	<g id="Layer 1">
		<g id="&lt;Group&gt;">
			<path id="&lt;Compound Path&gt;" fill-rule="evenodd" class="s0" d="m856.2 819.5c0 147.3-119.4 266.7-266.6 266.7-147.3 0-266.7-119.4-266.7-266.7 0-147.3 119.4-266.7 266.7-266.7 147.2 0 266.6 119.4 266.6 266.7zm-24.2 0c0-133.9-108.5-242.4-242.4-242.4-133.9 0-242.5 108.5-242.5 242.4 0 133.9 108.6 242.5 242.5 242.5 133.9 0 242.4-108.6 242.4-242.5z"/>
			<path id="&lt;Path&gt;" class="s0" d="m458.6 922.8q6.8 0.8 13.7 0.8c27 0 51.8-9.2 71.5-24.6-25.2-0.5-46.4-17.1-53.7-40q5.2 1 10.8 1c5.2 0 10.3-0.7 15.1-2-26.3-5.3-46.1-28.5-46.1-56.4q0-0.4 0-0.7c7.7 4.3 16.6 6.9 26.1 7.2-15.5-10.4-25.7-28-25.7-47.9 0-10.6 2.9-20.5 7.8-29 28.4 34.8 70.8 57.8 118.7 60.2q-1.5-6.4-1.5-13.2c0-31.7 25.8-57.5 57.5-57.5 16.6 0 31.5 7 42.1 18.2 13.1-2.6 25.4-7.4 36.5-14-4.3 13.4-13.4 24.7-25.3 31.8 11.6-1.4 22.7-4.4 33.1-9-7.8 11.5-17.5 21.7-28.8 29.8q0.2 3.7 0.2 7.4c0 76.1-57.9 163.8-163.8 163.8-32.5 0-62.7-9.5-88.2-25.9z"/>
		</g>
	</g>
</svg>